<svg width="117" height="106" viewBox="0 0 117 106" fill="none" xmlns="http://www.w3.org/2000/svg">
<g clip-path="url(#clip0_4_313)">
<path d="M89.1974 42.1543C88.9505 42.3238 88.7082 42.4961 88.4666 42.6735C86.1355 49.4091 84.9517 56.4876 84.9645 63.6144C84.9636 64.4387 84.9815 65.2608 85.0183 66.0809C85.2755 72.2311 86.4498 78.3086 88.5024 84.1127C88.6107 84.4182 88.721 84.7224 88.8332 85.0253C88.9137 85.2426 88.9955 85.462 89.0832 85.6773C89.171 85.7857 89.2575 85.8921 89.3439 85.9985C89.3498 86.0031 89.3552 86.011 89.3613 86.0157C89.3961 86.0586 89.4309 86.1016 89.4624 86.1438C89.6118 86.3262 89.7632 86.5074 89.9126 86.6897L89.7944 86.7031L89.498 86.7355L89.4994 86.7374C89.599 86.7308 89.7007 86.7229 89.8011 86.713C89.8376 86.7115 89.8775 86.7105 89.9147 86.7056C89.9479 86.7035 89.9831 86.6999 90.0164 86.6978C94.2962 86.3871 98.6717 85.9743 102.491 84.0465C106.489 82.0272 109.771 77.905 109.392 73.4473C109.34 72.8636 109.225 72.2872 109.048 71.7286C108.974 71.4952 108.889 71.2665 108.798 71.0386C108.247 69.6429 107.334 68.419 106.152 67.4929C104.97 66.5667 103.563 65.9716 102.075 65.7688C100.587 65.566 99.0715 65.7628 97.6847 66.339C96.2979 66.9151 95.0897 67.8499 94.1844 69.0471C95.145 64.4018 100.06 61.8304 104.518 60.2002C108.979 58.5707 114.003 56.85 116.127 52.6073C117.313 50.2462 117.222 47.5621 116.267 45.1231C116.238 45.0502 116.207 44.9754 116.175 44.9018C114.981 42.0353 112.749 39.7243 109.924 38.4306C104.635 36.1074 98.3917 37.2955 93.1961 39.8196C91.8061 40.4958 90.4694 41.2762 89.1974 42.1543Z" fill="#F2F2F2"/>
<path d="M105.375 71.2133C101.327 71.7713 97.5658 73.6158 94.6478 76.4741C92.1637 78.9343 90.3885 82.0172 89.5084 85.3992C89.457 85.5928 89.411 85.7857 89.3684 85.9793C89.2568 85.7886 89.1479 85.5934 89.0403 85.4001C88.971 85.2763 88.9004 85.1505 88.8332 85.0254C88.9136 85.2428 88.9955 85.4622 89.0832 85.6774C89.171 85.7858 89.2574 85.8923 89.3438 85.9987C89.3498 86.0032 89.3552 86.0112 89.3613 86.0158C89.3961 86.0588 89.4309 86.1018 89.4624 86.144C89.6118 86.3264 89.7632 86.5075 89.9126 86.6898L89.7944 86.7033L89.498 86.7356L89.4993 86.7376C89.599 86.731 89.7007 86.723 89.801 86.7132C89.8376 86.7116 89.8775 86.7107 89.9147 86.7058C89.9243 86.6473 89.9373 86.5895 89.9502 86.5315C90.8074 82.1762 93.2134 78.278 96.7239 75.557C100.234 72.836 104.612 71.4762 109.048 71.7287C108.974 71.4954 108.889 71.2667 108.798 71.0388C107.654 70.9974 106.509 71.0558 105.375 71.2133Z" fill="white"/>
<path d="M91.0948 54.8413C89.5192 56.1362 88.1414 57.6542 87.0051 59.3471C86.414 60.2489 85.9082 61.2037 85.4943 62.1992C85.2976 62.6613 85.1211 63.1359 84.9644 63.6145C84.9636 64.4388 84.9815 65.2609 85.0183 66.081C85.1412 65.4542 85.2976 64.8344 85.4868 64.2243C85.5845 63.8896 85.6948 63.5608 85.8132 63.2354C87.141 59.5907 89.7131 56.6438 92.8004 54.3519C96.1089 51.8993 99.8783 49.9997 103.719 48.54C107.656 47.038 111.761 46.0237 115.945 45.5197C116.039 45.5077 116.125 45.4598 116.185 45.386C116.245 45.3121 116.275 45.218 116.267 45.1232C116.266 45.0403 116.233 44.9609 116.175 44.9019C116.144 44.8744 116.107 44.8545 116.067 44.8438C116.028 44.833 115.986 44.8318 115.945 44.8402C115.429 44.9025 114.914 44.9668 114.4 45.045C110.122 45.6827 105.939 46.8494 101.949 48.5184C98.0966 50.1243 94.3041 52.1521 91.0948 54.8413Z" fill="white"/>
<path d="M111.428 34.0924C112.222 34.0924 112.866 33.4491 112.866 32.6556C112.866 31.862 112.222 31.2188 111.428 31.2188C110.634 31.2188 109.99 31.862 109.99 32.6556C109.99 33.4491 110.634 34.0924 111.428 34.0924Z" fill="#F2F2F2"/>
<path d="M83.2841 105.689H47.8236C45.6977 105.687 43.6595 104.842 42.1563 103.34C40.653 101.839 39.8075 99.8024 39.8051 97.6786V8.01055C39.8075 5.88676 40.653 3.85064 42.1563 2.3489C43.6595 0.847146 45.6977 0.00240612 47.8236 0H83.2841C85.41 0.00240571 87.4481 0.847145 88.9514 2.34889C90.4547 3.85064 91.3002 5.88676 91.3026 8.01055V97.6786C91.3002 99.8024 90.4547 101.839 88.9514 103.34C87.4481 104.842 85.41 105.687 83.2841 105.689Z" fill="#3F3D56"/>
<path d="M82.8873 2.48682H78.9401C78.5878 2.48716 78.2501 2.62712 78.001 2.87597C77.7519 3.12481 77.6118 3.46222 77.6115 3.81415C77.6108 4.53366 77.3244 5.22351 76.8151 5.73229C76.3058 6.24106 75.6152 6.52719 74.895 6.52787H55.5904C54.8702 6.52719 54.1796 6.24106 53.6703 5.73229C53.161 5.22351 52.8746 4.53366 52.8739 3.81415C52.8736 3.46222 52.7335 3.12481 52.4844 2.87597C52.2353 2.62712 51.8975 2.48716 51.5453 2.48682H48.0649C46.4526 2.48887 44.9068 3.12963 43.7668 4.26858C42.6267 5.40753 41.9853 6.95168 41.9832 8.56239V97.5931C41.9853 99.2038 42.6267 100.748 43.7668 101.887C44.9068 103.026 46.4526 103.667 48.0649 103.669H82.8873C84.4996 103.667 86.0453 103.026 87.1854 101.887C88.3255 100.748 88.9669 99.2038 88.9689 97.5931V8.56239C88.9669 6.95168 88.3255 5.40753 87.1854 4.26858C86.0453 3.12963 84.4996 2.48887 82.8873 2.48682Z" fill="white"/>
<path d="M70.1046 4.2742H59.2139C59.1107 4.2742 59.0118 4.23326 58.9389 4.16039C58.8659 4.08752 58.825 3.98869 58.825 3.88563C58.825 3.78258 58.8659 3.68375 58.9389 3.61088C59.0118 3.53801 59.1107 3.49707 59.2139 3.49707H70.1046C70.2078 3.49707 70.3067 3.53801 70.3797 3.61088C70.4526 3.68375 70.4936 3.78258 70.4936 3.88563C70.4936 3.98869 70.4526 4.08752 70.3797 4.16039C70.3067 4.23326 70.2078 4.2742 70.1046 4.2742Z" fill="white"/>
<path d="M71.816 4.19641C71.9879 4.19641 72.1272 4.05724 72.1272 3.88556C72.1272 3.71388 71.9879 3.57471 71.816 3.57471C71.6442 3.57471 71.5049 3.71388 71.5049 3.88556C71.5049 4.05724 71.6442 4.19641 71.816 4.19641Z" fill="white"/>
<path d="M91.6138 35.3592C91.4282 35.359 91.2502 35.2852 91.119 35.1541C90.9877 35.023 90.9139 34.8452 90.9137 34.6598V20.9824C90.9137 20.7969 90.9875 20.619 91.1188 20.4878C91.25 20.3566 91.4281 20.283 91.6138 20.283C91.7995 20.283 91.9776 20.3566 92.1089 20.4878C92.2402 20.619 92.3139 20.7969 92.3139 20.9824V34.6598C92.3137 34.8452 92.2399 35.023 92.1086 35.1541C91.9774 35.2852 91.7994 35.359 91.6138 35.3592Z" fill="#3F3D56"/>
<path d="M39.805 25.2566C39.6194 25.2564 39.4415 25.1826 39.3102 25.0515C39.179 24.9204 39.1051 24.7426 39.1049 24.5572V21.4487C39.1049 21.2632 39.1787 21.0853 39.31 20.9541C39.4413 20.823 39.6194 20.7493 39.805 20.7493C39.9907 20.7493 40.1688 20.823 40.3001 20.9541C40.4314 21.0853 40.5052 21.2632 40.5052 21.4487V24.5572C40.5049 24.7426 40.4311 24.9204 40.2999 25.0515C40.1686 25.1826 39.9907 25.2564 39.805 25.2566Z" fill="#3F3D56"/>
<path d="M39.805 31.0073C39.6194 31.0071 39.4415 30.9334 39.3102 30.8022C39.179 30.6711 39.1051 30.4934 39.1049 30.3079V27.1994C39.1049 27.0139 39.1787 26.836 39.31 26.7049C39.4413 26.5737 39.6194 26.5 39.805 26.5C39.9907 26.5 40.1688 26.5737 40.3001 26.7049C40.4314 26.836 40.5052 27.0139 40.5052 27.1994V30.3079C40.5049 30.4934 40.4311 30.6711 40.2999 30.8022C40.1686 30.9334 39.9907 31.0071 39.805 31.0073Z" fill="#3F3D56"/>
<path d="M103.929 106H0.155582C0.114319 106 0.074746 105.984 0.0455687 105.955C0.0163915 105.925 0 105.886 0 105.845C0 105.803 0.0163915 105.764 0.0455687 105.735C0.074746 105.706 0.114319 105.689 0.155582 105.689H103.929C103.97 105.689 104.009 105.706 104.039 105.735C104.068 105.764 104.084 105.803 104.084 105.845C104.084 105.886 104.068 105.925 104.039 105.955C104.009 105.984 103.97 106 103.929 106Z" fill="#3F3D56"/>
<path d="M9.74702 104.119H11.6544L12.5618 96.7695H9.7467L9.74702 104.119Z" fill="#FFB6B6"/>
<path d="M9.2605 103.497L13.0169 103.497H13.017C13.6519 103.497 14.2608 103.749 14.7097 104.197C15.1586 104.646 15.4108 105.254 15.4109 105.888V105.966L9.26061 105.966L9.2605 103.497Z" fill="#2F2E41"/>
<path d="M27.3278 104.119H29.2352L30.1425 96.7695H27.3275L27.3278 104.119Z" fill="#FFB6B6"/>
<path d="M26.8412 103.497L30.5976 103.497H30.5978C31.2326 103.497 31.8415 103.749 32.2904 104.197C32.7394 104.646 32.9916 105.254 32.9916 105.888V105.966L26.8414 105.966L26.8412 103.497Z" fill="#2F2E41"/>
<path d="M25.0247 45.0732L26.2693 52.9999L14.4451 53.1554L16.0009 45.5395L25.0247 45.0732Z" fill="#FFB6B6"/>
<path d="M26.7362 50.9795L29.6922 61.0821L30.159 102.597H26.9695L19.346 69.242L12.3449 101.726H9.23322L11.4114 65.2009C11.4114 65.2009 10.3223 56.1862 14.0563 53.544V51.2255L26.7362 50.9795Z" fill="#2F2E41"/>
<path d="M9.77245 58.8738C10.1017 58.7842 10.4072 58.6235 10.6676 58.4031C10.9279 58.1828 11.1367 57.9081 11.2793 57.5984C11.4219 57.2887 11.4948 56.9515 11.4928 56.6106C11.4908 56.2697 11.4141 55.9334 11.2679 55.6254L16.2981 39.2422L12.5982 38.5095L7.99761 54.5685C7.49588 54.848 7.11423 55.3018 6.92498 55.8437C6.73574 56.3855 6.75204 56.978 6.97082 57.5087C7.18959 58.0393 7.59562 58.4714 8.11198 58.723C8.62834 58.9746 9.21914 59.0283 9.77245 58.8738Z" fill="#FFB6B6"/>
<path d="M23.8069 28.7255C25.8909 26.6435 25.8909 23.2681 23.8069 21.1861C21.7228 19.1042 18.3439 19.1042 16.2599 21.1861C14.1759 23.2681 14.1759 26.6435 16.2599 28.7255C18.3439 30.8074 21.7228 30.8074 23.8069 28.7255Z" fill="#FFB6B6"/>
<path d="M16.2176 49.3475C16.0081 49.3059 15.818 49.1968 15.6765 49.037C15.535 48.8771 15.4499 48.6752 15.4343 48.4624C15.317 46.8572 14.7365 44.0674 13.7093 40.1703C13.4778 39.2895 13.4353 38.3698 13.5846 37.4714C13.734 36.5731 14.0717 35.7164 14.5758 34.9576C15.0799 34.1989 15.7388 33.5551 16.5094 33.0687C17.28 32.5822 18.1449 32.264 19.0473 32.1349C19.9027 32.0113 20.7743 32.0602 21.6104 32.2789C22.4465 32.4977 23.2303 32.8817 23.9152 33.4083C24.6002 33.9349 25.1725 34.5934 25.5982 35.3449C26.0239 36.0963 26.2945 36.9254 26.3939 37.7832C26.9022 42.255 25.9433 46.7474 25.5075 48.4711C25.4547 48.6786 25.3353 48.8631 25.1674 48.9964C24.9996 49.1296 24.7927 49.2042 24.5784 49.2087L16.4277 49.366C16.3572 49.3674 16.2868 49.3612 16.2176 49.3475Z" fill="#E4E4E4"/>
<path d="M39.1784 35.0602C39.1294 35.1699 39.0892 35.2832 39.0581 35.3993L28.8557 38.8626L26.8842 37.1421L23.8962 39.775L27.0899 43.1596C27.3479 43.433 27.6878 43.6155 28.0584 43.6795C28.429 43.7436 28.8105 43.6858 29.1455 43.5149L40.0626 37.944C40.4574 38.186 40.9166 38.3021 41.3791 38.2769C41.8416 38.2518 42.2854 38.0866 42.6516 37.8033C43.0178 37.52 43.289 37.1321 43.4291 36.6911C43.5692 36.2501 43.5716 35.7769 43.4359 35.3345C43.3003 34.8921 43.033 34.5015 42.6697 34.2145C42.3064 33.9275 41.8642 33.7579 41.402 33.7281C40.9398 33.6983 40.4795 33.8098 40.0823 34.0478C39.6851 34.2857 39.3698 34.6388 39.1784 35.0602Z" fill="#FFB6B6"/>
<path d="M28.5 39.052L24.7808 42.2972C24.6749 42.3895 24.5504 42.458 24.4158 42.4979C24.2811 42.5378 24.1393 42.5483 24.0002 42.5286C23.8611 42.5088 23.7279 42.4594 23.6096 42.3836C23.4914 42.3078 23.3909 42.2074 23.3149 42.0893L20.6547 37.951C20.1849 37.4074 19.95 36.7 20.0016 35.9837C20.0531 35.2674 20.3869 34.6008 20.9297 34.1299C21.4725 33.6591 22.18 33.4225 22.8972 33.472C23.6143 33.5216 24.2825 33.8531 24.7553 34.3941L28.491 37.573C28.598 37.664 28.684 37.777 28.7433 37.9043C28.8025 38.0315 28.8337 38.1701 28.8345 38.3104C28.8354 38.4508 28.8059 38.5897 28.7482 38.7177C28.6905 38.8456 28.6058 38.9596 28.5 39.052Z" fill="#E4E4E4"/>
<path d="M15.7105 43.437L11.1144 41.6332C10.9836 41.5818 10.8654 41.5029 10.7679 41.4019C10.6704 41.3008 10.5958 41.18 10.5493 41.0475C10.5028 40.9151 10.4854 40.7742 10.4983 40.6344C10.5112 40.4946 10.5541 40.3593 10.624 40.2376L13.0763 35.9729C13.3428 35.3058 13.8632 34.7714 14.5236 34.4871C15.1839 34.2028 15.9301 34.1918 16.5986 34.4564C17.267 34.721 17.8031 35.2397 18.0893 35.8986C18.3755 36.5576 18.3884 37.303 18.1251 37.9715L17.0206 42.748C16.9889 42.8847 16.9281 43.0131 16.8424 43.1242C16.7566 43.2354 16.6478 43.3268 16.5235 43.3922C16.3991 43.4575 16.2622 43.4954 16.1219 43.5031C15.9816 43.5109 15.8413 43.4883 15.7105 43.437Z" fill="#E4E4E4"/>
<path d="M22.5008 23.7617C23.6637 24.948 25.2426 26.2434 26.8112 25.5359C27.8411 25.0714 28.3617 23.9365 28.2032 22.8188C27.9182 20.8088 26.2747 19.6233 24.6718 18.6466C22.5882 17.3769 20.2713 16.2363 17.8342 16.3675C15.397 16.4986 12.9014 18.3365 12.853 20.7743C12.814 22.7347 14.2894 24.6645 13.6573 26.5208C13.021 28.389 10.6606 28.9712 8.6855 28.9365C6.71045 28.9018 4.55461 28.5894 2.9126 29.6864C0.817907 31.0858 0.635369 34.2924 1.91474 36.4612C3.19412 38.63 5.51086 39.9571 7.80373 41.0014C10.8416 42.385 14.2104 43.4631 17.4853 42.8138C20.7601 42.1644 23.7828 39.2692 23.5314 35.9433C23.4252 34.5384 22.776 33.2403 22.1501 31.9778C21.5242 30.7153 20.8976 29.4006 20.8427 27.9928C20.7969 26.8196 21.2533 25.5585 22.1636 24.8655C22.328 24.7452 22.45 24.576 22.5121 24.3821C22.5743 24.1882 22.5733 23.9796 22.5094 23.7863L22.5008 23.7617Z" fill="#2F2E41"/>
<path d="M87.7716 46.6096C86.0885 47.618 83.0899 48.8815 80.0256 47.583L78.0448 46.7436L82.0142 42.2984C78.8466 38.8094 77.0942 34.2664 77.0991 29.5561C77.1039 24.8458 78.8656 20.3064 82.0403 16.8238C85.215 13.3413 89.5749 11.1656 94.2689 10.7214C98.9629 10.2772 103.654 11.5964 107.427 14.4215C111.2 17.2467 113.783 21.3749 114.673 26.0005C115.563 30.6261 114.696 35.417 112.241 39.4381C109.785 43.4593 105.918 46.422 101.393 47.748C96.8691 49.074 92.0125 48.6681 87.7716 46.6096Z" fill="white"/>
<path d="M87.7819 46.8492C86.1647 47.7977 83.0839 49.1086 79.943 47.7775L77.6903 46.8229L81.7303 42.2989C79.2166 39.4743 77.5959 35.9699 77.072 32.2269C76.5482 28.4839 77.1448 24.6698 78.7866 21.2648C80.4284 17.8599 83.0421 15.0164 86.2984 13.0925C89.5547 11.1686 93.3081 10.2502 97.0858 10.4532C100.864 10.6561 104.497 11.9712 107.528 14.2329C110.559 16.4945 112.852 19.6016 114.119 23.1628C115.386 26.724 115.57 30.5801 114.647 34.2453C113.724 37.9106 111.737 41.2213 108.934 43.7603C106.12 46.3256 102.602 47.9907 98.8318 48.5412C95.062 49.0917 91.2136 48.5024 87.7819 46.8492ZM109.942 16.9945C108.289 15.1714 106.292 13.6917 104.066 12.6399C101.84 11.588 99.4282 10.9846 96.9686 10.8641C94.5091 10.7436 92.0499 11.1085 89.7315 11.9377C87.4131 12.767 85.281 14.0444 83.4569 15.6971C81.6329 17.3497 80.1526 19.3452 79.1008 21.5695C78.0489 23.7939 77.4461 26.2034 77.3266 28.6606C77.2072 31.1177 77.5736 33.5743 78.4048 35.8899C79.236 38.2056 80.5157 40.3349 82.1709 42.1564L82.2988 42.2972L78.3992 46.6642L80.1082 47.3884C83.1417 48.6739 86.1434 47.3385 87.6628 46.4283L87.761 46.3694L87.8641 46.4194C91.7806 48.3205 96.2375 48.8002 100.47 47.7762C104.702 46.7522 108.445 44.2883 111.057 40.8075C113.668 37.3268 114.985 33.0463 114.782 28.701C114.579 24.3557 112.868 20.2166 109.942 16.9945Z" fill="#388E3C"/>
<path opacity="0.1" d="M112.061 29.4574C112.061 25.1019 110.428 20.9044 107.484 17.6915C104.541 14.4785 100.5 12.483 96.157 12.0978C96.6652 12.0534 97.1792 12.0293 97.699 12.0293C102.324 12.0317 106.759 13.8689 110.029 17.137C113.299 20.4052 115.136 24.8367 115.136 29.4574C115.136 34.078 113.299 38.5096 110.029 41.7777C106.759 45.0458 102.324 46.8831 97.699 46.8855C97.18 46.8855 96.6669 46.8611 96.1595 46.8167C100.502 46.431 104.542 44.4352 107.485 41.2224C110.428 38.0095 112.061 33.8124 112.061 29.4574Z" fill="black"/>
<path d="M98.5184 25.9819H86.0526V27.1384H98.5184V25.9819Z" fill="#388E3C"/>
<path d="M107.78 29.9827H86.0526V31.1391H107.78V29.9827Z" fill="#388E3C"/>
<path d="M107.758 33.9832H86.0526V35.1396H107.758V33.9832Z" fill="#388E3C"/>
<path d="M48.4939 76.0831C46.7224 74.4781 45.4671 72.3843 44.8867 70.0665C44.3064 67.7488 44.4271 65.3112 45.2335 63.0619C46.04 60.8127 47.496 58.8529 49.4174 57.4303C51.3388 56.0077 53.6393 55.1862 56.028 55.0698C58.4167 54.9533 60.7864 55.5471 62.8373 56.7761C64.8882 58.0051 66.5283 59.814 67.5501 61.9741C68.5719 64.1342 68.9296 66.5485 68.5779 68.9117C68.2262 71.2749 67.1809 73.4808 65.5742 75.2506L68.1061 78.0859L66.8427 78.6213C64.8881 79.4496 62.9754 78.6436 61.9019 78.0005C59.7307 79.0543 57.2935 79.4349 54.9039 79.0932C52.5144 78.7515 50.2819 77.7032 48.4939 76.0831Z" fill="white"/>
<path d="M56.6017 79.3605C53.5682 79.3581 50.6447 78.2251 48.4032 76.1831C46.6158 74.5636 45.348 72.4519 44.7595 70.114C44.1711 67.7761 44.2882 65.3166 45.0963 63.0451C45.9043 60.7736 47.3672 58.7917 49.3005 57.3491C51.2338 55.9066 53.5512 55.0677 55.9608 54.9383C58.3705 54.8088 60.7645 55.3946 62.8416 56.6217C64.9186 57.8489 66.5857 59.6626 67.6329 61.8344C68.6802 64.0063 69.0607 66.4391 68.7266 68.8266C68.3925 71.214 67.3587 73.4493 65.7554 75.2509L68.3322 78.1366L66.8954 78.7454C64.8919 79.5945 62.9269 78.7583 61.8953 78.1533C60.2435 78.9464 58.4344 79.359 56.6017 79.3605ZM48.5845 75.9834C50.3489 77.5919 52.5569 78.633 54.9215 78.9711C57.286 79.3092 59.6977 78.9287 61.8429 77.8792L61.9087 77.8473L61.9713 77.8849C62.9404 78.4655 64.8551 79.3172 66.79 78.4973L67.8801 78.0353L65.3927 75.2499L65.4743 75.16C67.063 73.4101 68.0966 71.2288 68.4444 68.8919C68.7922 66.5551 68.4385 64.1677 67.4281 62.0317C66.4177 59.8957 64.7959 58.107 62.7679 56.8918C60.7399 55.6765 58.3966 55.0893 56.0346 55.2045C53.6725 55.3196 51.3977 56.1319 49.4977 57.5386C47.5977 58.9453 46.158 60.8833 45.3606 63.1074C44.5631 65.3316 44.4438 67.742 45.0176 70.0339C45.5915 72.3258 46.8328 74.3962 48.5845 75.9834Z" fill="#388E3C"/>
<path opacity="0.1" d="M46.4091 67.0601C46.4093 64.282 47.4507 61.6046 49.3282 59.5552C51.2057 57.5058 53.7833 56.233 56.5533 55.9873C56.2291 55.959 55.9013 55.9436 55.5698 55.9436C52.6195 55.9452 49.7907 57.117 47.7051 59.2016C45.6196 61.2862 44.448 64.1128 44.448 67.0601C44.448 70.0073 45.6196 72.8339 47.7051 74.9185C49.7907 77.0031 52.6195 78.175 55.5698 78.1765C55.9008 78.1765 56.2281 78.161 56.5517 78.1327C53.782 77.8866 51.2048 76.6136 49.3277 74.5643C47.4505 72.515 46.4093 69.8379 46.4091 67.0601Z" fill="black"/>
<path d="M62.9984 64.8433H55.0471V65.5809H62.9984V64.8433Z" fill="#388E3C"/>
<path d="M62.9984 67.395H49.1399V68.1327H62.9984V67.395Z" fill="#388E3C"/>
<path d="M62.9984 69.9468H49.1534V70.6844H62.9984V69.9468Z" fill="#388E3C"/>
<path d="M72.0895 80.842C73.0347 80.842 73.8009 80.0765 73.8009 79.1323C73.8009 78.1881 73.0347 77.4226 72.0895 77.4226C71.1443 77.4226 70.3781 78.1881 70.3781 79.1323C70.3781 80.0765 71.1443 80.842 72.0895 80.842Z" fill="#388E3C"/>
<path d="M74.5788 49.2906C75.6959 49.2906 76.6014 48.3859 76.6014 47.27C76.6014 46.1541 75.6959 45.2495 74.5788 45.2495C73.4618 45.2495 72.5563 46.1541 72.5563 47.27C72.5563 48.3859 73.4618 49.2906 74.5788 49.2906Z" fill="#388E3C"/>
</g>
<defs>
<clipPath id="clip0_4_313">
<rect width="117" height="106" fill="white"/>
</clipPath>
</defs>
</svg>
