<svg width="390" height="279" viewBox="0 0 390 279" fill="none" xmlns="http://www.w3.org/2000/svg">
<g clip-path="url(#clip0_5_941)">
<path d="M378.469 81.7584H165.057C162.053 81.7611 159.172 82.9547 157.048 85.0772C154.924 87.1997 153.729 90.0776 153.727 93.0792V127.637C153.729 130.639 154.924 133.517 157.048 135.639C159.172 137.762 162.053 138.955 165.057 138.958H378.469C381.474 138.955 384.354 137.762 386.478 135.639C388.602 133.517 389.797 130.639 389.799 127.637V93.0792C389.797 90.0776 388.602 87.1997 386.478 85.0772C384.354 82.9547 381.474 81.7611 378.469 81.7584Z" fill="#F2F2F2"/>
<path d="M85.5843 279H0.67924C0.499095 279 0.326316 278.928 0.198934 278.801C0.0715517 278.674 0 278.501 0 278.321C0 278.141 0.0715517 277.969 0.198934 277.841C0.326316 277.714 0.499095 277.643 0.67924 277.643H85.5843C85.7644 277.643 85.9372 277.714 86.0646 277.841C86.192 277.969 86.2635 278.141 86.2635 278.321C86.2635 278.501 86.192 278.674 86.0646 278.801C85.9372 278.928 85.7644 279 85.5843 279Z" fill="#3F3D56"/>
<path d="M73.1178 66.4972C72.3304 66.9938 71.6616 67.6569 71.1584 68.4397C70.6552 69.2226 70.3299 70.1061 70.2055 71.0281C70.081 71.9502 70.1604 72.8883 70.438 73.7763C70.7156 74.6644 71.1847 75.4809 71.8123 76.1682L65.6397 89.3386L72.7349 95.0387L81.1904 76.3172C82.2761 75.1872 82.9093 73.6986 82.9699 72.1333C83.0306 70.568 82.5145 69.0349 81.5194 67.8245C80.5244 66.614 79.1195 65.8103 77.571 65.5657C76.0226 65.3211 74.4381 65.6525 73.1178 66.4972Z" fill="#FFB8B8"/>
<path d="M37.6468 71.8419C39.6002 70.6694 41.9304 70.2932 44.1541 70.7913C46.3777 71.2894 48.3242 72.6235 49.5898 74.5171L62.2201 93.4134L66.6049 83.7547C66.8787 83.1515 67.3637 82.6692 67.9687 82.3985C68.5736 82.1278 69.2567 82.0874 69.8893 82.2848L76.5074 84.3505C76.8531 84.4584 77.1738 84.6343 77.4505 84.8678C77.7273 85.1014 77.9544 85.3879 78.1187 85.7105C78.283 86.033 78.3811 86.3852 78.4072 86.7462C78.4333 87.1072 78.3869 87.4697 78.2707 87.8125L73.7404 101.179C73.1674 102.87 72.2099 104.405 70.9432 105.664C69.6764 106.922 68.1349 107.871 66.4397 108.434C64.7444 108.998 62.9416 109.161 61.1726 108.911C59.4036 108.661 57.7167 108.005 56.2442 106.994C55.5562 106.521 54.9214 105.976 54.3509 105.367L35.738 85.495C34.8342 84.53 34.1578 83.3752 33.7583 82.1153C33.3589 80.8553 33.2466 79.522 33.4296 78.2131C33.6126 76.9041 34.0863 75.6526 34.8159 74.5502C35.5456 73.4478 36.5129 72.5225 37.6468 71.8419Z" fill="#CCCCCC"/>
<path d="M78.5052 52.3172C78.8442 52.3256 79.166 52.4682 79.3997 52.7137C79.6335 52.9592 79.7601 53.2874 79.7517 53.6261L79.6427 58.0122L79.8628 58.0323L79.7837 61.0113L79.5687 60.9845L79.1781 76.6979C79.1648 77.2357 78.956 77.7503 78.5908 78.1456C78.2257 78.5409 77.729 78.79 77.1936 78.8463L67.1939 79.8982C66.9505 79.9238 66.7043 79.8959 66.4728 79.8164C66.2413 79.737 66.03 79.6078 65.8537 79.4381C65.6774 79.2684 65.5403 79.0622 65.4522 78.834C65.3641 78.6058 65.327 78.3611 65.3436 78.117L66.8602 55.7423C66.892 55.2723 67.0829 54.8272 67.4016 54.48C67.7202 54.1329 68.1475 53.9044 68.6133 53.832L78.2667 52.3336C78.3455 52.3207 78.4253 52.3152 78.5052 52.3172Z" fill="#3F3D56"/>
<path d="M70.7662 54.6458L75.8411 53.8581C75.9324 53.8439 76.0165 53.8 76.0804 53.7333C76.1443 53.6665 76.1843 53.5805 76.1944 53.4887C76.2058 53.3847 76.2511 53.2874 76.3235 53.2117C76.3958 53.1361 76.4911 53.0864 76.5945 53.0703L77.6635 52.9044C77.8094 52.8818 77.9584 52.8914 78.1002 52.9326C78.2419 52.9738 78.3729 53.0456 78.4838 53.1429C78.5948 53.2402 78.683 53.3606 78.7423 53.4957C78.8015 53.6308 78.8304 53.7772 78.8268 53.9247L78.2774 76.7064C78.2706 76.9891 78.1598 77.2594 77.9663 77.4657C77.7727 77.672 77.5099 77.7999 77.228 77.825L67.2357 78.7126C67.1082 78.724 66.9798 78.7077 66.8592 78.6648C66.7386 78.622 66.6287 78.5537 66.537 78.4646C66.4452 78.3754 66.3738 78.2676 66.3276 78.1483C66.2814 78.0291 66.2615 77.9013 66.2693 77.7737L67.6175 55.6057C67.6374 55.279 67.7685 54.969 67.989 54.7271C68.2095 54.4852 68.5061 54.3259 68.8298 54.2756L69.9566 54.1007C69.998 54.2768 70.1044 54.4307 70.2545 54.5318C70.4046 54.6328 70.5874 54.6736 70.7662 54.6458Z" fill="white"/>
<path d="M47.2221 270.762L54.9872 270.761L58.6802 240.833L47.2194 240.835L47.2221 270.762Z" fill="#FFB8B8"/>
<path d="M69.9636 277.965L45.5586 277.967L45.5578 268.545L60.5335 268.544C61.7718 268.544 62.9979 268.787 64.142 269.261C65.286 269.734 66.3255 270.428 67.2012 271.303C68.0769 272.178 68.7715 273.216 69.2455 274.359C69.7194 275.502 69.9635 276.727 69.9636 277.965Z" fill="#2F2E41"/>
<path d="M23.3564 270.762L31.1214 270.761L34.8145 240.833L23.3536 240.835L23.3564 270.762Z" fill="#FFB8B8"/>
<path d="M46.098 277.965L21.693 277.967L21.6922 268.545L36.6679 268.544C39.1687 268.544 41.5672 269.536 43.3356 271.303C45.1041 273.07 46.0977 275.466 46.098 277.965Z" fill="#2F2E41"/>
<path d="M46.098 61.6706C55.3117 61.6706 62.7808 54.2074 62.7808 45.0012C62.7808 35.7949 55.3117 28.3318 46.098 28.3318C36.8843 28.3318 29.4151 35.7949 29.4151 45.0012C29.4151 54.2074 36.8843 61.6706 46.098 61.6706Z" fill="#FFB8B8"/>
<path d="M54.684 89.5999C54.5477 85.3142 53.3402 81.1307 51.1715 77.4306C49.0028 73.7306 45.9419 70.6317 42.2677 68.4163C37.9577 65.8787 33.2401 64.889 29.4868 68.6392C27.2331 70.9476 25.4283 73.6542 24.1643 76.6214C20.6924 84.7072 20.4653 93.8174 23.5299 102.066L32.4629 126.725L53.1385 128.963C53.5268 129.005 53.9197 128.963 54.2903 128.84C54.6609 128.717 55.0004 128.515 55.2859 128.248C55.5713 127.982 55.7959 127.657 55.9443 127.296C56.0927 126.935 56.1615 126.546 56.1459 126.156L54.684 89.5999Z" fill="#2F2E41"/>
<path d="M33.7738 123.689C33.7738 123.689 18.327 129.451 22.3656 153.849C25.9895 175.742 23.1096 248.411 22.4801 263.1C22.4502 263.8 22.6926 264.485 23.1566 265.01C23.6206 265.536 24.2701 265.862 24.9691 265.919L33.986 266.67C34.6922 266.729 35.3935 266.51 35.9403 266.059C36.487 265.609 36.8359 264.962 36.9126 264.258L41.5695 221.519C41.5877 221.351 41.6679 221.196 41.7942 221.084C41.9206 220.972 42.0841 220.911 42.253 220.913C42.4218 220.915 42.5838 220.98 42.7074 221.095C42.831 221.21 42.9074 221.367 42.9216 221.535L46.3916 262.661C46.4501 263.354 46.7724 263.998 47.2921 264.46C47.8118 264.922 48.4893 265.168 49.1849 265.146L56.7585 264.907C57.1154 264.895 57.4666 264.814 57.792 264.667C58.1173 264.52 58.4105 264.31 58.6547 264.05C58.899 263.79 59.0894 263.484 59.2153 263.15C59.3411 262.816 59.3998 262.461 59.3881 262.104L54.9267 126.538L33.7738 123.689Z" fill="#2F2E41"/>
<path d="M49.4462 43.9029C55.0257 46.1893 62.1509 43.5184 64.8485 38.1292C67.5461 32.7401 65.4112 25.4413 60.2336 22.3519C55.056 19.2625 47.6127 20.8461 44.1437 25.775C41.3219 20.6952 33.9294 19.4002 28.8538 22.2346C23.7782 25.069 21.0136 31.006 20.6857 36.8066C20.3578 42.6071 22.1227 48.3215 24.2757 53.7183C27.7583 62.448 38.9697 67.1485 47.6438 63.5155C43.6728 57.6059 44.4567 48.9579 49.4462 43.9029Z" fill="#2F2E41"/>
<path d="M71.9298 68.5182C71.7814 68.5185 71.6368 68.4705 71.518 68.3815L71.5107 68.376L69.9596 67.1904C69.8877 67.1353 69.8274 67.0667 69.7821 66.9884C69.7368 66.9101 69.7074 66.8236 69.6956 66.734C69.6837 66.6443 69.6897 66.5532 69.713 66.4658C69.7364 66.3784 69.7768 66.2965 69.8319 66.2247C69.887 66.153 69.9557 66.0927 70.034 66.0475C70.1124 66.0022 70.1989 65.9728 70.2887 65.961C70.3784 65.9491 70.4696 65.9551 70.5571 65.9784C70.6445 66.0018 70.7265 66.0422 70.7983 66.0972L71.803 66.867L74.1771 63.7722C74.2322 63.7004 74.3008 63.6402 74.3792 63.5949C74.4575 63.5497 74.544 63.5203 74.6337 63.5085C74.7234 63.4967 74.8146 63.5026 74.902 63.526C74.9894 63.5493 75.0713 63.5897 75.1432 63.6447C75.288 63.7559 75.3834 63.9202 75.4073 64.1012C75.4312 64.2822 75.3822 64.4653 75.2712 64.6102L72.4787 68.2488C72.4141 68.3326 72.331 68.4005 72.236 68.4471C72.1409 68.4936 72.0363 68.5177 71.9304 68.5174L71.9298 68.5182Z" fill="#388E3C"/>
<path d="M378.67 0H165.257C162.253 0.00271895 159.373 1.19632 157.249 3.3188C155.124 5.44127 153.93 8.31917 153.927 11.3208V45.879C153.93 48.8806 155.124 51.7585 157.249 53.881C159.373 56.0035 162.253 57.1971 165.257 57.1998H378.67C381.674 57.1971 384.554 56.0035 386.679 53.881C388.803 51.7585 389.997 48.8806 390 45.879V11.3208C389.997 8.31917 388.803 5.44126 386.679 3.31878C384.554 1.19631 381.674 0.00271895 378.67 0ZM388.807 45.879C388.804 48.5642 387.734 51.1384 385.834 53.0372C383.934 54.9359 381.357 56.0043 378.67 56.0081H165.257C162.57 56.0043 159.993 54.9359 158.093 53.0372C156.193 51.1384 155.124 48.5642 155.12 45.879V11.3208C155.124 8.63555 156.193 6.06137 158.093 4.16261C159.993 2.26386 162.57 1.19546 165.257 1.19166H378.67C381.357 1.19546 383.934 2.26386 385.834 4.16261C387.734 6.06137 388.804 8.63555 388.807 11.3208V45.879Z" fill="#3F3D56"/>
<path d="M208.687 48.3039C204.787 48.3039 200.974 47.1484 197.731 44.9833C194.488 42.8182 191.961 39.7409 190.468 36.1405C188.975 32.54 188.585 28.5782 189.346 24.756C190.107 20.9338 191.985 17.4229 194.743 14.6672C197.501 11.9115 201.014 10.0349 204.84 9.27462C208.665 8.51433 212.63 8.90453 216.233 10.3959C219.837 11.8872 222.916 14.4127 225.083 17.653C227.25 20.8933 228.407 24.7029 228.407 28.6C228.401 33.8239 226.321 38.8322 222.624 42.5262C218.927 46.2201 213.915 48.298 208.687 48.3039Z" fill="#388E3C"/>
<path d="M349.552 44.6874H247.053C245.788 44.6874 244.574 44.1852 243.68 43.2912C242.785 42.3973 242.282 41.1849 242.282 39.9207C242.282 38.6565 242.785 37.4441 243.68 36.5502C244.574 35.6563 245.788 35.1541 247.053 35.1541H349.552C350.817 35.1541 352.03 35.6563 352.925 36.5502C353.82 37.4441 354.322 38.6565 354.322 39.9207C354.322 41.1849 353.82 42.3973 352.925 43.2912C352.03 44.1852 350.817 44.6874 349.552 44.6874Z" fill="#CCCCCC"/>
<path d="M280.976 24.4291H247.053C245.788 24.4291 244.574 23.9269 243.68 23.0329C242.785 22.139 242.282 20.9266 242.282 19.6624C242.282 18.3982 242.785 17.1858 243.68 16.2919C244.574 15.398 245.788 14.8958 247.053 14.8958H280.976C282.241 14.8958 283.454 15.398 284.349 16.2919C285.244 17.1858 285.746 18.3982 285.746 19.6624C285.746 20.9266 285.244 22.139 284.349 23.0329C283.454 23.9269 282.241 24.4291 280.976 24.4291Z" fill="#CCCCCC"/>
<path d="M207.68 35.5306C207.19 35.5315 206.714 35.3733 206.323 35.08L206.298 35.0618L201.187 31.1551C200.95 30.974 200.751 30.7479 200.601 30.4898C200.452 30.2317 200.354 29.9466 200.315 29.6508C200.275 29.3551 200.295 29.0545 200.372 28.7663C200.449 28.478 200.582 28.2078 200.764 27.971C200.945 27.7342 201.172 27.5356 201.431 27.3864C201.689 27.2372 201.975 27.1404 202.271 27.1016C202.567 27.0628 202.868 27.0827 203.156 27.1601C203.444 27.2375 203.715 27.371 203.951 27.5529L207.262 30.0896L215.085 19.8918C215.266 19.6553 215.492 19.4569 215.751 19.3078C216.009 19.1588 216.294 19.062 216.589 19.023C216.885 18.9839 217.185 19.0035 217.473 19.0805C217.761 19.1575 218.031 19.2904 218.268 19.4716L218.269 19.4721L218.22 19.5395L218.27 19.4721C218.747 19.8387 219.06 20.3796 219.138 20.976C219.217 21.5724 219.056 22.1757 218.69 22.6534L209.488 34.6429C209.275 34.9192 209.002 35.1427 208.688 35.2962C208.375 35.4497 208.031 35.529 207.682 35.528L207.68 35.5306Z" fill="white"/>
<path d="M286.973 92.9808H73.5596C70.5556 92.9836 67.6753 94.1772 65.5512 96.2996C63.427 98.4221 62.2324 101.3 62.2297 104.302V138.86C62.2324 141.861 63.427 144.739 65.5512 146.862C67.6753 148.984 70.5556 150.178 73.5596 150.181H286.973C289.977 150.178 292.857 148.984 294.981 146.862C297.105 144.739 298.3 141.861 298.303 138.86V104.302C298.3 101.3 297.105 98.4221 294.981 96.2996C292.857 94.1772 289.977 92.9836 286.973 92.9808Z" fill="white"/>
<path d="M286.973 92.9808H73.5596C70.5556 92.9836 67.6753 94.1772 65.5512 96.2996C63.427 98.4221 62.2324 101.3 62.2297 104.302V138.86C62.2324 141.861 63.427 144.739 65.5512 146.862C67.6753 148.984 70.5556 150.178 73.5596 150.181H286.973C289.977 150.178 292.857 148.984 294.981 146.862C297.105 144.739 298.3 141.861 298.303 138.86V104.302C298.3 101.3 297.105 98.4221 294.981 96.2996C292.857 94.1772 289.977 92.9836 286.973 92.9808ZM297.11 138.86C297.106 141.545 296.037 144.119 294.137 146.018C292.236 147.917 289.66 148.985 286.973 148.989H73.5596C70.8722 148.985 68.296 147.917 66.3957 146.018C64.4954 144.119 63.4261 141.545 63.4223 138.86V104.302C63.4261 101.616 64.4954 99.0422 66.3957 97.1434C68.2959 95.2447 70.8722 94.1763 73.5596 94.1725H286.973C289.66 94.1763 292.236 95.2447 294.137 97.1434C296.037 99.0422 297.106 101.616 297.11 104.302V138.86Z" fill="#3F3D56"/>
<path d="M116.989 141.285C113.089 141.285 109.277 140.129 106.034 137.964C102.791 135.799 100.263 132.722 98.7706 129.121C97.278 125.521 96.8875 121.559 97.6484 117.737C98.4093 113.915 100.287 110.404 103.045 107.648C105.803 104.892 109.317 103.016 113.142 102.255C116.967 101.495 120.932 101.885 124.536 103.377C128.139 104.868 131.219 107.394 133.386 110.634C135.553 113.874 136.709 117.684 136.709 121.581C136.703 126.805 134.624 131.813 130.927 135.507C127.23 139.201 122.218 141.279 116.989 141.285Z" fill="#388E3C"/>
<path d="M257.854 137.668H155.355C154.09 137.668 152.877 137.166 151.982 136.272C151.088 135.378 150.585 134.166 150.585 132.902C150.585 131.637 151.088 130.425 151.982 129.531C152.877 128.637 154.09 128.135 155.355 128.135H257.854C259.12 128.135 260.333 128.637 261.228 129.531C262.122 130.425 262.625 131.637 262.625 132.902C262.625 134.166 262.122 135.378 261.228 136.272C260.333 137.166 259.12 137.668 257.854 137.668Z" fill="#CCCCCC"/>
<path d="M189.278 117.41H155.355C154.729 117.41 154.109 117.287 153.53 117.047C152.951 116.808 152.425 116.456 151.982 116.014C151.539 115.571 151.188 115.046 150.948 114.467C150.708 113.889 150.585 113.269 150.585 112.643C150.585 112.017 150.708 111.397 150.948 110.819C151.188 110.241 151.539 109.715 151.982 109.273C152.425 108.83 152.951 108.479 153.53 108.239C154.109 108 154.729 107.877 155.355 107.877H189.278C190.544 107.877 191.757 108.379 192.652 109.273C193.546 110.167 194.049 111.379 194.049 112.643C194.049 113.907 193.546 115.12 192.652 116.014C191.757 116.908 190.544 117.41 189.278 117.41Z" fill="#CCCCCC"/>
<path d="M115.982 128.512C115.493 128.512 115.017 128.354 114.625 128.061L114.601 128.043L109.49 124.136C109.253 123.955 109.054 123.729 108.904 123.471C108.754 123.213 108.657 122.928 108.617 122.632C108.578 122.336 108.598 122.035 108.675 121.747C108.752 121.459 108.885 121.189 109.066 120.952C109.248 120.715 109.475 120.517 109.733 120.367C109.992 120.218 110.277 120.121 110.573 120.083C110.869 120.044 111.17 120.064 111.459 120.141C111.747 120.218 112.017 120.352 112.254 120.534L115.564 123.071L123.387 112.873C123.569 112.636 123.795 112.438 124.053 112.289C124.311 112.14 124.596 112.043 124.892 112.004C125.188 111.965 125.488 111.984 125.776 112.061C126.064 112.138 126.334 112.271 126.571 112.453L126.571 112.453L126.523 112.52L126.573 112.453C127.05 112.82 127.362 113.361 127.441 113.957C127.52 114.553 127.359 115.157 126.993 115.634L117.791 127.624C117.578 127.9 117.304 128.124 116.991 128.277C116.678 128.431 116.333 128.51 115.984 128.509L115.982 128.512Z" fill="white"/>
<path d="M66.6392 100.777C65.7817 100.414 64.855 100.244 63.9245 100.278C62.9939 100.312 62.0823 100.55 61.2536 100.974C60.4249 101.398 59.6994 101.999 59.1282 102.734C58.557 103.469 58.154 104.32 57.9475 105.227L43.6017 107.682L42.9689 116.757L63.1792 113.005C64.7275 113.251 66.3122 112.92 67.6329 112.076C68.9536 111.232 69.9187 109.934 70.3452 108.426C70.7717 106.919 70.63 105.308 69.947 103.898C69.2639 102.488 68.087 101.377 66.6392 100.777Z" fill="#FFB8B8"/>
<path d="M41.9966 74.7292C44.0753 75.6624 45.7147 77.3592 46.575 79.4677C47.4353 81.5762 47.4503 83.9347 46.617 86.054L38.3013 107.203L48.741 105.286C49.3929 105.166 50.0661 105.289 50.6339 105.631C51.2017 105.972 51.6249 106.51 51.8238 107.141L53.9049 113.75C54.0137 114.095 54.0522 114.458 54.0183 114.819C53.9843 115.179 53.8786 115.529 53.7074 115.848C53.5361 116.167 53.3028 116.448 53.0211 116.676C52.7393 116.903 52.4149 117.072 52.0669 117.173L38.4978 121.087C36.7813 121.583 34.9733 121.674 33.2158 121.353C31.4582 121.033 29.7989 120.31 28.3681 119.241C26.9374 118.172 25.774 116.786 24.9695 115.192C24.1649 113.598 23.741 111.839 23.7311 110.054C23.7264 109.22 23.8122 108.388 23.987 107.572L29.6885 80.9582C29.9654 79.6658 30.528 78.4517 31.3353 77.4046C32.1426 76.3576 33.174 75.5043 34.354 74.9071C35.534 74.3099 36.8327 73.984 38.1551 73.9532C39.4775 73.9224 40.79 74.1876 41.9966 74.7292Z" fill="#CCCCCC"/>
</g>
<defs>
<clipPath id="clip0_5_941">
<rect width="390" height="279" fill="white"/>
</clipPath>
</defs>
</svg>
