<svg width="119" height="105" viewBox="0 0 119 105" fill="none" xmlns="http://www.w3.org/2000/svg">
<g clip-path="url(#clip0_5_417)">
<path d="M119 52.5C119.012 59.8135 117.444 67.0481 114.396 73.7357C114.298 73.9517 114.198 74.1664 114.097 74.3798C114.047 74.4872 113.996 74.5932 113.945 74.7006C113.894 74.8066 113.843 74.914 113.79 75.02C113.723 75.1575 113.655 75.2936 113.587 75.4298C113.502 75.6013 113.415 75.7715 113.326 75.9417C113.316 75.9653 113.304 75.9888 113.29 76.0124C113.216 76.1564 113.142 76.3004 113.065 76.4445C113.049 76.4759 113.033 76.5073 113.015 76.5374C112.928 76.705 112.837 76.8726 112.746 77.0388V77.0401C112.649 77.2169 112.551 77.3932 112.453 77.5691C112.211 78.0037 111.961 78.4345 111.705 78.8613C111.628 78.9883 111.553 79.1153 111.475 79.241C111.403 79.3588 111.332 79.4753 111.259 79.5918C111.209 79.673 111.159 79.7529 111.108 79.8327C111.027 79.9623 110.945 80.092 110.862 80.2216C110.86 80.2229 110.86 80.2229 110.86 80.2242C110.676 80.5122 110.487 80.7989 110.297 81.083H110.296C110.208 81.2153 110.119 81.3462 110.03 81.4771V81.4784C109.762 81.8712 109.488 82.26 109.209 82.645V82.6463C109.208 82.6464 109.207 82.6468 109.207 82.6476V82.6489L109.204 82.6515C108.983 82.9592 108.757 83.2642 108.527 83.5666V83.568C108.381 83.7617 108.232 83.9555 108.083 84.1466C107.96 84.3037 107.836 84.4604 107.711 84.6166C107.685 84.6507 107.658 84.6834 107.63 84.7175V84.7188C107.596 84.762 107.563 84.8039 107.526 84.8471V84.8484C106.994 85.5095 106.445 86.1576 105.881 86.7926H105.879C105.85 86.8279 105.819 86.862 105.788 86.896C105.758 86.93 105.726 86.9641 105.695 86.9994H105.693C105.646 87.0531 105.598 87.1068 105.549 87.1605C105.502 87.2141 105.452 87.2678 105.402 87.3215V87.3228C102.459 90.5489 99.1188 93.4114 95.4568 95.8459C94.9689 96.1719 94.4748 96.4891 93.9744 96.7977C93.8504 96.8749 93.7264 96.9509 93.6011 97.0268C93.5633 97.0517 93.5256 97.0739 93.4879 97.0962C93.4218 97.1368 93.3545 97.1774 93.2871 97.2179C93.221 97.2572 93.1537 97.2978 93.0863 97.3371C92.8181 97.4968 92.5472 97.6539 92.2763 97.8084C92.209 97.8477 92.1402 97.8857 92.0715 97.9249C92.0041 97.9629 91.9354 98.0009 91.8667 98.0388C91.8657 98.0402 91.8646 98.0414 91.8632 98.0423C91.8618 98.0432 91.8602 98.0438 91.8586 98.0441L91.8559 98.0454L91.8532 98.048H91.8518C91.5122 98.2378 91.1713 98.4251 90.8263 98.6057C90.2091 98.933 89.5856 99.2486 88.9558 99.5523C88.7994 99.6282 88.6418 99.7029 88.4841 99.7775C88.3534 99.839 88.2213 99.9006 88.0906 99.9608C88.0542 99.9778 88.0192 99.9948 87.9828 100.011C87.8736 100.06 87.7645 100.11 87.6553 100.158C87.5367 100.213 87.4168 100.266 87.2982 100.318C87.1648 100.377 87.0327 100.435 86.8993 100.492C86.3979 100.71 85.8912 100.919 85.3832 101.121C83.5682 101.843 81.7132 102.466 79.8269 102.988C79.7393 103.013 79.6503 103.037 79.5614 103.061C78.7542 103.281 77.9411 103.482 77.1222 103.665C75.6923 103.984 74.2494 104.246 72.7936 104.451C72.7909 104.451 72.7868 104.453 72.7841 104.453C72.6103 104.478 72.4351 104.501 72.2612 104.525C72.2464 104.527 72.2302 104.53 72.2141 104.531C72.2127 104.533 72.2114 104.533 72.2087 104.531C72.2087 104.531 72.2087 104.533 72.2073 104.531C72.0146 104.556 71.8219 104.581 71.6278 104.605C71.6144 104.607 71.6009 104.609 71.5874 104.61C71.4068 104.631 71.2249 104.652 71.043 104.671C70.8476 104.692 70.6522 104.712 70.4554 104.732C70.3058 104.746 70.1562 104.76 70.0066 104.774C69.9933 104.776 69.9798 104.777 69.9662 104.777C69.8301 104.789 69.694 104.801 69.5579 104.811C69.5525 104.811 69.5457 104.813 69.5404 104.813C69.4218 104.823 69.3032 104.831 69.1846 104.84C67.7898 104.948 66.3815 105.001 64.9597 105C63.4167 105 61.8894 104.938 60.3778 104.813C60.3724 104.813 60.367 104.811 60.3616 104.811C60.0395 104.785 59.7179 104.756 59.3967 104.725C59.3118 104.717 59.2282 104.708 59.1433 104.7C59.1272 104.699 59.111 104.698 59.0948 104.695C59.0692 104.692 59.0436 104.69 59.0167 104.687C59.0032 104.686 58.9884 104.684 58.9749 104.682C58.863 104.67 58.7512 104.658 58.638 104.645C58.5126 104.631 58.386 104.616 58.2606 104.601C58.1353 104.586 58.0086 104.571 57.8833 104.554C57.8563 104.551 57.828 104.548 57.8011 104.543C57.7094 104.533 57.6178 104.521 57.5275 104.508C57.483 104.502 57.4399 104.496 57.3968 104.489C57.3092 104.478 57.2229 104.466 57.1353 104.453C57.1327 104.453 57.1286 104.451 57.1259 104.451C54.374 104.065 51.6573 103.47 49.001 102.672H48.9997C48.8555 102.629 48.7113 102.584 48.5671 102.54C48.524 102.528 48.4808 102.515 48.4377 102.501C48.0631 102.384 47.6907 102.264 47.3205 102.139C46.8098 101.969 46.3026 101.791 45.799 101.605C45.6616 101.554 45.5255 101.503 45.388 101.452C45.1144 101.347 44.8422 101.243 44.5713 101.135C44.1091 100.952 43.65 100.763 43.194 100.568H43.1927V100.567C42.7668 100.385 42.3441 100.197 41.9246 100.004C41.9122 100 41.9004 99.9951 41.8895 99.9883C41.8882 99.9883 41.8882 99.987 41.8868 99.987C41.7938 99.9451 41.7009 99.9019 41.6079 99.8587L41.6052 99.8574C39.2936 98.7809 37.0647 97.5444 34.9357 96.1575C34.2525 95.7137 33.5809 95.255 32.921 94.7815C32.3887 94.4005 31.864 94.0099 31.347 93.6097C28.7715 91.6211 26.388 89.4085 24.226 86.9994H24.2247V86.9981C24.0724 86.8292 23.9242 86.6617 23.7732 86.4915V86.4902C23.7517 86.4666 23.7315 86.443 23.7113 86.4194C23.6156 86.3108 23.5226 86.2034 23.4296 86.0935V86.0921C23.3029 85.9468 23.1789 85.801 23.0576 85.6549C23.0307 85.6234 23.0051 85.5933 22.9795 85.5619H22.9781V85.5606C22.8784 85.4428 22.78 85.3236 22.683 85.2045C22.6331 85.1456 22.5846 85.0853 22.5361 85.0251H22.5348V85.0238C22.241 84.6638 21.953 84.3002 21.6709 83.9332V83.9319C21.5928 83.8311 21.516 83.7303 21.4405 83.6282H21.4391C21.078 83.1542 20.7262 82.6746 20.3839 82.1893V82.188C20.2546 82.0061 20.1265 81.8228 19.9999 81.6382C19.8732 81.4536 19.7479 81.2685 19.6239 81.083H19.6225C19.4945 80.8919 19.3678 80.6999 19.2425 80.507C19.2358 80.4965 19.229 80.4873 19.2236 80.4782C19.0996 80.2883 18.9775 80.0972 18.8571 79.9047C18.76 79.7516 18.6644 79.5997 18.5714 79.4465C18.5067 79.3431 18.4433 79.241 18.3814 79.1362C18.3584 79.1009 18.3382 79.0655 18.318 79.0315C18.1752 78.7945 18.035 78.5575 17.8949 78.3193C17.7318 78.0391 17.5701 77.7563 17.4124 77.4735C17.3477 77.357 17.283 77.2392 17.2197 77.1213C17.1968 77.0834 17.1766 77.0454 17.1564 77.0061C17.0809 76.8673 17.0054 76.7286 16.9313 76.5885C16.8572 76.4497 16.7831 76.3096 16.7103 76.1695C16.6375 76.0294 16.5647 75.8893 16.4933 75.7479C16.4394 75.6419 16.3855 75.5345 16.3329 75.4285C16.3275 75.4196 16.3225 75.4104 16.3181 75.401C16.2939 75.3512 16.2683 75.3028 16.2453 75.2531C16.24 75.2454 16.2359 75.237 16.2332 75.2282C16.178 75.1182 16.1241 75.0095 16.0715 74.8996C16.0014 74.7582 15.934 74.6155 15.8667 74.4728C15.8181 74.3733 15.7723 74.2724 15.7252 74.1716C15.6578 74.0302 15.5917 73.8875 15.5271 73.7435C15.4583 73.5956 15.3923 73.4463 15.3263 73.2971C15.3087 73.2591 15.2926 73.2224 15.2764 73.1845C15.2454 73.1164 15.2157 73.0483 15.1861 72.9802C15.1066 72.7996 15.0284 72.6163 14.9516 72.4343C14.864 72.2287 14.7787 72.0228 14.6956 71.8163C14.616 71.6239 14.5388 71.431 14.4638 71.2377L14.4355 71.167V71.1656C13.2645 68.1759 12.3785 65.088 11.7887 61.9408V61.9395C11.4524 60.1427 11.2131 58.33 11.0718 56.5089C11.0637 56.4094 11.0569 56.3098 11.0502 56.2103C10.9613 54.9784 10.9177 53.7416 10.9195 52.5C10.9195 51.9488 10.9285 51.4002 10.9464 50.8543C11.2959 39.4403 15.484 28.4517 22.8703 19.569C23.1951 19.1776 23.5257 18.7909 23.8622 18.409C33.7727 7.14183 48.5078 0 64.9597 0C84.1946 0 101.083 9.76291 110.658 24.4668C111.157 25.2288 111.634 26.0047 112.089 26.7946C116.634 34.6415 119.015 43.4962 119 52.5Z" fill="#F2F2F2"/>
<path d="M91.1282 93.7078C90.9341 94.2289 90.7405 94.75 90.5473 95.271C90.5109 95.3705 90.4732 95.4687 90.4368 95.5682C89.9436 96.8958 89.4499 98.2238 88.9558 99.5522C88.7994 99.6281 88.6418 99.7028 88.4841 99.7774C88.3534 99.8389 88.2213 99.9005 88.0906 99.9607C88.0542 99.9777 88.0192 99.9947 87.9828 100.01C87.8736 100.06 87.7644 100.11 87.6553 100.158C87.5367 100.213 87.4168 100.266 87.2982 100.318C87.1648 100.377 87.0327 100.435 86.8993 100.492C86.8299 100.317 86.7903 100.131 86.782 99.9437C86.7763 99.6488 86.8121 99.3545 86.8885 99.0691C87.0057 98.5978 87.1917 98.1356 87.3143 97.663C87.3211 97.6407 87.3265 97.6172 87.3319 97.5949C87.6052 96.4665 87.4789 95.2815 86.9734 94.2315C86.6688 93.6057 86.2322 93.0362 86.0422 92.3685C85.8771 91.7415 85.9503 91.0777 86.2483 90.4989C86.359 90.2744 86.498 90.0642 86.6621 89.8731C86.7012 89.8247 86.7429 89.7788 86.7861 89.733C87.1825 89.31 87.7091 89.0229 88.2873 88.9147C89.3937 88.7236 90.55 89.2957 91.1686 90.1938C91.4221 90.5547 91.5765 90.9724 91.6173 91.4075C91.6847 92.1944 91.4044 92.9655 91.1282 93.7078Z" fill="#E4E4E4"/>
<path d="M88.073 99.0259C87.8197 98.5716 87.3952 98.1736 87.3143 97.663C87.0515 96.0239 86.4181 94.8482 85.3683 94.1818C85.0638 93.9893 85.0153 93.5638 84.8279 93.2575C84.7444 93.12 84.6595 92.9825 84.5719 92.8477C84.4304 92.6238 84.283 92.4043 84.1299 92.1892C83.8395 91.7733 83.5193 91.3778 83.1717 91.0056C83.0275 90.8498 82.8752 90.6992 82.7175 90.5565L82.7162 90.5552C82.6178 90.4636 82.5181 90.3759 82.4143 90.2908C82.3739 90.2567 82.3321 90.2227 82.289 90.1886L82.2863 90.186C82.1042 90.0327 81.9134 89.8893 81.7149 89.7566C81.258 89.4568 80.7419 89.2486 80.2123 89.4149C80.0041 89.4842 79.8037 89.5737 79.6139 89.682C79.5169 89.7357 79.4212 89.792 79.3255 89.8483C79.2608 89.8862 79.1962 89.9242 79.1315 89.9635C79.0789 89.9936 79.0264 90.0237 78.9738 90.0525C78.5668 90.2803 78.158 90.5037 77.7475 90.7228C77.6882 90.7555 77.6289 90.787 77.5682 90.8184H77.5669C77.5251 90.842 77.482 90.8642 77.4388 90.8865C77.3566 90.931 77.2731 90.9755 77.1909 91.0187C76.9443 91.1483 76.6972 91.2766 76.4497 91.4036C76.323 91.4691 76.195 91.5319 76.0669 91.5948C76.0076 91.6236 75.9484 91.6524 75.8904 91.6825H75.8891C75.8675 91.693 75.8473 91.7034 75.8257 91.7139C75.6505 91.8016 75.478 91.892 75.3109 91.9901C74.8262 92.2738 74.4051 92.6491 74.0724 93.0938C74.0078 93.1802 73.9458 93.2693 73.8892 93.3609C73.8149 93.4794 73.7475 93.6018 73.687 93.7275C73.6452 93.8126 73.6062 93.8977 73.5711 93.9841V93.9854C73.2398 94.8129 73.1935 95.7224 73.439 96.5777V96.579C73.4552 96.6379 73.4727 96.6955 73.493 96.7531C73.5253 96.85 73.5617 96.9469 73.6021 97.0411C73.6467 97.1463 73.6971 97.249 73.753 97.3488V97.3501C74.0529 97.8471 74.4272 98.298 74.8635 98.6881L74.877 98.7012C74.9309 98.7523 74.9861 98.8047 75.04 98.8557C75.0697 98.8832 75.1007 98.9107 75.133 98.9369C75.5993 99.3257 76.3526 99.6203 76.7785 100.02C77.0062 100.233 77.1397 100.475 77.0871 100.778C76.9469 101.58 76.9779 102.1 77.1208 102.434C77.5089 103.345 78.7272 102.882 79.5614 103.061C79.6503 103.037 79.7392 103.013 79.8268 102.988C81.7132 102.466 83.5681 101.843 85.3832 101.121C85.8912 100.919 86.3979 100.71 86.8992 100.492C87.0327 100.435 87.1647 100.377 87.2981 100.318C87.4167 100.266 87.5367 100.213 87.6553 100.158C87.7644 100.11 87.8736 100.06 87.9827 100.01C88.0191 99.9948 88.0542 99.9777 88.0906 99.9607C88.2213 99.9005 88.3533 99.839 88.4841 99.7774C88.3507 99.5247 88.2119 99.2747 88.073 99.0259Z" fill="#E4E4E4"/>
<path d="M78.2131 86.3153C78.4963 85.4842 78.1068 84.9359 77.1045 84.6449C77.0703 84.6148 77.0288 84.5935 76.9839 84.5829C76.939 84.5724 76.892 84.573 76.8474 84.5846C76.8028 84.5962 76.7618 84.6186 76.7284 84.6495C76.6949 84.6805 76.67 84.7191 76.6559 84.7619L75.7808 87.2809C74.8655 87.0535 74.1941 87.2093 74.0483 88.0889C74.4095 87.193 74.0697 86.631 73.0533 86.3913C73.0203 86.3593 72.9795 86.3359 72.9347 86.3234C72.8899 86.3108 72.8426 86.3095 72.7971 86.3195C72.7517 86.3295 72.7095 86.3506 72.6747 86.3806C72.6398 86.4107 72.6134 86.4489 72.5978 86.4916L72.0223 88.7604C71.3214 89.7861 70.9772 91.003 71.0402 92.2326C71.1031 93.4622 71.5699 94.6399 72.3721 95.593C73.1743 96.546 74.2697 97.2244 75.4977 97.5285C76.7257 97.8326 78.0217 97.7465 79.1956 97.2829C80.3696 96.8192 81.3597 96.0024 82.021 94.9521C82.6822 93.9018 82.9797 92.6734 82.8698 91.4469C82.7599 90.2204 82.2484 89.0604 81.4104 88.1369C80.5724 87.2134 79.4518 86.575 78.2131 86.3153Z" fill="#E4E4E4"/>
<path d="M77.656 93.4944C77.5377 93.5559 77.3992 93.5693 77.2707 93.5317C77.1423 93.494 77.0344 93.4085 76.9709 93.2937C76.9619 93.2773 76.96 93.2581 76.9655 93.2403C76.9711 93.2225 76.9837 93.2076 77.0005 93.1988C77.0174 93.19 77.0371 93.1881 77.0554 93.1934C77.0738 93.1988 77.0892 93.2109 77.0983 93.2273C77.1437 93.3092 77.2207 93.3702 77.3124 93.397C77.4041 93.4238 77.503 93.4142 77.5874 93.3702C77.6718 93.3262 77.7347 93.2515 77.7625 93.1624C77.7902 93.0734 77.7804 92.9773 77.7352 92.8952C77.7262 92.8788 77.7243 92.8596 77.7299 92.8418C77.7354 92.824 77.748 92.8091 77.7649 92.8003C77.7817 92.7916 77.8015 92.7896 77.8198 92.7949C77.8381 92.8003 77.8535 92.8125 77.8626 92.8288C77.9259 92.9437 77.9397 93.0783 77.901 93.2031C77.8623 93.3279 77.7742 93.4326 77.656 93.4944Z" fill="white"/>
<path d="M77.1265 92.4616C77.4079 92.3149 77.589 92.1107 77.5309 92.0055C77.4728 91.9004 77.1976 91.9341 76.9162 92.0808C76.6348 92.2275 76.4537 92.4317 76.5118 92.5368C76.5699 92.642 76.8451 92.6083 77.1265 92.4616Z" fill="white"/>
<path d="M74.1351 92.6397C74.1732 92.4605 74.2513 92.2915 74.364 92.1447C74.4766 91.998 74.6211 91.8771 74.7871 91.7905C74.9531 91.704 75.1367 91.6539 75.3248 91.6438C75.513 91.6337 75.7011 91.6639 75.8759 91.7322C75.9639 91.471 75.9701 91.1902 75.8939 90.9255C75.8176 90.6608 75.6622 90.4241 75.4474 90.2451C75.2326 90.0662 74.9681 89.9532 74.6871 89.9204C74.4062 89.8875 74.1216 89.9363 73.8693 90.0607C73.6169 90.185 73.4082 90.3792 73.2695 90.6188C73.1307 90.8583 73.0682 91.1325 73.0899 91.4065C73.1115 91.6806 73.2164 91.9423 73.3911 92.1585C73.5658 92.3747 73.8026 92.5357 74.0716 92.6211C74.0926 92.6278 74.1138 92.634 74.1351 92.6397Z" fill="white"/>
<path d="M74.5625 92.1353C74.8343 92.1353 75.0546 91.9213 75.0546 91.6573C75.0546 91.3932 74.8343 91.1792 74.5625 91.1792C74.2908 91.1792 74.0704 91.3932 74.0704 91.6573C74.0704 91.9213 74.2908 92.1353 74.5625 92.1353Z" fill="#3F3D56"/>
<path d="M77.5415 90.9193C77.5795 90.74 77.6577 90.571 77.7703 90.4243C77.883 90.2775 78.0274 90.1566 78.1935 90.07C78.3595 89.9835 78.5431 89.9334 78.7312 89.9233C78.9194 89.9133 79.1075 89.9434 79.2823 90.0117C79.3703 89.7505 79.3765 89.4698 79.3002 89.2051C79.224 88.9404 79.0686 88.7036 78.8538 88.5247C78.639 88.3458 78.3744 88.2327 78.0935 88.1999C77.8126 88.1671 77.528 88.2159 77.2756 88.3402C77.0233 88.4645 76.8145 88.6587 76.6758 88.8983C76.5371 89.1379 76.4746 89.412 76.4963 89.6861C76.5179 89.9602 76.6227 90.2218 76.7975 90.438C76.9722 90.6542 77.209 90.8152 77.4779 90.9007C77.499 90.9073 77.5201 90.9135 77.5415 90.9193Z" fill="white"/>
<path d="M78.1496 90.388C78.4213 90.388 78.6417 90.174 78.6417 89.91C78.6417 89.6459 78.4213 89.4319 78.1496 89.4319C77.8778 89.4319 77.6575 89.6459 77.6575 89.91C77.6575 90.174 77.8778 90.388 78.1496 90.388Z" fill="#3F3D56"/>
<path d="M80.619 89.8769L78.9388 91.5403L79.1084 91.702L80.7886 90.0386L80.619 89.8769Z" fill="white"/>
<path d="M81.1529 90.6817L79.1228 91.9233L79.2494 92.1187L81.2795 90.8771L81.1529 90.6817Z" fill="white"/>
<path d="M75.3342 93.4195L72.9786 93.8601L73.0236 94.0868L75.3791 93.6462L75.3342 93.4195Z" fill="white"/>
<path d="M75.5612 93.7803L73.3739 94.7373L73.4715 94.9478L75.6588 93.9908L75.5612 93.7803Z" fill="white"/>
<path d="M6.19279 58.2722C1.58516 54.2435 -1.2048 47.837 0.509771 42.0498C4.37911 47.4125 10.0763 51.2728 16.5932 52.9475C19.109 53.5846 21.9753 54.0387 23.5059 56.0803C24.4582 57.3506 24.6794 59.0293 24.454 60.5855C24.2285 62.1417 23.5984 63.6114 22.974 65.0612L23.0071 65.4522C16.9223 64.3019 10.8004 62.3008 6.19279 58.2722Z" fill="#E6E6E6"/>
<path d="M0.638495 42.0681C1.80956 46.8673 4.56641 51.3342 8.43474 54.5399C9.27106 55.233 10.1815 55.8653 11.2028 56.2741C12.2015 56.6652 13.2897 56.7893 14.3544 56.6336C15.3502 56.5078 16.3538 56.2671 17.3637 56.3787C18.4282 56.4962 19.3175 57.0757 19.9387 57.9101C20.6989 58.931 21.0361 60.1563 21.323 61.3658C21.6416 62.7086 21.9506 64.1083 22.8631 65.2058C22.9737 65.3387 22.7549 65.4976 22.6445 65.3649C21.0567 63.4555 21.2739 60.8124 20.124 58.7024C19.5875 57.7179 18.7422 56.8845 17.5781 56.6777C16.5601 56.4968 15.525 56.7442 14.5179 56.88C13.4605 57.0227 12.4374 56.9882 11.4228 56.6401C10.3851 56.284 9.44723 55.6849 8.59633 55.0156C6.67847 53.484 5.02042 51.669 3.68292 49.637C2.1432 47.3262 1.02172 44.7765 0.367008 42.0982C0.326555 41.9325 0.598309 41.9034 0.638495 42.0681Z" fill="white"/>
<path d="M7.1208 53.5625C6.4697 54.1212 5.63535 54.437 4.76675 54.4532C3.89816 54.4695 3.05189 54.1853 2.37907 53.6514C2.24331 53.5429 2.41047 53.3329 2.5464 53.4415C3.17199 53.9398 3.96032 54.2045 4.76912 54.1877C5.57792 54.1709 6.35391 53.8738 6.95703 53.35C7.08823 53.2364 7.25125 53.4495 7.1208 53.5625Z" fill="white"/>
<path d="M13.8582 56.7621C13.9839 55.0412 13.4372 53.3374 12.3273 51.9906C12.2172 51.8573 12.436 51.6983 12.5459 51.8315C13.6983 53.2351 14.2634 55.0092 14.1286 56.7998C14.1157 56.9705 13.8453 56.9319 13.8582 56.7621Z" fill="white"/>
<path d="M2.50049 47.2681C2.79879 47.1029 3.05019 46.8683 3.2321 46.5854C3.41401 46.3025 3.52075 45.9801 3.54272 45.6472C3.55345 45.4765 3.82382 45.5153 3.81316 45.685C3.78712 46.0526 3.66879 46.4085 3.46852 46.7215C3.26825 47.0345 2.99212 47.2951 2.66426 47.4806C2.63487 47.5006 2.59874 47.5089 2.56322 47.504C2.5277 47.499 2.49545 47.4811 2.47304 47.4539C2.4515 47.4257 2.4423 47.3903 2.44744 47.3555C2.45258 47.3207 2.47165 47.2893 2.50049 47.2681Z" fill="white"/>
<path d="M19.7522 33.9082C19.7486 34.015 19.745 34.1218 19.7433 34.23C19.7027 35.666 19.7824 37.1029 19.9814 38.5264C19.995 38.6367 20.0104 38.7483 20.0273 38.8579C20.5443 42.2825 21.7114 45.5841 23.4691 48.5948C24.1696 49.7922 24.9629 50.9361 25.8421 52.0166C27.0564 53.5087 28.4952 55.0327 29.113 56.7761C29.1796 56.9572 29.2345 57.1423 29.2776 57.33L23.4955 65.3828C23.4729 65.3947 23.4521 65.408 23.4294 65.42L23.2137 65.7517C23.1643 65.6991 23.1143 65.6435 23.065 65.5908C23.0362 65.5604 23.0087 65.5282 22.98 65.4977C22.9612 65.4769 22.9425 65.4559 22.9243 65.4382C22.9181 65.4313 22.9119 65.4243 22.9075 65.4186C22.8893 65.4008 22.8744 65.3825 22.8581 65.366C22.5777 65.0557 22.2989 64.743 22.022 64.4279C22.0201 64.4266 22.0201 64.4266 22.0195 64.4235C19.9154 62.0171 17.9997 59.4188 16.5508 56.6207C16.5073 56.5365 16.4618 56.4511 16.4208 56.3632C15.7749 55.0984 15.2365 53.7844 14.811 52.4344C14.5804 51.6945 14.3886 50.9436 14.2362 50.1848C13.8462 48.2235 13.7763 46.2148 14.0289 44.2323C14.533 40.2803 16.3326 36.529 19.5077 34.0921C19.589 34.0298 19.669 33.9692 19.7522 33.9082Z" fill="#E6E6E6"/>
<path d="M19.8444 33.9975C17.8052 38.5144 17.2381 43.6935 18.3401 48.5157C18.5783 49.5582 18.9134 50.5956 19.4755 51.5194C20.0305 52.4158 20.8225 53.1514 21.7691 53.6499C22.6421 54.1319 23.5926 54.5267 24.3298 55.2064C25.1069 55.9229 25.4578 56.9058 25.4368 57.9354C25.411 59.1951 24.9209 60.3707 24.4004 61.5042C23.8226 62.7627 23.2019 64.061 23.2504 65.471C23.2562 65.6419 22.983 65.6408 22.9772 65.4702C22.8928 63.0169 24.7042 61.0336 25.0937 58.6764C25.2754 57.5764 25.117 56.4166 24.3157 55.5706C23.615 54.8308 22.6352 54.4228 21.7469 53.9422C20.8142 53.4376 20.0187 52.8116 19.4244 51.9403C18.8165 51.049 18.4389 50.0221 18.1743 48.99C17.5922 46.6453 17.3931 44.2263 17.5845 41.8216C17.7872 39.0759 18.4719 36.3842 19.6089 33.8628C19.6794 33.7068 19.9144 33.8425 19.8444 33.9975Z" fill="white"/>
<path d="M17.8967 46.9666C17.0306 47.0319 16.1688 46.796 15.4651 46.301C14.7615 45.8059 14.2619 45.084 14.0556 44.2642C14.0145 44.0981 14.2781 44.0282 14.3193 44.1945C14.51 44.9582 14.9754 45.6307 15.6316 46.0903C16.2878 46.55 17.0915 46.7667 17.8976 46.7012C18.0728 46.6872 18.071 46.9527 17.8967 46.9666Z" fill="white"/>
<path d="M21.2934 53.462C22.4602 52.1614 23.0796 50.4813 23.028 48.7568C23.0228 48.5859 23.296 48.587 23.3012 48.7577C23.3515 50.5524 22.7032 52.2995 21.4859 53.6503C21.3698 53.779 21.1779 53.59 21.2934 53.462Z" fill="white"/>
<path d="M18.1085 39.2385C18.449 39.2811 18.7951 39.2409 19.1157 39.1214C19.4363 39.0019 19.7213 38.8069 19.9452 38.554C20.0595 38.4239 20.2513 38.6131 20.1377 38.7423C19.8891 39.0206 19.574 39.2356 19.2201 39.3683C18.8662 39.5011 18.4843 39.5477 18.1076 39.504C18.0717 39.5027 18.0377 39.4883 18.0124 39.4636C17.9871 39.4388 17.9725 39.4057 17.9714 39.3708C17.9717 39.3357 17.9863 39.3021 18.012 39.2773C18.0376 39.2525 18.0723 39.2386 18.1085 39.2385Z" fill="white"/>
<path d="M72.573 34.4452C73.3763 30.1293 72.0414 25.232 68.3974 22.6431C68.6317 27.4071 67.1239 32.0981 64.1407 35.8861C62.9848 37.3429 61.543 38.8463 61.5991 40.6849C61.634 41.8289 62.2774 42.8912 63.1216 43.6895C63.9658 44.4877 65.0033 45.0608 66.0284 45.625L66.1888 45.8644C69.1639 42.5657 71.7698 38.761 72.573 34.4452Z" fill="#E6E6E6"/>
<path d="M68.3318 22.7092C69.8761 26.015 70.3089 29.7094 69.5689 33.2677C69.4236 34.0365 69.1545 34.7782 68.7714 35.4656C68.376 36.1234 67.8064 36.6664 67.122 37.0381C66.4909 37.3971 65.8026 37.6934 65.2724 38.1952C65.0049 38.456 64.7972 38.7687 64.6629 39.113C64.5286 39.4572 64.4706 39.8251 64.4929 40.1926C64.524 41.1097 64.8924 41.9613 65.2824 42.782C65.7155 43.6931 66.1802 44.6328 66.1587 45.6601C66.156 45.7845 66.355 45.7812 66.3576 45.6569C66.3951 43.8697 65.0566 42.4421 64.75 40.7291C64.6069 39.9298 64.7109 39.0837 65.2862 38.4602C65.7893 37.915 66.4988 37.6089 67.141 37.2508C67.8142 36.8977 68.3881 36.3898 68.8127 35.7716C69.2306 35.1054 69.5287 34.375 69.6943 33.6116C70.0953 31.8988 70.2166 30.1354 70.0538 28.386C69.8794 26.3885 69.3545 24.4346 68.5019 22.609C68.4491 22.496 68.2793 22.597 68.3318 22.7092Z" fill="white"/>
<path d="M69.8766 32.1357C70.508 32.1753 71.1333 31.9956 71.6408 31.6286C72.1484 31.2616 72.5051 30.7313 72.6474 30.1324C72.6757 30.0111 72.4831 29.9626 72.4547 30.0841C72.3233 30.642 71.9909 31.136 71.5175 31.4767C71.0442 31.8175 70.461 31.9827 69.8733 31.9425C69.7456 31.9339 69.7496 32.1272 69.8766 32.1357Z" fill="white"/>
<path d="M67.4666 36.897C66.6042 35.9606 66.1368 34.7428 66.1575 33.4865C66.1596 33.362 65.9607 33.3653 65.9585 33.4897C65.9395 34.7971 66.4286 36.0634 67.3282 37.0359C67.4141 37.1285 67.552 36.9891 67.4666 36.897Z" fill="white"/>
<path d="M69.6469 26.5099C69.3993 26.5441 69.1469 26.5179 68.9123 26.4339C68.6777 26.3498 68.4682 26.2105 68.3027 26.0283C68.2182 25.9347 68.0803 26.0742 68.1644 26.1672C68.3481 26.3676 68.5797 26.5213 68.8387 26.6147C69.0977 26.7081 69.3763 26.7385 69.6502 26.7032C69.6763 26.702 69.7009 26.6911 69.7191 26.6729C69.7373 26.6547 69.7476 26.6304 69.748 26.605C69.7474 26.5794 69.7365 26.5551 69.7176 26.5373C69.6987 26.5195 69.6732 26.5096 69.6469 26.5099Z" fill="white"/>
<path d="M53.5812 26.2933C53.6323 26.3533 53.6834 26.4132 53.734 26.4747C54.4166 27.2839 55.0304 28.1457 55.5694 29.0515C55.6122 29.1209 55.6545 29.1918 55.6952 29.2623C56.9697 31.4579 57.8135 33.8644 58.1837 36.3594C58.3301 37.3523 58.3985 38.3546 58.3884 39.3576C58.3743 40.7428 58.2456 42.2437 58.6903 43.5151C58.7351 43.6482 58.7884 43.7785 58.8499 43.9053L65.8758 46.0362C65.8942 46.0332 65.9123 46.0319 65.9308 46.0289L66.2073 46.1265C66.2116 46.0748 66.2148 46.0211 66.2191 45.9694C66.2217 45.9394 66.2227 45.9089 66.2253 45.879C66.2265 45.8588 66.2277 45.8387 66.23 45.8206C66.2304 45.8139 66.2307 45.8071 66.2307 45.802C66.233 45.7839 66.2331 45.7668 66.2349 45.7503C66.254 45.4501 66.2709 45.1494 66.2857 44.8479C66.2862 44.8464 66.2862 44.8463 66.2851 44.8443C66.3917 42.5472 66.3018 40.2212 65.8513 37.9824C65.8378 37.9151 65.8248 37.8462 65.808 37.7779C65.5992 36.7698 65.3059 35.7801 64.9311 34.8184C64.7242 34.2925 64.4899 33.7771 64.2293 33.2742C63.5534 31.9761 62.6715 30.7893 61.6159 29.7573C59.5113 27.7005 56.7531 26.3205 53.8063 26.2933C53.7309 26.2926 53.6571 26.2924 53.5812 26.2933Z" fill="#E6E6E6"/>
<path d="M53.5692 26.3848C56.8509 28.1209 59.486 30.8175 61.1004 34.0915C61.4608 34.7903 61.7056 35.5399 61.8257 36.3128C61.9177 37.0693 61.7994 37.836 61.4833 38.5332C61.2019 39.1889 60.8359 39.8281 60.7236 40.5388C60.6716 40.9035 60.6996 41.2747 60.8057 41.6282C60.9118 41.9816 61.0935 42.3092 61.3391 42.5896C61.9322 43.3037 62.7541 43.7682 63.5742 44.1953C64.4846 44.6694 65.438 45.148 66.0574 45.9808C66.1325 46.0817 66.2893 45.9627 66.2143 45.8619C65.1366 44.4129 63.1832 44.056 61.8768 42.8676C61.2672 42.3131 60.8259 41.5767 60.8989 40.7424C60.9627 40.0128 61.3395 39.3535 61.6302 38.6919C61.9489 38.0162 62.0925 37.275 62.0483 36.533C61.9691 35.7566 61.7544 34.9991 61.4136 34.2927C60.6723 32.6906 59.6764 31.2117 58.4622 29.9101C57.085 28.4172 55.455 27.1641 53.6429 26.2052C53.5307 26.1459 53.4577 26.3258 53.5692 26.3848Z" fill="white"/>
<path d="M60.6444 33.0075C61.173 32.6698 61.5609 32.1605 61.7387 31.5706C61.9165 30.9808 61.8727 30.3487 61.6151 29.7873C61.5626 29.6739 61.3787 29.7478 61.4313 29.8614C61.6722 30.3837 61.7129 30.9725 61.5462 31.5215C61.3794 32.0705 61.0162 32.5435 60.522 32.8551C60.4147 32.9229 60.5377 33.075 60.6444 33.0075Z" fill="white"/>
<path d="M61.6709 38.2189C60.402 37.9757 59.2741 37.2768 58.5121 36.2616C58.4366 36.1609 58.2798 36.2799 58.3552 36.3804C59.1502 37.4355 60.3255 38.1605 61.6465 38.4107C61.7724 38.4345 61.7961 38.2425 61.6709 38.2189Z" fill="white"/>
<path d="M56.9746 28.6499C56.7981 28.8219 56.5803 28.9487 56.3409 29.0188C56.1015 29.089 55.8479 29.1002 55.6029 29.0516C55.4773 29.0263 55.4537 29.2183 55.5785 29.2434C55.8494 29.2959 56.1295 29.2832 56.3942 29.2063C56.6589 29.1294 56.9002 28.9907 57.097 28.8023C57.1171 28.7861 57.13 28.763 57.1332 28.7378C57.1364 28.7126 57.1296 28.6872 57.1142 28.6666C57.0979 28.6465 57.0741 28.6335 57.048 28.6304C57.0218 28.6272 56.9955 28.6342 56.9746 28.6499Z" fill="white"/>
<path d="M17.6911 49.491C18.6638 49.491 19.5966 49.8664 20.2844 50.5345C20.9722 51.2027 21.3586 52.109 21.3586 53.054C21.3585 53.8805 21.0626 54.6813 20.5217 55.3192C19.9807 55.9572 19.2284 56.3926 18.3934 56.551V62.3785H16.0524V49.491H17.6911Z" fill="#3F3D56"/>
<path d="M107.526 83.6277V84.8479C106.994 85.5091 106.446 86.1571 105.881 86.7921C105.82 86.8615 105.758 86.9296 105.695 86.9989C105.599 87.1076 105.501 87.215 105.403 87.3223V83.6277H107.526Z" fill="#CACACA"/>
<path d="M101.295 81.0825C100.825 81.0831 100.375 81.2645 100.043 81.587C99.7115 81.9095 99.5247 82.3468 99.5242 82.8028V85.2786C99.5247 85.7347 99.7115 86.172 100.043 86.4945C100.375 86.817 100.825 86.9984 101.295 86.9989H105.695C105.758 86.9295 105.82 86.8615 105.881 86.7921C106.446 86.1571 106.994 85.509 107.526 84.8479C107.561 84.8047 107.597 84.7615 107.63 84.7182C107.935 84.3399 108.234 83.955 108.528 83.5674C108.757 83.2637 108.985 82.9573 109.207 82.6484C109.208 82.647 109.21 82.647 109.21 82.6457C109.582 82.1325 109.944 81.6114 110.297 81.0825H101.295Z" fill="#3F3D56"/>
<path d="M112.625 59.8915C112.354 59.8008 112.07 59.7548 111.784 59.7554H111.06C110.796 59.7555 110.534 59.7939 110.282 59.8693C109.751 60.0315 109.287 60.3541 108.957 60.7901C108.627 61.2261 108.449 61.7529 108.448 62.294V82.947C108.448 83.0243 108.452 83.1002 108.459 83.1748C108.471 83.3074 108.494 83.4387 108.528 83.5676C108.757 83.2639 108.985 82.9575 109.207 82.6485C109.208 82.6472 109.21 82.6472 109.21 82.6459C109.582 82.1327 109.944 81.6116 110.297 81.0827C110.487 80.7986 110.676 80.5119 110.861 80.2238C112.195 78.1444 113.376 75.9762 114.397 73.7353V62.294C114.396 61.764 114.225 61.2475 113.907 60.8167C113.589 60.3859 113.141 60.0624 112.625 59.8915Z" fill="#3F3D56"/>
<path d="M23.4299 83.6277V86.093C22.8235 85.3886 22.2373 84.6685 21.6712 83.9327C21.5931 83.8319 21.5163 83.7298 21.4395 83.6277H23.4299Z" fill="#CACACA"/>
<path d="M27.5375 81.0825H19.6228C19.8721 81.4556 20.1259 81.8244 20.3842 82.1888C20.7265 82.6745 21.0782 83.1541 21.4394 83.6277C21.5162 83.7298 21.593 83.8319 21.6712 83.9327C22.2386 84.6685 22.8248 85.3886 23.4299 86.0929C23.5431 86.2265 23.6576 86.3587 23.7735 86.4909C23.9218 86.6611 24.0723 86.8305 24.225 86.9989H27.5375C28.0068 86.9983 28.4567 86.8169 28.7885 86.4943C29.1202 86.1718 29.3067 85.7346 29.3069 85.2786V82.8028C29.3067 82.3469 29.1202 81.9097 28.7885 81.5871C28.4567 81.2646 28.0068 81.0831 27.5375 81.0825Z" fill="#3F3D56"/>
<path d="M18.9787 60.0421C18.6056 59.8541 18.1915 59.7558 17.7712 59.7554H17.0489C16.7071 59.7549 16.3686 59.8203 16.053 59.9478C15.5748 60.1397 15.166 60.465 14.8781 60.8826C14.5903 61.3002 14.4363 61.7914 14.4358 62.294V71.1666C15.7965 74.6419 17.5354 77.9661 19.6228 81.0827C19.8722 81.4558 20.126 81.8246 20.3843 82.189V62.294C20.3839 61.8297 20.2527 61.3744 20.0049 60.9775C19.7572 60.5805 19.4022 60.257 18.9787 60.0421Z" fill="#3F3D56"/>
<path d="M48.4197 98.387L50.7937 97.8578L49.8226 88.71L46.3187 89.491L48.4197 98.387Z" fill="#9E616A"/>
<path d="M50.5794 90.45C50.5308 90.2888 50.4979 90.1235 50.4811 89.9564C50.4613 89.7589 50.4216 89.5637 50.3625 89.3738C50.295 89.201 50.2116 89.0345 50.1132 88.8763C50.066 88.7925 50.0161 88.7087 49.9717 88.6236C49.9269 88.5386 49.8882 88.4506 49.8558 88.3604C48.4663 84.3738 46.5271 78.9563 45.1822 75.7853C44.3911 73.9197 39.5261 73.2991 34.9361 73.1407C34.3768 73.121 33.8216 73.108 33.2785 73.1014C33.0911 73.0988 32.9052 73.0962 32.7205 73.0949C32.2489 73.0922 31.7893 73.0922 31.3473 73.0975C31.2894 73.0975 31.2314 73.0975 31.1735 73.0988C30.8514 73.1014 30.5392 73.1058 30.2369 73.1119C28.1588 73.1511 26.6319 73.2428 26.3597 73.2598L23.9353 71.7791L23.4623 71.4897L23.4124 71.7791L23.031 73.9864L22.3801 77.7531L24.0121 78.1982L25.0714 78.4863L31.3473 80.1961L32.6815 80.5601L32.6896 80.5627L34.9361 80.5588L41.0786 80.5483L41.3751 81.3116C41.2686 81.4722 41.1986 81.653 41.1696 81.842C41.1406 82.0309 41.1534 82.2237 41.2071 82.4075C41.2608 82.5913 41.3541 82.7619 41.4809 82.9079C41.6077 83.0539 41.765 83.1721 41.9424 83.2545L42.1729 83.3605L44.98 90.577C44.9886 91.2297 45.1984 91.865 45.5824 92.4007C45.6296 92.4675 45.6808 92.5329 45.7347 92.5971L45.7967 92.6691L46.8761 94.7207L47.519 94.5766L50.2547 93.9679L50.2681 93.9417C50.2695 93.9377 50.3045 93.8657 50.3557 93.7401V93.7361C50.57 93.2164 51.0444 91.7959 50.5794 90.45Z" fill="#2F2E41"/>
<path d="M57.2489 98.9953C57.1467 98.5555 56.9559 98.1398 56.6876 97.7719C56.4193 97.404 56.0788 97.0914 55.6856 96.8519C55.2924 96.6124 54.8544 96.4508 54.3967 96.3765C53.939 96.3022 53.4706 96.3165 53.0186 96.4188L51.1225 95.5874L50.5915 95.9501L48.3895 97.4504L48.2076 97.491L47.6173 97.6219L48.4326 101.074L57.2758 99.104L57.2489 98.9953Z" fill="#2F2E41"/>
<path d="M45.519 93.6721L44.7171 99.9878L44.6902 100.195L44.5716 101.136C44.1093 100.953 43.6484 100.763 43.1929 100.568C42.7671 100.386 42.3444 100.198 41.9248 100.005V93.6734L45.519 93.6721Z" fill="#9E616A"/>
<path d="M28.119 50.2539C30.8039 50.2539 32.9804 48.1395 32.9804 45.5311C32.9804 42.9228 30.8039 40.8083 28.119 40.8083C25.4342 40.8083 23.2577 42.9228 23.2577 45.5311C23.2577 48.1395 25.4342 50.2539 28.119 50.2539Z" fill="#9E616A"/>
<path d="M46.0351 96.0824C45.9003 95.903 45.7602 95.7158 45.7521 95.5364C45.7211 94.9041 45.6888 94.2783 45.6551 93.6655C45.6308 93.2374 45.6065 92.8145 45.5823 92.4008C45.5796 92.3485 45.5756 92.2961 45.5729 92.245C45.5311 91.5603 45.74 90.8376 45.9408 90.1372C46.0068 89.9081 46.0728 89.6763 46.1321 89.4446C46.2804 88.9282 46.3427 88.392 46.3168 87.8565C45.9718 83.6159 44.4301 79.628 43.7387 78.9564C42.6876 77.9352 37.9345 75.576 34.936 74.141C34.4036 73.8857 33.9266 73.6606 33.5358 73.4773C33.1894 73.3136 32.9105 73.184 32.7204 73.095C32.5749 73.0282 32.4806 72.985 32.4482 72.9693L32.432 72.9614L31.3472 73.0793L31.1734 73.0989L30.2165 73.2036L23.9918 73.8818L23.0309 73.9866L21.6712 74.1358L20.4435 74.2693L20.3976 74.2733L20.3896 74.3178C20.3896 74.3191 20.3869 74.3283 20.3842 74.3453C20.1731 75.6394 20.1731 76.9578 20.3842 78.252C20.5432 79.1305 20.8437 80.0234 21.3774 80.7749C21.4501 80.877 21.5256 80.9752 21.6065 81.0695C21.6092 81.0744 21.6129 81.0789 21.6173 81.0826C21.6348 81.1035 21.6523 81.1245 21.6712 81.1454V81.1467C22.2816 81.8364 23.101 82.3208 24.012 82.5306C24.1468 82.5659 24.2842 82.5947 24.4257 82.6183C25.9337 82.8775 27.6372 83.1158 29.3069 83.3253C29.9982 83.4117 30.6842 83.4928 31.3472 83.5688C32.6746 83.7207 33.9144 83.849 34.936 83.9511C36.3671 84.0925 37.3725 84.1802 37.5962 84.1985L40.0961 95.5286C39.8999 95.8509 39.8216 96.2282 39.874 96.5992C39.9263 96.9702 40.1062 97.3131 40.3845 97.5723L40.5893 97.7647L40.8265 98.8435L41.6081 99.8595L41.7065 99.9878H45.1551L45.174 99.9655C45.1861 99.9498 46.399 98.4364 46.3168 96.6336C46.3087 96.4476 46.1752 96.2709 46.0351 96.0824Z" fill="#2F2E41"/>
<path d="M45.941 58.1103C45.6799 58.041 45.4062 58.0281 45.1394 58.0726C44.8726 58.117 44.619 58.2178 44.3966 58.3678C44.1742 58.5178 43.9884 58.7133 43.8522 58.9407C43.716 59.168 43.6327 59.4215 43.6083 59.6835L39.5691 60.9099L39.7376 63.4764L45.4167 61.6665C45.8724 61.6772 46.3163 61.5251 46.6643 61.2391C47.0122 60.9531 47.2401 60.553 47.3048 60.1147C47.3694 59.6763 47.2663 59.2302 47.0149 58.8607C46.7636 58.4913 46.3815 58.2243 45.941 58.1103Z" fill="#9E616A"/>
<path d="M43.3056 62.3571L40.2867 63.4671L40.2096 63.6125C40.1179 63.7853 39.9922 63.9387 39.8395 64.0642C39.6868 64.1897 39.5101 64.2848 39.3196 64.344C39.1291 64.4031 38.9285 64.4253 38.7292 64.4091C38.5298 64.393 38.3357 64.3388 38.158 64.2498L31.3726 66.7448C31.3726 66.7448 28.3423 63.7988 26.1849 61.1697L26.9202 56.7761C27.0905 55.7567 27.4525 54.7764 27.988 53.8843C32.4125 54.8268 34.9522 60.8356 34.9522 60.8356L42.9262 59.3574L43.3056 62.3571Z" fill="#388E3C"/>
<path d="M27.4282 50.0014C26.2112 50.3207 24.8695 49.8961 23.9197 49.0908C22.9699 48.2855 22.3758 47.1444 22.0334 45.9657C21.7827 45.1025 21.6639 44.1442 22.0595 43.3338C22.4551 42.5234 23.52 41.9766 24.3415 42.386C23.8347 41.8124 24.0879 40.8636 24.6797 40.3729C25.2716 39.8822 26.0844 39.7415 26.8584 39.6646C27.9818 39.553 29.1422 39.5405 30.2112 39.8941C31.2802 40.2477 32.2514 41.0207 32.586 42.0685C32.9277 42.223 33.3125 42.2631 33.6802 42.1825C34.0478 42.1018 34.3776 41.905 34.6178 41.6228C34.6797 41.9469 34.63 42.2818 34.4763 42.5757C34.3225 42.8696 34.0734 43.106 33.7674 43.2485L35.4053 42.7326C35.687 43.3119 35.1934 44.0288 34.5623 44.2143C33.9311 44.3997 33.2498 44.197 32.6508 43.929C32.0518 43.661 31.4714 43.3222 30.8208 43.2177C30.1702 43.1132 29.406 43.3163 29.1051 43.8863C28.9475 44.1849 28.9392 44.5345 28.8477 44.8581C28.7562 45.1816 28.5244 45.5171 28.1801 45.5436C27.9626 45.5603 27.7496 45.4477 27.5327 45.4707C27.3995 45.4962 27.277 45.5588 27.1799 45.6509C27.0829 45.7431 27.0156 45.8607 26.9863 45.9894C26.9323 46.2476 26.9316 46.5138 26.9843 46.7723L27.4004 49.8618L27.4282 50.0014Z" fill="#2F2E41"/>
<path d="M33.5358 73.4773L33.2784 73.1016L31.3998 70.364L31.362 70.3103L31.9429 67.3829L32.1235 66.469L32.5183 64.4803L32.4038 59.9281L32.3216 56.7074L32.3094 56.2021L31.893 54.9688C31.6956 54.3921 31.3784 53.8608 30.9612 53.4079C30.544 52.9551 30.0355 52.5902 29.4673 52.3359L26.6642 51.0895C26.3343 50.9436 25.9583 50.931 25.6188 51.0545C25.2794 51.1779 25.0043 51.4273 24.8541 51.7478C24.8416 51.7746 24.83 51.8017 24.8193 51.8293C24.4352 51.8803 22.7682 52.1526 21.3545 53.2183C20.3641 53.9504 19.6728 54.9996 19.4031 56.1798C19.4004 56.189 19.3991 56.1981 19.3964 56.2073C19.209 57.0203 19.0689 58.3034 18.9786 60.042C18.918 61.1915 18.8798 62.5383 18.8641 64.0823C18.8389 66.656 18.9879 69.2285 19.3101 71.7832C19.3411 72.0267 19.3735 72.2689 19.4071 72.5124C19.4355 72.7167 19.6376 72.9117 19.833 73.0989C20.0122 73.2705 20.1969 73.4485 20.2225 73.6096C20.2454 73.7509 20.1524 73.8989 20.0419 74.0534C20.0284 74.073 20.0136 74.0927 20.0001 74.1123C19.8627 74.3021 19.7212 74.4998 19.7575 74.708C19.8424 75.1767 19.8923 75.6533 19.9395 76.1141C19.9921 76.7486 20.0867 77.3792 20.2225 78.002C20.2696 78.1932 20.3235 78.3856 20.3842 78.5781C20.5257 79.0298 20.6968 79.4801 20.8639 79.92C21.0081 80.3023 21.1577 80.6951 21.2844 81.0826C21.3087 81.1546 21.3316 81.2253 21.3531 81.296L21.3639 81.3327L21.403 81.3392H21.4057C21.4588 81.2473 21.522 81.1612 21.5944 81.0826C21.5976 81.0776 21.6017 81.0732 21.6065 81.0695C21.6254 81.0473 21.6469 81.0237 21.6712 80.9988C21.9663 80.6859 22.6078 80.1243 24.012 79.1777C24.326 78.9669 24.6778 78.7378 25.0713 78.4864C26.5146 77.5687 28.5307 76.3733 31.3472 74.8298C32.0534 74.4422 32.8112 74.0324 33.6207 73.6004L33.5358 73.4773Z" fill="#388E3C"/>
<path d="M48.6523 102.278C48.3249 101.958 47.9357 101.705 47.5071 101.533C47.0785 101.361 46.619 101.272 46.1551 101.274L44.6902 100.195L44.4975 100.052L43.193 100.568C43.6485 100.763 44.1094 100.953 44.5716 101.136C46.0176 101.709 47.4942 102.222 49.0013 102.673C48.8954 102.533 48.7787 102.401 48.6523 102.278Z" fill="#2F2E41"/>
<path d="M81.1884 98.2977L79.3538 97.4453L81.874 89.9951L84.5818 91.2533L81.1884 98.2977Z" fill="#FFB6B6"/>
<path d="M93.4881 97.097C92.9545 97.4204 92.4141 97.7346 91.8669 98.0397V98.0436L91.8589 98.0449L91.8562 98.0462L91.6486 98.096L91.3508 97.3314L90.6635 95.5679L88.7903 90.763L91.7025 90.0652L91.8669 90.7133L93.0987 95.5666L93.4518 96.9543L93.4881 97.097Z" fill="#FFB6B6"/>
<path d="M86.0607 65.9163C86.3224 66.3292 86.7398 66.6263 87.2239 66.7443C87.708 66.8623 88.2204 66.7918 88.6517 66.5478C88.7384 66.4968 88.8206 66.4389 88.8975 66.3747L94.6979 69.6085L94.446 66.289L88.9765 63.727C88.6789 63.4366 88.2905 63.2503 87.8722 63.1974C87.4539 63.1445 87.0293 63.2279 86.665 63.4345C86.2481 63.6778 85.9477 64.0719 85.8299 64.5303C85.7121 64.9888 85.7865 65.4738 86.0369 65.8789C86.0447 65.8915 86.0526 65.9039 86.0607 65.9163Z" fill="#FFB6B6"/>
<path d="M92.2041 68.3907L93.2294 68.9977L97.8342 71.7257C98.1365 71.9094 98.473 72.0335 98.8246 72.0909C99.1763 72.1482 99.5361 72.1377 99.8835 72.06C100.231 71.9823 100.559 71.8388 100.85 71.6379C101.14 71.4369 101.387 71.1823 101.576 70.8886L101.578 70.8863C101.918 70.3406 102.039 69.6915 101.916 69.0644L99.8695 59.1308C99.7939 58.7409 99.6325 58.3714 99.3964 58.0476C99.1602 57.7238 98.8549 57.4534 98.5013 57.2548C98.1477 57.0562 97.7541 56.9341 97.3474 56.8969C96.9408 56.8597 96.5306 56.9082 96.1451 57.0392C95.497 57.2604 94.96 57.7132 94.6434 58.3055C94.3267 58.8977 94.2543 59.5849 94.4407 60.2273L96.5808 67.2769L93.3004 65.7911L92.2041 68.3907Z" fill="#388E3C"/>
<path d="M111.086 78.1852C111.084 78.1813 111.082 78.1668 111.078 78.1446L111.073 78.1302C111.064 78.0831 111.053 78.0307 111.041 77.9731C110.766 76.6466 110.413 75.3365 109.983 74.0493C109.729 73.2611 109.391 72.5003 108.977 71.7791C108.963 71.7556 108.948 71.732 108.933 71.7084L108.884 71.6299L108.464 71.7791L108.448 71.7844L102.077 74.0533L100.234 74.7092L100.176 74.7301L99.8625 75.9739L95.4571 75.4201L91.867 74.9684L90.836 74.8388C90.3891 74.7822 89.935 74.8126 89.5003 74.9281C89.0656 75.0436 88.6588 75.242 88.3038 75.5117C87.9333 75.7908 87.6237 76.1387 87.393 76.5352C87.1623 76.9317 87.0152 77.3689 86.9602 77.8212C86.9467 77.9207 86.9386 78.0215 86.9346 78.121L86.6233 89.4026V89.417L86.7675 89.6972L89.7795 95.5678H91.867L93.0987 95.5665H94.1L92.0179 90.4487L92.0651 90.3793C92.2609 90.0876 92.3845 89.7556 92.4258 89.4096C92.4672 89.0636 92.4254 88.713 92.3036 88.3854L92.5381 87.7255C93.0246 86.3626 92.7941 85.708 92.503 84.8806C92.2416 84.2078 92.088 83.5 92.0475 82.7819L91.999 81.8484C93.2213 82.0566 94.3601 82.2883 95.4571 82.5213C95.8236 82.5986 96.1866 82.6767 96.5459 82.7557C97.5688 82.9769 98.5566 83.1904 99.5242 83.3684C101.484 83.7311 103.361 83.9523 105.289 83.8149C105.327 83.8122 105.365 83.8096 105.403 83.8057C105.872 83.769 106.343 83.7101 106.82 83.6276C107.089 83.5805 107.358 83.5268 107.63 83.464C107.706 83.4456 107.783 83.4273 107.858 83.409C108.068 83.3553 108.269 83.2766 108.459 83.1746C108.729 83.0283 108.98 82.8517 109.207 82.6483C109.208 82.647 109.21 82.647 109.21 82.6457C109.582 82.1325 109.944 81.6114 110.297 81.0825C110.487 80.7984 110.676 80.5117 110.861 80.2236C111.13 79.5049 111.232 78.7796 111.086 78.1852Z" fill="#2F2E41"/>
<path d="M111.13 76.0657C111.11 75.9819 111.084 75.8968 111.057 75.8143C110.843 75.1896 110.594 74.5768 110.311 73.9788C109.993 73.298 109.611 72.5687 109.157 71.7793C108.938 71.397 108.701 70.9994 108.448 70.5866C108.322 70.3797 108.19 70.1689 108.053 69.9542C108.048 69.9443 108.042 69.9347 108.036 69.9254L107.997 69.8625L101.693 70.6821L99.345 70.9872L99.2049 72.1236L99.1712 72.4051C99.1698 72.4051 99.1698 72.4051 99.1712 72.4064L99.0768 73.1736V73.1749L98.9515 74.1882L98.9407 74.1869L95.4571 73.7483L91.867 73.2967L89.9385 73.0544C89.4916 72.9979 89.0375 73.0282 88.6028 73.1438C88.1681 73.2593 87.7614 73.4577 87.4063 73.7274C87.0358 74.0065 86.7262 74.3544 86.4955 74.7509C86.2648 75.1474 86.1177 75.5846 86.0627 76.0369C86.0506 76.1285 86.0425 76.2228 86.0385 76.3157L84.2191 80.504C83.1305 83.0087 82.4372 85.6588 82.1626 88.3645L80.8285 92.5083L81.0185 92.5253L83.8459 92.7806L84.5924 92.8486L86.2366 90.5169C86.4239 90.2511 86.6018 89.9775 86.7675 89.6973C87.0404 89.2397 87.2831 88.7657 87.4939 88.2781L91.0503 80.0562C91.3252 80.102 91.5975 80.1457 91.867 80.1871C93.1136 80.3835 94.3103 80.5437 95.4571 80.6676C99.186 81.0722 102.415 81.1036 105.289 80.7606C106.097 80.665 106.877 80.5393 107.63 80.3835C107.907 80.3272 108.179 80.2665 108.448 80.2015C108.512 80.1871 108.574 80.1727 108.636 80.157C109.193 80.0175 109.705 79.7444 110.125 79.3629C110.545 78.9814 110.86 78.5036 111.041 77.9732C111.257 77.3586 111.288 76.6968 111.13 76.0657Z" fill="#2F2E41"/>
<path d="M97.7244 51.3383C100.133 51.3383 102.085 49.3993 102.085 47.0074C102.085 44.6155 100.133 42.6765 97.7244 42.6765C95.316 42.6765 93.3636 44.6155 93.3636 47.0074C93.3636 49.3993 95.316 51.3383 97.7244 51.3383Z" fill="#FFB6B6"/>
<path d="M108.079 70.0996C108.072 70.0511 108.064 70.0027 108.053 69.9542C107.95 69.4227 107.68 68.9016 107.42 68.3963C107.172 67.9145 106.936 67.4589 106.839 67.0059C106.743 66.5594 106.8 66.1117 106.855 65.6796C106.915 65.2109 106.977 64.7265 106.838 64.2565C106.134 61.8561 105.167 59.536 103.954 57.3359C103.648 56.3685 103.061 55.5074 102.264 54.8558C101.467 54.2042 100.493 53.7898 99.4595 53.6622C99.5801 53.4433 99.6304 53.1943 99.6037 52.9474C99.5868 52.7878 99.5375 52.6331 99.4586 52.4922C99.3797 52.3513 99.2728 52.227 99.1441 52.1265C99.0205 52.0297 98.8784 51.9577 98.726 51.9146C98.5735 51.8714 98.4138 51.858 98.256 51.8751L96.2292 52.0964C95.9043 52.136 95.6086 52.2987 95.4064 52.549C95.2043 52.7993 95.112 53.1171 95.1497 53.4331C95.1611 53.5304 95.1837 53.6261 95.2171 53.7185C93.3358 56.0463 92.3696 58.1673 92.2806 60.173V60.1743C92.2698 60.406 92.2712 60.638 92.2847 60.8695C92.3273 61.6183 92.4948 62.3554 92.7806 63.052C93.1181 63.8568 93.5699 64.6117 94.1228 65.2947C94.236 65.4335 94.3533 65.5696 94.4746 65.7032C94.5878 65.8341 94.7145 65.9716 94.8546 66.1156L95.209 66.655L95.5392 67.159L97.3046 71.1168L98.2035 71.088L98.3288 71.9587L98.3585 72.1616L98.9407 74.187L98.9838 74.3388L99.7802 73.971L104.532 71.7793L108.084 70.1402L108.079 70.0996Z" fill="#388E3C"/>
<path opacity="0.2" d="M92.834 63.0308C93.2392 63.9949 93.8088 64.8858 94.5188 65.666C94.6404 65.8071 94.7688 65.9457 94.9032 66.0845L95.5931 67.136C98.1359 65.2843 100.196 57.9934 100.196 57.9934L97.3271 57.4512L92.834 63.0308Z" fill="black"/>
<path d="M91.097 51.743C91.3482 52.1623 91.4212 52.6602 91.3003 53.1309C91.1794 53.6016 90.8742 54.0079 90.4497 54.2633C90.3625 54.3139 90.2712 54.3574 90.1767 54.3934L90.3798 60.8876L87.485 59.1172L87.7359 53.2217C87.6128 52.8293 87.6267 52.4084 87.7757 52.0246C87.9246 51.6409 88.2002 51.3158 88.5593 51.1001C88.9745 50.8561 89.4724 50.7824 89.9435 50.895C90.4147 51.0077 90.8205 51.2976 91.0716 51.7009C91.0803 51.7148 91.0887 51.7289 91.097 51.743Z" fill="#FFB6B6"/>
<path d="M90.6342 58.4362L87.4508 58.876L87.5877 65.2805C87.5956 65.7374 87.7237 66.1847 87.9597 66.5799C88.1957 66.9752 88.5319 67.3053 88.9362 67.5388C89.4301 67.8211 90.0051 67.9398 90.5745 67.877C91.144 67.8142 91.6769 67.5732 92.0931 67.1905L99.6089 60.1675C100.138 59.6801 100.454 59.0145 100.493 58.3074C100.532 57.6003 100.291 56.9055 99.8189 56.366C99.3563 55.8341 98.6952 55.5024 97.981 55.4441C97.2667 55.3857 96.5579 55.6054 96.0104 56.0547C95.9889 56.0723 95.9678 56.0902 95.947 56.1084C95.8727 56.1729 95.802 56.2413 95.7353 56.3132L90.7726 61.8596L90.6342 58.4362Z" fill="#388E3C"/>
<path d="M93.569 96.9333L93.4518 96.9543L91.867 97.2384L91.3508 97.3314L90.5382 97.4767L90.8266 98.6065C91.1729 98.4246 91.5152 98.2373 91.8562 98.0462L91.8589 98.0449L91.867 98.0436V98.0396C92.4141 97.7359 92.9545 97.4217 93.4882 97.097C93.5259 97.0747 93.5637 97.0525 93.6014 97.0276L93.569 96.9333Z" fill="#2F2E41"/>
<path d="M81.7745 97.0814L79.7894 96.157L79.4781 96.0117L78.9808 97.1979L75.5093 97.9402C75.3376 97.9768 75.1825 98.0657 75.0666 98.194C74.9507 98.3223 74.88 98.4832 74.865 98.6533C74.8499 98.8234 74.8912 98.9937 74.9829 99.1394C75.0746 99.285 75.2118 99.3984 75.3745 99.4628L78.7665 100.807L79.8433 99.8661L79.5792 101.129L80.8567 101.636L82.2569 97.3065L81.7745 97.0814Z" fill="#2F2E41"/>
<path d="M109.393 45.1292C108.652 44.2895 108.3 43.1753 107.707 42.2217C107.115 41.2681 106.083 40.4147 104.994 40.6366C104.243 40.7896 103.663 41.4333 103.369 42.151C103.075 42.8688 103.02 43.6603 102.969 44.4357C102.987 42.8422 101.906 41.2974 100.418 40.7889C98.929 40.2805 97.1476 40.8476 96.2122 42.1278C95.804 41.7603 95.2712 41.551 94.7148 41.5396C94.1583 41.5283 93.617 41.7157 93.1933 42.0663C92.3566 42.7927 92.1715 44.1754 92.7868 45.102C93.4021 46.0286 94.7346 46.3738 95.7124 45.8599L96.0581 46.1688C95.8635 46.83 96.2409 47.611 96.8752 47.8599C97.3896 48.0618 98.1158 48.0282 98.3083 48.5526C98.4428 48.919 98.1914 49.3101 97.9239 49.5917C97.6565 49.8733 97.339 50.164 97.3069 50.5537C97.2584 51.1416 97.8837 51.5534 98.4522 51.6774C99.8229 51.9765 101.344 51.3598 102.134 50.1846C102.149 50.162 102.166 50.1393 102.184 50.1165C102.627 49.5659 102.95 48.9331 103.133 48.2571C103.316 47.581 103.355 46.8758 103.248 46.1845C103.204 45.9129 103.249 45.7108 103.441 45.6465C104.275 45.3685 106.609 45.952 107.315 46.4794C108.022 47.0068 108.588 47.7048 109.268 48.2662C109.949 48.8277 110.816 49.2607 111.68 49.1079C112.372 48.9854 112.961 48.4973 113.357 47.9086C113.753 47.3199 113.98 46.6336 114.185 45.9517C112.654 46.8105 110.56 46.451 109.393 45.1292Z" fill="#2F2E41"/>
<path d="M95.4565 70.9446V95.8461C94.9687 96.1721 94.4746 96.4893 93.9741 96.7979V72.5955C93.9741 71.8938 93.7316 71.3242 93.4337 71.3229H70.9969C70.6977 71.3242 70.4565 71.8938 70.4552 72.5955V104.732C70.156 104.761 69.8568 104.788 69.5576 104.812C69.4337 104.822 69.3083 104.831 69.1844 104.84C69.1129 104.712 69.0429 104.583 68.9728 104.452V70.9446C68.9728 70.7508 68.9809 70.5557 68.9943 70.3633C69.1156 68.7293 69.718 67.5353 70.4228 67.5327H94.0065C94.0918 67.5333 94.1762 67.5506 94.2545 67.5838C94.8447 67.8273 95.311 68.8956 95.4282 70.2768C95.4471 70.4968 95.4579 70.7207 95.4565 70.9446Z" fill="#E4E4E4"/>
<path d="M59.457 70.9446V104.632C59.4368 104.664 59.4166 104.694 59.3964 104.725C58.8897 104.675 58.3852 104.618 57.883 104.554V72.5955C57.883 71.8938 57.6256 71.3242 57.3089 71.3229H33.4948C33.1781 71.3242 32.9207 71.8938 32.9207 72.5955V94.7817C32.3884 94.4007 31.8637 94.0101 31.3467 93.6099V70.9446C31.3467 70.7508 31.3548 70.5557 31.3696 70.3633C31.4976 68.7293 32.1377 67.5353 32.887 67.5327H57.9167C58.0069 67.533 58.0961 67.5503 58.1795 67.5838C58.8061 67.8273 59.3021 68.8956 59.4274 70.2768C59.4476 70.4968 59.457 70.7207 59.457 70.9446Z" fill="#E4E4E4"/>
<path d="M51.4762 59.7493L53.0369 66.4205L54.0341 67.4818H54.7537L51.7884 55.3523L51.6417 57.4129V57.4143L51.4762 59.7493Z" fill="#3F3D56"/>
<path d="M56.6734 67.8227C56.6689 67.8124 56.663 67.8028 56.6559 67.7939C56.6415 67.7624 56.6209 67.734 56.5953 67.7101L56.4133 67.5334L55.4565 66.6025C55.3862 66.5358 55.292 66.4982 55.1937 66.4978H55.1897L54.5145 66.5017L53.9337 66.5057L53.1224 66.5109L47.5971 66.5449L43.9652 66.5672C43.8668 66.5684 43.7729 66.6071 43.7036 66.6749C43.6343 66.7427 43.5951 66.8343 43.5946 66.9299C43.5952 66.9827 43.6071 67.0349 43.6296 67.083L43.6997 67.2284L43.8466 67.5334L44.038 67.9327L44.1323 68.1291C44.1624 68.1916 44.2102 68.2445 44.2701 68.2816C44.33 68.3187 44.3995 68.3385 44.4706 68.3386H56.3311C56.3935 68.3374 56.4547 68.3214 56.5092 68.2918C56.5637 68.2623 56.6099 68.2202 56.6437 68.1692C56.6775 68.1183 56.6979 68.06 56.7031 67.9996C56.7083 67.9392 56.6981 67.8784 56.6734 67.8227Z" fill="#3F3D56"/>
<path opacity="0.17" d="M44.0382 67.9324L44.1318 68.1295C44.1623 68.1918 44.2102 68.2445 44.2702 68.2815C44.3301 68.3185 44.3995 68.3384 44.4705 68.3387H56.3315C56.3939 68.3376 56.4551 68.3216 56.5096 68.2921C56.5641 68.2626 56.6102 68.2205 56.644 68.1696C56.6778 68.1186 56.6982 68.0604 56.7033 68C56.7084 67.9396 56.6981 67.8789 56.6733 67.8232C56.6691 67.8128 56.6634 67.8031 56.6562 67.7944L44.0382 67.9324Z" fill="black"/>
<path opacity="0.17" d="M51.6417 57.4129V57.4143L54.1809 67.4818H54.7537L51.7885 55.3523L51.6417 57.4129Z" fill="black"/>
<path d="M55.6249 29.2398L55.253 29.1914C55.1509 29.1785 55.0477 29.2053 54.9659 29.266L54.7436 29.4323L52.268 32.4409C52.1862 32.5023 52.1329 32.5927 52.1197 32.6923L51.9809 33.7161L48.5256 59.2578C48.5133 59.3525 48.5378 59.4482 48.5943 59.5262L50.2222 63.8859L50.2708 63.954L50.3759 64.0993C50.43 64.1731 50.5092 64.226 50.5996 64.2486L50.8354 64.3062C50.889 64.3192 50.9448 64.3211 50.9992 64.3116C51.0535 64.3021 51.1052 64.2815 51.1508 64.2512C51.1965 64.2213 51.2351 64.1823 51.2639 64.1366C51.2928 64.091 51.3112 64.0399 51.3179 63.9867L51.7397 60.8734V60.8721L52.0092 58.8742L52.237 57.1892V57.1879L55.9618 29.664C55.9753 29.5647 55.9475 29.4642 55.8847 29.3847C55.8219 29.3052 55.7291 29.2531 55.6268 29.2401L55.6249 29.2398Z" fill="#3F3D56"/>
<path opacity="0.17" d="M54.7431 29.4324L50.222 63.8865L50.2712 63.9539L50.3759 64.0988C50.43 64.1727 50.5093 64.2257 50.5997 64.2482L50.8359 64.3059C50.8893 64.3187 50.945 64.3205 50.9992 64.3111C51.0534 64.3016 51.105 64.2811 51.1505 64.251C51.196 64.2209 51.2345 64.1818 51.2634 64.1362C51.2923 64.0907 51.311 64.0397 51.3182 63.9867L55.9615 29.6644C55.9749 29.5648 55.9471 29.464 55.8841 29.3842C55.8211 29.3045 55.7281 29.2523 55.6255 29.2392L55.2526 29.1916C55.202 29.185 55.1505 29.1882 55.1012 29.201C55.0519 29.2139 55.0058 29.2362 54.9654 29.2666L54.7431 29.4324Z" fill="black"/>
<path d="M54.6098 30.4177L52.2106 33.7446L49.359 54.8233L50.905 57.803L54.6098 30.4177Z" fill="#388E3C"/>
<path d="M77.9803 59.7493L76.4196 66.4205L75.4224 67.4818H74.7029L77.6682 55.3523L77.8148 57.4129V57.4143L77.9803 59.7493Z" fill="#3F3D56"/>
<path d="M85.4913 66.5672L76.3355 66.5109L75.5228 66.5057L74.9433 66.5017L74.2682 66.4978H74.2628C74.1649 66.498 74.0709 66.5356 74.0013 66.6025L72.8612 67.7101C72.836 67.7343 72.8155 67.7627 72.8006 67.7939C72.7935 67.8028 72.7876 67.8124 72.7831 67.8227C72.7584 67.8784 72.7482 67.9392 72.7534 67.9996C72.7586 68.06 72.779 68.1183 72.8128 68.1692C72.8466 68.2202 72.8928 68.2623 72.9473 68.2918C73.0018 68.3214 73.063 68.3374 73.1254 68.3386H84.9859C85.0571 68.3383 85.1268 68.3185 85.1869 68.2815C85.247 68.2444 85.295 68.1916 85.3255 68.1291L85.4185 67.9327L85.6099 67.5334L85.8269 67.083C85.85 67.0351 85.862 66.9828 85.8619 66.9298C85.8614 66.8343 85.8223 66.7427 85.7529 66.6749C85.6836 66.6071 85.5897 66.5684 85.4913 66.5672Z" fill="#3F3D56"/>
<path opacity="0.17" d="M85.4185 67.9324L85.3249 68.1295C85.2944 68.1918 85.2465 68.2445 85.1866 68.2815C85.1267 68.3185 85.0572 68.3384 84.9862 68.3387H73.1252C73.0628 68.3376 73.0017 68.3216 72.9472 68.2921C72.8927 68.2626 72.8465 68.2205 72.8127 68.1696C72.7789 68.1186 72.7586 68.0604 72.7535 68C72.7484 67.9396 72.7586 67.8789 72.7834 67.8232C72.7876 67.8128 72.7934 67.8031 72.8006 67.7944L85.4185 67.9324Z" fill="black"/>
<path opacity="0.17" d="M77.8148 57.4129V57.4143L75.2756 67.4818H74.7029L77.6682 55.3523L77.8148 57.4129Z" fill="black"/>
<path d="M80.9309 59.2577L77.3368 32.6922C77.3236 32.5926 77.2703 32.5022 77.1885 32.4408L74.7143 29.4322L74.4919 29.266C74.4095 29.2054 74.306 29.1786 74.2035 29.1913L73.8316 29.2398C73.729 29.2526 73.6359 29.3045 73.5727 29.3841C73.5095 29.4636 73.4814 29.5643 73.4947 29.664L77.2195 57.1892V57.1905L77.4473 58.8741L77.7182 60.8733V60.8759L78.1386 63.9867C78.1453 64.04 78.1638 64.0912 78.1929 64.1369C78.222 64.1825 78.261 64.2215 78.3071 64.2511C78.3524 64.2814 78.4038 64.302 78.458 64.3115C78.5121 64.321 78.5677 64.3191 78.6211 64.3061L78.8569 64.2485C78.9472 64.2259 79.0265 64.173 79.0806 64.0993L79.1857 63.9539L79.2342 63.8859L80.8622 59.5261C80.9193 59.4484 80.9439 59.3524 80.9309 59.2577Z" fill="#3F3D56"/>
<path opacity="0.17" d="M74.7136 29.4324L79.2346 63.8865L79.1855 63.9539L79.0807 64.0988C79.0266 64.1727 78.9474 64.2257 78.8569 64.2482L78.6208 64.3058C78.5673 64.3187 78.5116 64.3205 78.4574 64.311C78.4032 64.3016 78.3517 64.2811 78.3061 64.251C78.2606 64.2209 78.2222 64.1818 78.1932 64.1362C78.1643 64.0907 78.1457 64.0397 78.1384 63.9867L73.4951 29.6644C73.4817 29.5648 73.5095 29.464 73.5725 29.3842C73.6355 29.3045 73.7285 29.2523 73.8311 29.2392L74.204 29.1916C74.2546 29.185 74.3061 29.1882 74.3554 29.201C74.4047 29.2139 74.4509 29.2362 74.4912 29.2666L74.7136 29.4324Z" fill="black"/>
<path d="M74.8468 30.4177L77.246 33.7446L80.0976 54.8233L78.5516 57.803L74.8468 30.4177Z" fill="#388E3C"/>
<path d="M30.2543 72.9157C30.2546 72.9816 30.2488 73.0473 30.2367 73.1121C30.2314 73.1435 30.2246 73.1736 30.2165 73.2037C30.1509 73.4472 30.0041 73.6626 29.799 73.8163C29.5939 73.9701 29.3422 74.0535 29.0832 74.0534H24.012V85.8037C24.0122 86.0521 23.9284 86.2936 23.7735 86.4911C23.6576 86.3588 23.543 86.2266 23.4298 86.0931C22.8234 85.3887 22.2372 84.6686 21.6712 83.9329V74.0534H19.4071C19.1052 74.0532 18.8151 73.9397 18.5973 73.7366C18.3795 73.5335 18.251 73.2565 18.2384 72.9635C18.2259 72.6705 18.3304 72.3841 18.5301 72.1641C18.7298 71.9442 19.0093 71.8077 19.3101 71.7832C19.3424 71.7806 19.3748 71.7793 19.4071 71.7793H29.0832C29.3936 71.7792 29.6913 71.8988 29.9109 72.1119C30.1305 72.3251 30.254 72.6142 30.2543 72.9157Z" fill="#3F3D56"/>
<path d="M111.063 72.9157C111.063 73.146 110.991 73.3709 110.857 73.5607C110.722 73.7505 110.532 73.8963 110.311 73.9788C110.206 74.0178 110.095 74.0417 109.983 74.0495C109.954 74.0521 109.923 74.0534 109.893 74.0534H107.63V84.7184C107.597 84.7616 107.561 84.8048 107.526 84.848C106.994 85.5092 106.446 86.1572 105.881 86.7922C105.701 86.6935 105.551 86.5499 105.447 86.3761C105.343 86.2023 105.288 86.0047 105.289 85.8037V74.0534H100.217C100.067 74.0539 99.9188 74.0259 99.7802 73.9709C99.6056 73.9031 99.4505 73.7953 99.328 73.6567C99.2055 73.5182 99.1193 73.3529 99.0768 73.1749V73.1736C99.0139 72.9151 99.0473 72.6433 99.1711 72.4064C99.1698 72.4051 99.1698 72.4051 99.1711 72.4051C99.2246 72.3009 99.2946 72.2054 99.3786 72.1223C99.4878 72.0137 99.6181 71.9274 99.7621 71.8685C99.906 71.8096 100.061 71.7793 100.217 71.7793H109.893C110.203 71.7792 110.501 71.8989 110.72 72.1119C110.939 72.325 111.063 72.614 111.063 72.9153L111.063 72.9157Z" fill="#3F3D56"/>
<path d="M110.985 51.0073C110.504 51.0073 110.027 51.0995 109.582 51.2785C109.137 51.4576 108.732 51.72 108.392 52.0509C108.051 52.3818 107.781 52.7745 107.597 53.2068C107.412 53.6391 107.318 54.1024 107.318 54.5703C107.318 55.3969 107.614 56.1977 108.155 56.8356C108.695 57.4736 109.448 57.909 110.283 58.0674V63.8949H112.624V51.0073H110.985Z" fill="#3F3D56"/>
<path d="M46.9523 64.0176C46.7188 63.8844 46.4582 63.8026 46.1886 63.778C45.9191 63.7533 45.6472 63.7863 45.3923 63.8747C45.1373 63.9632 44.9054 64.1048 44.7128 64.2897C44.5203 64.4746 44.3719 64.6983 44.2779 64.945L40.0493 65.1052L39.4795 67.0188L45.4912 67.3177C45.9282 67.4436 46.3976 67.4093 46.8103 67.2214C47.223 67.0334 47.5505 66.705 47.7306 66.2982C47.9107 65.8914 47.931 65.4345 47.7875 65.0142C47.6441 64.5939 47.3469 64.2393 46.9523 64.0176Z" fill="#9E616A"/>
<path d="M43.4788 67.5242L39.1351 67.4716L38.5853 67.4644L29.7478 67.3562C29.7478 67.3562 27.3479 65.132 25.2582 62.8419L25.5511 60.7837C25.8368 58.7639 26.8682 56.9136 28.4532 55.5774C31.4462 57.5203 33.1819 61.366 33.1819 61.366L36.0921 62.6311C38.1402 62.7201 40.1359 63.2879 41.9099 64.2863L42.8669 64.825L43.4788 67.5242Z" fill="#388E3C"/>
<path d="M57.1262 104.452H72.7939C71.7252 104.604 70.6466 104.724 69.5582 104.812H60.3619C59.273 104.724 58.1944 104.604 57.1262 104.452Z" fill="#CCCCCC"/>
<path d="M60.2762 96.7894C60.5794 94.1307 62.2366 91.4935 64.8304 90.5959C63.8404 93.3412 63.8819 96.3382 64.9474 99.0567C65.3623 100.104 65.9359 101.226 65.5739 102.291C65.3487 102.954 64.7824 103.467 64.1459 103.791C63.5095 104.114 62.8004 104.274 62.1002 104.431L61.9635 104.544C60.815 102.112 59.9729 99.448 60.2762 96.7894Z" fill="#CCCCCC"/>
<path d="M64.8569 90.646C63.3622 92.3174 62.4477 94.4039 62.2431 96.609C62.1904 97.0829 62.215 97.562 62.3158 98.0286C62.4292 98.4799 62.6649 98.8936 62.9984 99.2266C63.303 99.5431 63.6523 99.8326 63.8724 100.216C63.9821 100.413 64.0475 100.631 64.0644 100.855C64.0813 101.079 64.0493 101.304 63.9704 101.515C63.7881 102.046 63.4202 102.481 63.0453 102.895C62.629 103.355 62.1891 103.825 62.0177 104.429C61.997 104.503 61.8813 104.467 61.902 104.394C62.2001 103.343 63.2381 102.735 63.7241 101.785C63.9509 101.342 64.0416 100.83 63.8169 100.368C63.6205 99.9644 63.2605 99.6656 62.9493 99.3477C62.6189 99.0275 62.3744 98.6336 62.2369 98.2004C62.1119 97.7404 62.0684 97.2631 62.1083 96.7888C62.1806 95.7198 62.4254 94.6685 62.8338 93.6734C63.2934 92.5352 63.9501 91.4817 64.7754 90.5586C64.8265 90.5015 64.9077 90.5892 64.8569 90.646Z" fill="white"/>
<path d="M62.266 95.895C61.8898 95.8114 61.5565 95.6007 61.3255 95.3004C61.0945 95.0001 60.9809 94.6298 61.005 94.2557C61.0061 94.2404 61.0133 94.2262 61.025 94.216C61.0367 94.2058 61.0521 94.2004 61.0678 94.201C61.0835 94.2015 61.0984 94.208 61.1093 94.219C61.1202 94.23 61.1263 94.2447 61.1263 94.26C61.1032 94.6083 61.2091 94.9533 61.4247 95.2325C61.6404 95.5117 61.9517 95.7068 62.3025 95.7826C62.3787 95.7991 62.3418 95.9115 62.266 95.895Z" fill="white"/>
<path d="M62.8222 99.0858C63.494 98.6842 63.9853 98.0513 64.1982 97.3134C64.2192 97.2403 64.3349 97.2758 64.3139 97.3488C64.0909 98.1163 63.5783 98.7739 62.8783 99.1904C62.8115 99.23 62.7558 99.1252 62.8222 99.0858Z" fill="white"/>
<path d="M63.4075 92.6453C63.5462 92.7071 63.6984 92.7345 63.8506 92.725C64.0028 92.7155 64.1502 92.6694 64.2795 92.5909C64.3457 92.5505 64.4013 92.6553 64.3355 92.6955C64.1922 92.7816 64.0294 92.8323 63.8613 92.8431C63.6931 92.8539 63.5248 92.8246 63.371 92.7577C63.356 92.7526 63.3435 92.7421 63.3362 92.7283C63.3288 92.7146 63.3271 92.6987 63.3314 92.6838C63.3363 92.6689 63.3471 92.6565 63.3613 92.6493C63.3756 92.6421 63.3922 92.6407 63.4075 92.6453Z" fill="white"/>
<path d="M72.8379 95.2335C72.7973 95.2599 72.7567 95.2863 72.7161 95.3137C72.1722 95.6714 71.6591 96.0714 71.1818 96.5098C71.1444 96.5432 71.1069 96.5775 71.0706 96.6118C69.9324 97.6799 69.0082 98.9441 68.345 100.34C68.0817 100.896 67.8622 101.47 67.6886 102.058C67.4488 102.87 67.2553 103.769 66.7677 104.437C66.7176 104.508 66.6631 104.575 66.6045 104.638L62.1159 104.697C62.1056 104.692 62.0953 104.688 62.085 104.683L61.9059 104.694C61.9127 104.663 61.9204 104.631 61.9271 104.6C61.931 104.582 61.9359 104.564 61.9397 104.546C61.9426 104.534 61.9455 104.522 61.9474 104.511C61.9484 104.507 61.9494 104.503 61.9503 104.5C61.9522 104.489 61.9552 104.479 61.9571 104.469C61.9997 104.29 62.0437 104.112 62.089 103.933C62.089 103.932 62.089 103.932 62.09 103.931C62.422 102.566 62.9196 101.244 63.5722 99.993C63.5922 99.9559 63.6121 99.9178 63.6342 99.8807C63.9367 99.3268 64.2854 98.7977 64.6767 98.2989C64.8918 98.0265 65.121 97.7648 65.3634 97.5148C65.991 96.8702 66.719 96.3255 67.5208 95.9006C69.1194 95.054 70.9789 94.7134 72.7063 95.1954C72.7505 95.2078 72.7937 95.2202 72.8379 95.2335Z" fill="#CCCCCC"/>
<path d="M72.8285 95.289C70.5993 95.7494 68.576 96.8803 67.0461 98.5214C66.7103 98.869 66.433 99.2658 66.2244 99.6973C66.0352 100.124 65.967 100.592 66.027 101.053C66.074 101.484 66.1735 101.919 66.1119 102.354C66.077 102.576 65.9942 102.788 65.8689 102.977C65.7436 103.166 65.5787 103.326 65.3849 103.449C64.9103 103.766 64.3467 103.899 63.7909 104.01C63.1738 104.133 62.5308 104.252 62.0196 104.634C61.9576 104.68 61.8873 104.584 61.9491 104.538C62.8385 103.873 64.0444 103.994 65.0208 103.52C65.4765 103.299 65.8663 102.943 65.973 102.443C66.0664 102.006 65.9642 101.557 65.9127 101.121C65.8474 100.672 65.8962 100.215 66.0548 99.7884C66.2402 99.348 66.5013 98.9414 66.827 98.5861C67.5472 97.7748 68.3942 97.0786 69.337 96.5229C70.4094 95.883 71.5866 95.4259 72.8176 95.1716C72.8938 95.1559 72.9042 95.2734 72.8285 95.289Z" fill="white"/>
<path d="M67.5067 97.9649C67.2582 97.6781 67.1226 97.3149 67.1243 96.94C67.126 96.5651 67.2647 96.203 67.5158 95.9184C67.5669 95.861 67.6611 95.9353 67.61 95.9928C67.3757 96.2574 67.2465 96.5947 67.2456 96.9438C67.2448 97.2929 67.3725 97.6308 67.6055 97.8965C67.6561 97.9543 67.557 98.0223 67.5067 97.9649Z" fill="white"/>
<path d="M65.9736 100.838C66.7589 100.91 67.5433 100.692 68.1706 100.227C68.2327 100.181 68.3031 100.277 68.241 100.323C67.5874 100.806 66.7705 101.031 65.9535 100.954C65.8756 100.947 65.8961 100.83 65.9736 100.838Z" fill="white"/>
<path d="M70.4322 96.0378C70.5046 96.1682 70.6092 96.2791 70.7366 96.3606C70.864 96.442 71.0102 96.4915 71.1621 96.5044C71.2401 96.5109 71.2195 96.6271 71.1421 96.6207C70.9743 96.6056 70.8128 96.5508 70.6719 96.4611C70.5309 96.3715 70.4147 96.2496 70.3334 96.1062C70.3245 96.0933 70.3211 96.0777 70.3237 96.0624C70.3264 96.0471 70.3349 96.0334 70.3476 96.024C70.3607 96.015 70.377 96.0114 70.3928 96.014C70.4087 96.0166 70.4228 96.0251 70.4322 96.0378Z" fill="white"/>
<path d="M75.1662 98.9375C75.9546 98.9375 76.5937 98.3166 76.5937 97.5507C76.5937 96.7847 75.9546 96.1638 75.1662 96.1638C74.3778 96.1638 73.7386 96.7847 73.7386 97.5507C73.7386 98.3166 74.3778 98.9375 75.1662 98.9375Z" fill="#CCCCCC"/>
<path d="M79.8268 102.988C79.7392 103.013 79.6502 103.037 79.5613 103.061C78.7541 103.281 77.941 103.482 77.1221 103.665C77.0278 103.48 76.9773 103.277 76.974 103.07C76.9708 102.864 77.015 102.66 77.1035 102.472C77.1919 102.284 77.3223 102.118 77.4852 101.986C77.6481 101.854 77.8394 101.758 78.045 101.707C78.2507 101.655 78.4656 101.649 78.6741 101.688C78.8825 101.728 79.0793 101.812 79.25 101.935C79.4207 102.058 79.5611 102.216 79.6609 102.398C79.7607 102.58 79.8173 102.782 79.8268 102.988Z" fill="#CCCCCC"/>
<path d="M87.9827 100.01C87.8735 100.06 87.7644 100.11 87.6552 100.158C87.5366 100.213 87.4167 100.266 87.2981 100.318C87.1647 100.377 87.0326 100.435 86.8992 100.492C86.3979 100.71 85.8912 100.919 85.3831 101.121C85.3764 101.11 85.3696 101.098 85.3629 101.087C85.1849 100.763 85.1465 100.383 85.2561 100.032C85.3657 99.6801 85.6143 99.3852 85.9474 99.2115C86.2805 99.0378 86.6709 98.9996 87.033 99.1052C87.3951 99.2108 87.6993 99.4516 87.8789 99.7748C87.9202 99.8504 87.9549 99.9292 87.9827 100.01Z" fill="#CCCCCC"/>
<path d="M80.2012 95.5335C80.9896 95.5335 81.6287 94.9125 81.6287 94.1466C81.6287 93.3807 80.9896 92.7598 80.2012 92.7598C79.4128 92.7598 78.7737 93.3807 78.7737 94.1466C78.7737 94.9125 79.4128 95.5335 80.2012 95.5335Z" fill="#CCCCCC"/>
<path d="M67.1063 18.1592C58.7092 20.305 49.4051 21.6103 39.9447 21.9677C38.5582 22.0411 37.1685 22.0319 35.7832 21.9403C32.7389 21.6915 30.1312 20.7619 27.227 20.254C25.8309 20.0105 24.2757 19.8324 22.8701 19.5692C23.1949 19.1778 23.5255 18.7911 23.862 18.4093C26.8928 18.658 29.9708 19.4724 33.038 19.8507C38.252 20.4949 44.0941 19.7761 48.0467 18.0034C49.9644 17.1432 51.4333 16.0697 53.3442 15.2056C53.6041 15.076 53.8857 14.9922 54.1757 14.9581C54.7808 14.9045 55.3118 15.1414 55.7444 15.3535C58.9504 16.9259 63.6051 18.2037 67.9257 17.5007C68.2478 17.7455 67.6359 18.0243 67.1063 18.1592Z" fill="white"/>
<path d="M86.2252 23.6926C86.2647 23.6856 86.3043 23.6802 86.3437 23.6735C86.1778 23.5736 86.0215 23.4592 85.8768 23.3318L86.2252 23.6926Z" fill="white"/>
<path d="M112.089 26.795C110.285 26.9351 108.471 27.0394 106.647 27.1079C105.261 27.1806 103.871 27.1714 102.486 27.0804C99.4416 26.8303 96.8339 25.9021 93.9297 25.3941C91.2681 24.9293 88.0338 24.7054 86.3439 23.6738C90.7116 22.9393 95.2369 24.4344 99.7407 24.9909C103.384 25.426 107.077 25.2489 110.658 24.4672C111.157 25.2291 111.634 26.0051 112.089 26.795Z" fill="white"/>
<path d="M71.4684 46.4338C67.241 32.3375 64.7529 17.8033 64.7529 3.12098V2.05688H63.3483V3.12095C63.3483 17.8033 60.86 32.3375 56.6328 46.4338C56.4284 47.1162 56.3249 47.8234 56.3253 48.5341C56.3253 48.8029 56.3798 49.069 56.4857 49.3174C56.5916 49.5657 56.7468 49.7914 56.9424 49.9814C57.1381 50.1715 57.3703 50.3223 57.6259 50.4251C57.8816 50.528 58.1555 50.5809 58.4322 50.5809H61.2414C61.2414 50.9393 61.3141 51.2942 61.4552 51.6253C61.5964 51.9564 61.8033 52.2573 62.0642 52.5107C62.3251 52.7641 62.6347 52.9652 62.9756 53.1023C63.3164 53.2395 63.6817 53.3101 64.0506 53.3101C64.4195 53.3101 64.7848 53.2395 65.1256 53.1023C65.4664 52.9652 65.7761 52.7641 66.037 52.5107C66.2978 52.2573 66.5048 51.9564 66.6459 51.6253C66.7871 51.2942 66.8598 50.9393 66.8598 50.5809H69.0458V56.4631C68.7374 56.4718 68.4442 56.5948 68.2263 56.807C68.0084 57.0191 67.8824 57.3042 67.874 57.6038C67.8657 57.9034 67.9757 58.1947 68.1815 58.418C68.3873 58.6412 68.6733 58.7795 68.9807 58.8044C69.2881 58.8292 69.5937 58.7389 69.8347 58.5518C70.0756 58.3647 70.2338 58.0951 70.2766 57.7983C70.3194 57.5015 70.2437 57.2 70.0649 56.9558C69.8861 56.7116 69.6179 56.543 69.3153 56.4849V50.5809H69.669C70.2278 50.5809 70.7637 50.3653 71.1588 49.9814C71.5539 49.5976 71.7759 49.0769 71.7759 48.5341C71.7763 47.8234 71.6728 47.1162 71.4684 46.4338Z" fill="white"/>
</g>
<defs>
<clipPath id="clip0_5_417">
<rect width="119" height="105" fill="white"/>
</clipPath>
</defs>
</svg>
