<svg width="499" height="405" viewBox="0 0 499 405" fill="none" xmlns="http://www.w3.org/2000/svg">
<g clip-path="url(#clip0_5_1240)">
<path d="M398.364 73.7717C395.772 102.352 388.387 132.489 376.806 161.567C362.483 197.526 342.915 229.198 320.217 253.16L318.957 252.061C341.546 228.214 361.025 196.682 375.287 160.872C388.177 128.511 395.844 94.8345 397.469 63.4983L399.078 63.768C398.908 67.0775 398.67 70.412 398.364 73.7717Z" fill="#F2F2F2"/>
<path d="M408.688 239.763C376.807 290.52 338.127 326.786 299.775 341.879L298.999 340.456C337.086 325.467 375.539 289.386 407.275 238.862L408.688 239.763Z" fill="#F2F2F2"/>
<path d="M397.59 109.356C394.998 137.937 387.613 168.073 376.032 197.151C361.709 233.11 342.141 264.782 319.443 288.744L318.183 287.645C340.772 263.798 360.251 232.266 374.513 196.456C387.403 164.095 395.07 130.419 396.695 99.0825L398.304 99.3522C398.134 102.662 397.896 105.996 397.59 109.356Z" fill="#F2F2F2"/>
<path d="M39.6781 182.731H18.7598C18.3129 182.732 17.8716 182.632 17.4689 182.438C17.0663 182.244 16.7128 181.961 16.435 181.61C16.1605 181.269 15.9668 180.87 15.8686 180.443C15.7703 180.016 15.7699 179.572 15.8675 179.145C17.8597 170.348 17.7346 161.204 15.5023 152.465C15.3611 151.889 15.3953 151.285 15.6003 150.729C15.8054 150.173 16.172 149.692 16.653 149.346C27.4092 141.605 35.8801 141.829 41.8305 150.015C42.0987 150.388 42.2769 150.818 42.3511 151.272C43.9409 160.836 44.0289 170.591 42.6118 180.183C42.5133 180.891 42.1619 181.539 41.6225 182.007C41.0831 182.476 40.3923 182.733 39.6781 182.731Z" fill="#E6E6E6"/>
<path d="M33.1929 161.769H25.997C25.5991 161.769 25.2174 161.61 24.9361 161.329C24.6547 161.047 24.4966 160.665 24.4966 160.267C24.4966 159.869 24.6547 159.487 24.9361 159.206C25.2174 158.924 25.5991 158.766 25.997 158.766H33.1929C33.5903 158.767 33.9711 158.925 34.2518 159.207C34.5325 159.488 34.6901 159.87 34.6901 160.267C34.6901 160.665 34.5325 161.046 34.2518 161.328C33.9711 161.609 33.5903 161.768 33.1929 161.769Z" fill="white"/>
<path d="M33.1929 167.034H25.997C25.5991 167.034 25.2174 166.876 24.9361 166.594C24.6547 166.313 24.4966 165.931 24.4966 165.533C24.4966 165.134 24.6547 164.753 24.9361 164.471C25.2174 164.189 25.5991 164.031 25.997 164.031H33.1929C33.5903 164.032 33.9711 164.191 34.2518 164.472C34.5325 164.754 34.6901 165.135 34.6901 165.533C34.6901 165.93 34.5325 166.312 34.2518 166.593C33.9711 166.875 33.5903 167.033 33.1929 167.034Z" fill="white"/>
<path d="M33.1929 172.3H25.997C25.5991 172.3 25.2174 172.141 24.9361 171.86C24.6547 171.578 24.4966 171.196 24.4966 170.798C24.4966 170.4 24.6547 170.018 24.9361 169.737C25.2174 169.455 25.5991 169.297 25.997 169.297H33.1929C33.5903 169.298 33.9711 169.456 34.2518 169.738C34.5325 170.019 34.6901 170.401 34.6901 170.798C34.6901 171.196 34.5325 171.577 34.2518 171.859C33.9711 172.14 33.5903 172.299 33.1929 172.3Z" fill="white"/>
<path d="M419.846 276.194H398.928C398.481 276.195 398.04 276.094 397.637 275.9C397.234 275.706 396.881 275.423 396.603 275.073C396.328 274.732 396.135 274.333 396.036 273.906C395.938 273.479 395.938 273.035 396.035 272.608C398.028 263.811 397.903 254.666 395.67 245.927C395.529 245.352 395.563 244.747 395.768 244.192C395.973 243.636 396.34 243.154 396.821 242.809C407.577 235.067 416.048 235.292 421.998 243.477C422.267 243.851 422.445 244.281 422.519 244.734C424.109 254.299 424.197 264.054 422.78 273.646C422.681 274.353 422.33 275.002 421.79 275.47C421.251 275.939 420.56 276.196 419.846 276.194Z" fill="#E6E6E6"/>
<path d="M413.361 255.231H406.165C405.768 255.231 405.387 255.072 405.106 254.79C404.825 254.509 404.668 254.128 404.668 253.73C404.668 253.332 404.825 252.951 405.106 252.669C405.387 252.388 405.768 252.229 406.165 252.229H413.361C413.759 252.229 414.14 252.387 414.422 252.668C414.703 252.95 414.861 253.332 414.861 253.73C414.861 254.128 414.703 254.51 414.422 254.792C414.14 255.073 413.759 255.231 413.361 255.231Z" fill="white"/>
<path d="M413.361 260.497H406.165C405.768 260.496 405.387 260.337 405.106 260.056C404.825 259.774 404.668 259.393 404.668 258.995C404.668 258.598 404.825 258.216 405.106 257.935C405.387 257.653 405.768 257.495 406.165 257.494H413.361C413.759 257.494 414.14 257.652 414.422 257.934C414.703 258.215 414.861 258.597 414.861 258.995C414.861 259.394 414.703 259.775 414.422 260.057C414.14 260.339 413.759 260.497 413.361 260.497Z" fill="white"/>
<path d="M413.361 265.762H406.165C405.768 265.761 405.387 265.603 405.106 265.321C404.825 265.04 404.668 264.658 404.668 264.261C404.668 263.863 404.825 263.482 405.106 263.2C405.387 262.919 405.768 262.76 406.165 262.759H413.361C413.759 262.759 414.14 262.917 414.422 263.199C414.703 263.481 414.861 263.862 414.861 264.261C414.861 264.659 414.703 265.041 414.422 265.322C414.14 265.604 413.759 265.762 413.361 265.762Z" fill="white"/>
<path d="M499 404.217C499 404.32 498.98 404.422 498.941 404.517C498.902 404.612 498.844 404.699 498.771 404.771C498.699 404.844 498.612 404.902 498.517 404.941C498.422 404.98 498.32 405 498.217 405H0.7827C0.575116 405 0.376041 404.918 0.229256 404.771C0.0824716 404.624 0 404.425 0 404.217C0 404.009 0.0824716 403.81 0.229256 403.663C0.376041 403.516 0.575116 403.434 0.7827 403.434H498.217C498.32 403.433 498.422 403.453 498.517 403.493C498.612 403.532 498.699 403.59 498.771 403.662C498.844 403.735 498.902 403.822 498.941 403.917C498.98 404.012 499 404.114 499 404.217Z" fill="#CCCCCC"/>
<path d="M131.219 356.261L129.915 338.103C121.369 333.828 111.909 331.705 102.357 331.918C115.795 342.313 114.719 363.089 124.026 377.307C126.962 381.719 130.854 385.413 135.411 388.116C139.969 390.819 145.075 392.461 150.353 392.92L161.537 399.359C162.817 390.897 162.248 382.258 159.869 374.038C157.491 365.818 153.36 358.211 147.762 351.742C144.585 348.144 140.968 344.96 136.996 342.267C134.551 349.29 131.219 356.261 131.219 356.261Z" fill="#F2F2F2"/>
<path d="M367.781 358.894L369.085 340.736C377.631 336.46 387.091 334.338 396.643 334.551C383.205 344.946 384.281 365.721 374.974 379.94C372.038 384.352 368.146 388.046 363.589 390.749C359.031 393.452 353.925 395.094 348.647 395.553L337.463 401.992C336.183 393.53 336.752 384.891 339.131 376.671C341.509 368.45 345.64 360.843 351.238 354.374C354.415 350.776 358.032 347.593 362.004 344.9C364.449 351.923 367.781 358.894 367.781 358.894Z" fill="#F2F2F2"/>
<path d="M243.58 153.978C250.482 153.978 256.077 148.379 256.077 141.472C256.077 134.566 250.482 128.967 243.58 128.967C236.679 128.967 231.084 134.566 231.084 141.472C231.084 148.379 236.679 153.978 243.58 153.978Z" fill="#388E3C"/>
<path d="M249.996 136.261C249.808 136.081 249.558 135.981 249.298 135.981C249.038 135.981 248.788 136.081 248.6 136.261C245.949 138.377 243.567 140.811 241.509 143.509C241.004 142.531 240.498 141.552 239.993 140.574C239.41 139.445 237.707 140.442 238.289 141.571C239.028 143.002 239.767 144.433 240.506 145.864C240.595 146.01 240.721 146.13 240.87 146.214C241.019 146.298 241.187 146.342 241.358 146.342C241.529 146.342 241.697 146.298 241.847 146.214C241.996 146.13 242.121 146.01 242.21 145.864C244.403 142.772 247.025 140.009 249.996 137.657C250.179 137.471 250.282 137.22 250.282 136.959C250.282 136.697 250.179 136.446 249.996 136.261Z" fill="white"/>
<path d="M187.663 176.934L168.818 147.318L190.64 135.623L196.368 158.218L236.723 180.04C238.316 179.467 240.042 179.369 241.69 179.76C243.337 180.151 244.836 181.013 246.002 182.241C247.169 183.469 247.953 185.01 248.259 186.677C248.566 188.343 248.381 190.063 247.728 191.626C247.074 193.189 245.98 194.528 244.579 195.48C243.178 196.432 241.531 196.955 239.838 196.987C238.145 197.018 236.48 196.555 235.045 195.655C233.61 194.756 232.468 193.458 231.757 191.92L187.663 176.934Z" fill="#A0616A"/>
<path d="M155.05 111.797C149.129 120.497 170.171 152.119 170.171 152.119C171.196 149.908 180.995 174.739 182.637 173.272C187.301 169.103 194.604 157.491 198.662 156.973C200.984 156.677 193.279 140.204 193.279 140.204C193.279 140.204 189.758 130.476 184.98 118.05C183.694 114.512 181.535 111.357 178.703 108.878C175.87 106.4 172.458 104.679 168.782 103.876C168.782 103.876 160.971 103.097 155.05 111.797Z" fill="#3F3D56"/>
<path d="M155.339 395.236L164.289 395.235L168.547 360.69L155.337 360.691L155.339 395.236Z" fill="#A0616A"/>
<path d="M153.056 392.311L155.575 392.311L165.41 388.309L170.682 392.311H170.682C173.661 392.311 176.518 393.495 178.624 395.603C180.731 397.711 181.914 400.57 181.915 403.551V403.916L153.057 403.917L153.056 392.311Z" fill="#2F2E41"/>
<path d="M196.918 395.236L205.868 395.235L210.126 360.69L196.917 360.691L196.918 395.236Z" fill="#A0616A"/>
<path d="M194.635 392.311L197.155 392.311L206.99 388.309L212.261 392.311H212.262C215.241 392.311 218.098 393.495 220.204 395.603C222.31 397.711 223.494 400.57 223.494 403.551V403.916L194.636 403.917L194.635 392.311Z" fill="#2F2E41"/>
<path d="M200.792 206.376L142.579 207.832C131.523 213.841 131.355 226.848 134.977 242.29C134.977 242.29 133.754 251.468 136.2 253.916C138.646 256.363 139.869 256.363 138.646 260.646C137.423 264.93 143.884 271.925 143.1 272.711C142.315 273.496 140.48 277.779 140.48 277.779L146.595 312.657C146.595 312.657 150.875 373.234 152.098 374.457C153.321 375.681 154.544 374.457 153.321 377.517C152.098 380.576 150.875 379.353 152.098 380.576C153.181 381.745 154.202 382.971 155.155 384.248H169.939C169.939 384.248 171.054 378.129 171.054 377.517C171.054 376.905 172.276 373.234 172.276 372.622C172.276 372.01 171.196 370.928 171.196 370.928C170.822 369.684 170.57 368.407 170.442 367.115C170.442 365.891 166.773 318.776 166.773 318.776L174.111 257.587L191.843 317.552C191.843 317.552 191.843 370.174 193.066 371.398C194.289 372.622 194.289 372.01 193.678 374.457C193.066 376.905 190.62 376.293 192.455 378.129C194.289 379.964 194.9 376.905 194.289 379.965L193.678 383.024L212.021 383.286C212.021 383.286 214.467 378.129 213.244 376.293C212.021 374.458 212.095 374.959 213.587 371.955C215.079 368.951 215.69 368.339 215.079 367.727C214.467 367.115 214.467 363.86 214.467 363.86L211.41 305.314C211.41 305.314 210.799 243.514 210.799 241.678C210.752 240.733 210.926 239.791 211.306 238.925V236.433L208.964 227.604L200.792 206.376Z" fill="#2F2E41"/>
<path d="M165.823 85.2451C175.812 85.2451 183.91 77.1414 183.91 67.1451C183.91 57.1488 175.812 49.0452 165.823 49.0452C155.833 49.0452 147.735 57.1488 147.735 67.1451C147.735 77.1414 155.833 85.2451 165.823 85.2451Z" fill="#A0616A"/>
<path d="M174.866 97.208C178.763 99.5262 181.094 103.786 182.432 108.12C184.909 116.144 186.401 124.441 186.873 132.826L188.286 157.93L205.79 211.384C190.62 224.229 133.598 214.304 133.598 214.304C133.598 214.304 131.847 213.72 133.598 211.968C135.348 210.217 137.052 211.768 135.302 210.017C133.552 208.265 134.758 210.217 135.342 208.465C135.925 206.713 135.342 207.881 134.758 207.297C134.175 206.713 139.275 201.458 139.275 201.458L134.607 170.775L128.773 108.885C135.774 100.127 149.855 94.9645 149.855 94.9645L153.494 88.4109L171.686 89.8672L174.866 97.208Z" fill="#3F3D56"/>
<path d="M180.733 57.5289C182.139 58.5782 183.18 60.0422 183.711 61.7149C183.914 58.9814 183.927 56.2369 183.749 53.5016C183.536 51.5794 182.184 51.1471 180.618 50.6461C179.204 50.1935 177.605 49.6822 177.174 47.8162C171.489 42.2813 161.591 42.5604 154.818 44.4911C151.09 45.5535 148.946 46.9184 148.754 47.7181L148.714 47.8827L148.563 47.9584C145.69 49.3959 145.13 53.9353 145.167 57.4902C145.237 64.1878 147.548 71.7946 148.85 72.4125C148.919 72.4452 148.937 72.4324 148.966 72.4075C150.927 70.8399 153.318 72.5267 154.369 73.4436C154.989 69.281 156.985 65.4462 160.038 62.5519C163.092 59.6576 167.026 57.8706 171.213 57.4763C172.581 57.3441 173.937 57.1165 175.273 56.7951C175.951 56.6197 176.647 56.5282 177.347 56.5228C178.552 56.5045 179.733 56.8556 180.733 57.5289Z" fill="#2F2E41"/>
<path d="M293.017 220.798L327.81 185.442L336.977 157.164L322.226 151.193C314.918 158.569 307.396 181.15 307.396 181.15L283.648 213.045C283.458 213.115 283.269 213.19 283.083 213.278C281.99 213.795 281.048 214.585 280.349 215.572C279.65 216.559 279.217 217.71 279.092 218.914C278.968 220.117 279.156 221.332 279.637 222.442C280.119 223.552 280.879 224.518 281.843 225.248C282.808 225.978 283.944 226.447 285.142 226.609C286.34 226.771 287.56 226.621 288.683 226.174C289.807 225.727 290.796 224.997 291.555 224.055C292.314 223.113 292.818 221.992 293.017 220.798Z" fill="#FFB8B8"/>
<path d="M318.202 154.428L336.857 159.828L336.926 159.815C343.784 158.482 349.208 147.078 352.551 137.747C353.651 134.669 353.541 131.288 352.245 128.287C350.949 125.287 348.563 122.89 345.569 121.583C343.354 120.634 340.918 120.323 338.536 120.687C336.154 121.05 333.92 122.073 332.089 123.64L322.788 131.655L318.202 154.428Z" fill="#388E3C"/>
<path d="M302.241 394.185L292.208 394.184L287.435 355.46L302.242 355.461L302.241 394.185Z" fill="#FFB8B8"/>
<path d="M304.8 390.907L301.976 390.907L290.951 386.42L285.042 390.906H285.041C281.702 390.906 278.499 392.234 276.138 394.597C273.776 396.96 272.45 400.165 272.45 403.506V403.916L304.799 403.917L304.8 390.907Z" fill="#2F2E41"/>
<path d="M346.758 394.185L336.725 394.184L331.952 355.46L346.76 355.461L346.758 394.185Z" fill="#FFB8B8"/>
<path d="M349.317 390.907L346.493 390.907L335.468 386.42L329.559 390.906H329.558C326.219 390.906 323.016 392.234 320.655 394.597C318.294 396.96 316.967 400.165 316.967 403.506V403.916L349.317 403.917L349.317 390.907Z" fill="#2F2E41"/>
<path d="M362.056 227.384C362.056 227.384 363.227 241.451 360.299 254.933C357.37 268.415 357.37 306.384 357.37 306.384L350.927 380.372L331.597 378.613L326.325 254.933L307.581 296.551L309.338 302.412L306.998 303.878C306.998 303.878 308.752 315.308 307.581 315.308C306.409 315.308 303.481 317.066 303.481 317.066L305.824 377.441L285.908 376.855L278.879 291.861L286.494 243.21L287.08 233.831L289.715 233.94L291.058 230.021L293.523 223.281L362.056 227.384Z" fill="#2F2E41"/>
<path d="M363.068 230.338L363.173 230.192C368.748 222.381 360.363 203.61 359.098 200.889L364.425 199.159L363.225 188.956L362.657 184.407L366.729 180.333L366.74 180.231L369.083 159.715L372.49 146.089C373.773 140.938 373.664 135.538 372.173 130.443C370.682 125.348 367.862 120.742 364.005 117.097L356.13 109.668L346.56 95.4976H331.127L325.836 105.499C320.706 106.686 316.154 109.636 312.974 113.835C309.794 118.035 308.186 123.218 308.432 128.481L309.631 154.713L304.936 187.374L304.934 193.285L299.65 199.161L300.804 204.934L296.783 206.658L295.007 214.949C294.273 215.919 289.423 222.391 289.423 224.16C289.423 224.425 289.619 224.682 290.039 224.967C293.344 227.207 311.612 231.772 319.698 228.535C328.31 225.089 362.546 230.258 362.891 230.311L363.068 230.338Z" fill="#388E3C"/>
<path d="M336.85 90.9235C348.138 90.9235 357.289 81.7664 357.289 70.4706C357.289 59.1749 348.138 50.0178 336.85 50.0178C325.562 50.0178 316.412 59.1749 316.412 70.4706C316.412 81.7664 325.562 90.9235 336.85 90.9235Z" fill="#FFB8B8"/>
<path d="M334.892 91.2546C338.058 91.2222 341.214 90.9193 344.328 90.3493C347.411 89.6386 354.212 84.3758 356.066 81.2667C357.443 78.9566 358.269 75.3836 358.72 72.7931C359.329 69.3647 359.212 65.8466 358.376 62.4666C357.54 59.0865 356.004 55.9198 353.867 53.1716C353.043 52.0203 351.924 51.1132 350.627 50.5462C350.512 50.5047 350.395 50.4684 350.276 50.4377C348.396 49.9944 346.692 48.9991 345.382 47.5796C345.128 47.2922 344.853 47.0235 344.56 46.7756C343.09 45.5981 341.363 44.7854 339.519 44.4038C336.541 43.688 332.28 44.585 326.856 47.0722C324.131 48.3218 321.106 47.9731 318.775 47.5298C318.644 47.508 318.51 47.5209 318.386 47.5671C318.262 47.6133 318.152 47.6912 318.067 47.7931C317.105 48.7452 315.818 49.2975 314.465 49.3389C313.637 49.3968 312.798 50.5674 311.785 52.0917C311.556 52.4377 311.288 52.8416 311.093 53.088L311.054 52.6252L310.599 53.1544C309.883 53.9861 309.389 54.9856 309.163 56.0597C308.937 57.1338 308.987 58.2477 309.307 59.2976C309.627 60.3475 310.208 61.2992 310.994 62.0642C311.781 62.8292 312.748 63.3825 313.806 63.6727C314.645 63.8731 315.503 63.9872 316.365 64.0133C316.888 64.0467 317.429 64.0814 317.948 64.1578C319.617 64.455 321.18 65.18 322.484 66.2621C323.789 67.3442 324.791 68.7463 325.393 70.3317C325.535 70.698 325.759 71.0268 326.048 71.2927C326.337 71.5585 326.684 71.7544 327.061 71.865C327.437 71.9756 327.834 71.9981 328.221 71.9308C328.608 71.8634 328.974 71.708 329.292 71.4765C329.82 71.0428 330.444 70.7434 331.113 70.6036C331.781 70.4639 332.474 70.488 333.131 70.674C333.702 70.9729 334.154 71.4594 334.409 72.0518C334.719 72.7112 335.217 73.2635 335.841 73.6383C337.969 74.6675 338.237 79.4635 337.587 83.4842C336.959 87.3598 335.594 90.187 334.267 90.3593C333.245 90.4918 333.13 90.5676 333.06 90.7508L332.998 90.9148L333.117 91.0637C333.688 91.2543 334.294 91.3194 334.892 91.2546Z" fill="#2F2E41"/>
<path d="M317.935 156.615L308.111 144.088C298.104 146.846 280.347 162.684 280.347 162.684L243.882 178.52C242.665 178.315 241.415 178.435 240.259 178.867C239.103 179.299 238.081 180.028 237.296 180.981C236.511 181.935 235.991 183.078 235.788 184.296C235.585 185.514 235.706 186.764 236.14 187.921C236.573 189.077 237.303 190.099 238.256 190.883C239.21 191.667 240.353 192.187 241.57 192.388C242.788 192.59 244.037 192.467 245.192 192.032C246.347 191.597 247.367 190.866 248.15 189.911L295.919 176.575L317.935 156.615Z" fill="#FFB8B8"/>
<path d="M315.581 159.479L331.082 142.187L331.943 129.934C332.103 127.528 331.587 125.125 330.454 122.997C329.322 120.868 327.616 119.1 325.532 117.89C322.695 116.27 319.349 115.788 316.17 116.542C312.992 117.296 310.218 119.23 308.409 121.952C302.932 130.213 297.04 141.381 300.072 147.678L300.102 147.742L315.581 159.479Z" fill="#388E3C"/>
<path d="M172.706 224.475L132.417 203.826C129.552 202.358 128.602 198.462 130.301 195.142L156.571 143.815C158.27 140.495 161.983 138.989 164.849 140.458L205.138 161.106C208.004 162.575 208.953 166.47 207.254 169.79L180.985 221.118C179.286 224.438 175.572 225.943 172.706 224.475Z" fill="#E6E6E6"/>
<path d="M165.823 214.982L138.45 200.954C135.766 199.578 134.877 195.93 136.468 192.821L158.292 150.179C159.883 147.069 163.361 145.659 166.045 147.035L199.106 163.979C201.79 165.354 202.679 169.002 201.088 172.111L189.232 195.277C182.144 209.126 177.778 221.11 165.823 214.982Z" fill="white"/>
<path d="M179.356 191.696L155.111 179.27C154.815 179.059 154.604 178.748 154.518 178.394C154.432 178.04 154.476 177.667 154.642 177.343C154.808 177.018 155.085 176.765 155.422 176.628C155.759 176.491 156.135 176.48 156.479 176.598L180.724 189.023C181.02 189.234 181.231 189.546 181.317 189.899C181.404 190.253 181.36 190.626 181.194 190.951C181.028 191.275 180.751 191.528 180.414 191.665C180.076 191.802 179.701 191.813 179.356 191.696Z" fill="#388E3C"/>
<path d="M157.942 187.386L152.409 184.55C152.113 184.339 151.902 184.028 151.816 183.674C151.73 183.32 151.773 182.947 151.939 182.623C152.105 182.298 152.382 182.045 152.72 181.908C153.057 181.771 153.432 181.76 153.777 181.878L159.31 184.713C159.606 184.925 159.817 185.236 159.903 185.59C159.989 185.943 159.945 186.317 159.779 186.641C159.614 186.965 159.337 187.219 158.999 187.355C158.662 187.492 158.287 187.503 157.942 187.386Z" fill="#388E3C"/>
<path d="M165.039 197.688L149.707 189.83C149.41 189.619 149.2 189.308 149.113 188.954C149.027 188.6 149.071 188.227 149.237 187.903C149.403 187.579 149.68 187.325 150.017 187.188C150.355 187.051 150.73 187.041 151.074 187.158L166.407 195.016C166.703 195.227 166.914 195.538 167 195.892C167.086 196.246 167.042 196.619 166.877 196.943C166.711 197.267 166.434 197.521 166.096 197.658C165.759 197.795 165.384 197.806 165.039 197.688Z" fill="#388E3C"/>
<path d="M188.951 172.949L164.706 160.524C164.409 160.312 164.199 160.001 164.112 159.647C164.026 159.294 164.07 158.92 164.236 158.596C164.402 158.272 164.679 158.018 165.016 157.882C165.354 157.745 165.729 157.734 166.073 157.851L190.318 170.277C190.615 170.488 190.825 170.799 190.912 171.153C190.998 171.507 190.954 171.88 190.788 172.204C190.622 172.528 190.345 172.782 190.008 172.919C189.67 173.056 189.295 173.066 188.951 172.949Z" fill="#388E3C"/>
<path d="M167.536 168.64L162.003 165.804C161.707 165.592 161.496 165.281 161.41 164.928C161.324 164.574 161.368 164.2 161.534 163.876C161.699 163.552 161.976 163.298 162.314 163.162C162.651 163.025 163.026 163.014 163.371 163.131L168.904 165.967C169.2 166.178 169.411 166.489 169.497 166.843C169.583 167.197 169.54 167.57 169.374 167.894C169.208 168.219 168.931 168.472 168.593 168.609C168.256 168.746 167.881 168.757 167.536 168.64Z" fill="#388E3C"/>
<path d="M174.633 178.942L159.301 171.084C159.004 170.873 158.794 170.562 158.708 170.208C158.621 169.854 158.665 169.481 158.831 169.157C158.997 168.832 159.274 168.579 159.611 168.442C159.949 168.305 160.324 168.294 160.669 168.411L176.001 176.269C176.298 176.481 176.508 176.792 176.594 177.146C176.681 177.5 176.637 177.873 176.471 178.197C176.305 178.521 176.028 178.775 175.691 178.912C175.353 179.048 174.978 179.059 174.633 178.942Z" fill="#388E3C"/>
<path d="M139.321 179.789L130.219 145.881L154.541 141.273L153.233 164.548L185.191 197.476C186.883 197.407 188.558 197.832 190.013 198.699C191.468 199.566 192.639 200.838 193.384 202.36C194.128 203.882 194.415 205.588 194.207 207.269C194 208.951 193.309 210.536 192.217 211.831C191.125 213.126 189.68 214.076 188.058 214.563C186.437 215.051 184.708 215.056 183.084 214.577C181.46 214.099 180.009 213.158 178.91 211.869C177.811 210.58 177.11 208.999 176.894 207.318L139.321 179.789Z" fill="#A0616A"/>
<path d="M127.73 107.863C119.474 114.385 130.071 150.867 130.071 150.867C131.711 149.065 133.618 175.694 135.623 174.787C141.322 172.21 151.768 163.324 155.796 164.048C158.099 164.463 155.686 146.435 155.686 146.435C155.686 146.435 155.242 136.098 154.408 122.81C154.242 119.049 153.127 115.391 151.168 112.177C149.209 108.963 146.47 106.297 143.204 104.427C143.204 104.427 135.986 101.341 127.73 107.863Z" fill="#3F3D56"/>
<path d="M265.101 255.05L243.115 244.661C242.645 244.44 242.231 244.116 241.904 243.712C241.577 243.308 241.346 242.835 241.227 242.329C241.108 241.834 241.103 241.318 241.211 240.821C241.32 240.323 241.539 239.857 241.854 239.456C248.222 231.311 252.595 221.786 254.622 211.645C254.775 210.869 255.193 210.169 255.804 209.666C256.414 209.164 257.181 208.888 257.972 208.887C269.184 208.925 277.565 213.022 282.878 221.063C283.159 221.481 283.344 221.956 283.422 222.453C283.501 222.951 283.47 223.459 283.331 223.943C280.254 234.556 275.572 244.634 269.448 253.829C268.993 254.524 268.302 255.031 267.503 255.256C266.704 255.48 265.85 255.407 265.101 255.05Z" fill="#E6E6E6"/>
<path d="M271.568 240.479L254.758 232.536C254.34 232.338 254.017 231.982 253.861 231.547C253.705 231.111 253.728 230.631 253.926 230.213C254.123 229.794 254.479 229.471 254.914 229.315C255.349 229.159 255.829 229.182 256.247 229.38L273.057 237.323C273.264 237.421 273.45 237.559 273.604 237.729C273.758 237.898 273.877 238.097 273.954 238.312C274.032 238.528 274.066 238.757 274.055 238.986C274.043 239.215 273.987 239.439 273.89 239.646C273.792 239.854 273.654 240.04 273.485 240.194C273.315 240.348 273.117 240.467 272.901 240.544C272.686 240.621 272.457 240.655 272.228 240.644C271.999 240.633 271.775 240.577 271.568 240.479Z" fill="white"/>
<path d="M274.18 234.945L257.369 227.002C256.951 226.804 256.628 226.448 256.472 226.013C256.316 225.577 256.339 225.097 256.537 224.679C256.734 224.26 257.09 223.937 257.525 223.781C257.961 223.625 258.44 223.648 258.858 223.846L275.669 231.789C276.087 231.987 276.41 232.343 276.566 232.778C276.722 233.214 276.699 233.694 276.501 234.112C276.304 234.531 275.948 234.854 275.513 235.01C275.077 235.166 274.598 235.143 274.18 234.945Z" fill="white"/>
<path d="M251.717 61.2213L250.152 61.3929C243.176 33.9568 229.652 14.9493 211.043 6.42503C187.386 -4.41085 158.133 2.86564 128.673 26.9144C99.0627 51.0859 72.8501 89.2664 54.864 134.425L53.3457 133.729C71.4107 88.3739 97.7579 50.0089 127.534 25.703C157.459 1.27423 187.309 -6.05562 211.585 5.06397C230.728 13.8325 244.605 33.2515 251.717 61.2213Z" fill="#F2F2F2"/>
<path d="M79.0802 96.9534C74.988 105.58 71.0957 114.517 67.5113 123.517C46.8845 175.304 36.4318 228.193 37.286 276.468L35.6739 276.296C34.8188 227.841 45.3016 174.77 65.993 122.821C69.5877 113.797 73.4911 104.834 77.595 96.1831L79.0802 96.9534Z" fill="#F2F2F2"/>
<path d="M78.3064 132.537C74.2143 141.164 70.322 150.101 66.7375 159.101C46.1108 210.888 35.658 263.777 36.5122 312.052L34.9001 311.88C34.0451 263.425 44.5279 210.354 65.2192 158.405C68.814 149.381 72.7173 140.418 76.8213 131.767L78.3064 132.537Z" fill="#F2F2F2"/>
<path d="M34.9776 145.479C36.7597 142.798 35.7049 138.961 32.6216 136.909C29.5384 134.856 25.5943 135.365 23.8122 138.045C22.0302 140.726 23.085 144.563 26.1682 146.615C29.2514 148.668 33.1955 148.159 34.9776 145.479Z" fill="#CCCCCC"/>
<path d="M414.45 242.278C416.232 239.597 415.177 235.76 412.094 233.708C409.01 231.655 405.066 232.164 403.284 234.844C401.502 237.525 402.557 241.362 405.64 243.414C408.723 245.467 412.668 244.958 414.45 242.278Z" fill="#CCCCCC"/>
</g>
<defs>
<clipPath id="clip0_5_1240">
<rect width="499" height="405" fill="white"/>
</clipPath>
</defs>
</svg>
