<svg width="146" height="118" viewBox="0 0 146 118" fill="none" xmlns="http://www.w3.org/2000/svg">
<g clip-path="url(#clip0_4_353)">
<path d="M21.6444 83.3683C21.5246 83.1678 21.3665 82.9989 21.1812 82.8733C20.996 82.7477 20.7881 82.6685 20.5721 82.6414C20.3562 82.6142 20.1375 82.6397 19.9314 82.716C19.7254 82.7924 19.537 82.9178 19.3795 83.0833L14.6851 80.4053L14.9769 83.4222L19.39 85.5028C19.6592 85.7768 20.0099 85.9321 20.3758 85.9394C20.7416 85.9466 21.0971 85.8053 21.375 85.5422C21.6529 85.2791 21.8338 84.9125 21.8834 84.5118C21.9331 84.1111 21.848 83.7042 21.6444 83.3683Z" fill="#A0616A"/>
<path d="M17.4724 84.5827C17.3874 84.6258 17.2953 84.6486 17.2018 84.6497C17.1084 84.6508 17.0157 84.6301 16.93 84.5891L12.471 82.4512C10.9463 81.7205 9.71372 80.4026 9.00245 78.7426L6.65823 73.2737C6.48523 73.0281 6.35773 72.7471 6.28304 72.447C6.20834 72.1468 6.18791 71.8334 6.22291 71.5245C6.25791 71.2156 6.34766 70.9174 6.48702 70.6468C6.62638 70.3763 6.81262 70.1388 7.03509 69.9479C7.25757 69.757 7.51191 69.6164 7.78357 69.5342C8.05523 69.4521 8.33889 69.4299 8.61832 69.4689C8.89775 69.508 9.16747 69.6075 9.41206 69.7619C9.65665 69.9163 9.87131 70.1224 10.0438 70.3685L14.1643 78.8181L17.9691 81.9947C18.078 82.0861 18.1589 82.2122 18.2009 82.356C18.2428 82.4998 18.2438 82.6544 18.2037 82.7988L17.8302 84.132C17.7901 84.2749 17.7116 84.401 17.605 84.4933C17.5641 84.5288 17.5196 84.5588 17.4724 84.5827Z" fill="#CCCCCC"/>
<path d="M6.55505 66.8421C8.56039 66.8421 10.186 65.0454 10.186 62.829C10.186 60.6126 8.56039 58.8159 6.55505 58.8159C4.54972 58.8159 2.92407 60.6126 2.92407 62.829C2.92407 65.0454 4.54972 66.8421 6.55505 66.8421Z" fill="#A0616A"/>
<path d="M8.02583 115.473L9.83814 115.473L10.7005 107.747L8.02539 107.747L8.02583 115.473Z" fill="#A0616A"/>
<path d="M13.3336 117.333L7.63742 117.334L7.63732 114.901L11.1327 114.901C11.7164 114.901 12.2762 115.157 12.6889 115.613C13.1017 116.069 13.3336 116.688 13.3336 117.333Z" fill="#2F2E41"/>
<path d="M2.11244 115.473L3.92475 115.473L4.78708 107.747L2.112 107.747L2.11244 115.473Z" fill="#A0616A"/>
<path d="M7.42022 117.333L1.72403 117.334L1.72393 114.901L5.21932 114.901C5.80301 114.901 6.36281 115.157 6.77556 115.613C7.1883 116.069 7.4202 116.688 7.42022 117.333Z" fill="#2F2E41"/>
<path d="M1.47952 113.262C1.41707 113.183 1.37058 113.09 1.34317 112.99C1.31576 112.89 1.30807 112.784 1.32059 112.68L4.49381 86.3765L12.3777 87.8563L13.219 87.2983L11.0433 112.255C11.0252 112.424 10.9551 112.58 10.8447 112.698C10.7344 112.816 10.5907 112.889 10.4377 112.903L8.05052 113.123C7.95562 113.132 7.86011 113.118 7.77047 113.082C7.68083 113.047 7.59914 112.99 7.53093 112.917C7.46272 112.843 7.40958 112.755 7.3751 112.657C7.34063 112.558 7.32562 112.453 7.33109 112.348L7.94914 100.463C7.95023 100.442 7.94451 100.423 7.93307 100.407C7.92164 100.391 7.90531 100.38 7.88725 100.377C7.86918 100.374 7.85067 100.378 7.83529 100.389C7.8199 100.4 7.80875 100.417 7.80398 100.437L4.74629 112.969C4.70805 113.125 4.62446 113.262 4.50839 113.361C4.39232 113.459 4.25021 113.512 4.10399 113.513H1.98005C1.88525 113.513 1.79155 113.49 1.70522 113.447C1.6189 113.404 1.54194 113.341 1.47952 113.262Z" fill="#2F2E41"/>
<path d="M6.93939 88.2177C6.8489 88.1271 6.73258 88.0744 6.61061 88.0688C6.48865 88.0632 6.36875 88.1049 6.27175 88.1869L4.69555 89.5419C4.60978 89.6158 4.5089 89.6654 4.40175 89.6862C4.29461 89.707 4.18449 89.6984 4.08105 89.6612C3.97761 89.624 3.88401 89.5593 3.80847 89.4728C3.73293 89.3862 3.67775 89.2806 3.64779 89.165C2.87465 86.1724 1.12301 78.6396 1.55453 73.3378C1.79913 70.3326 4.14713 68.0486 6.78863 68.2402C8.59452 68.3733 9.78258 69.5247 10.3198 71.6624C11.6389 76.9109 13.0885 86.5383 13.3657 88.415C13.3876 88.5606 13.3691 88.7102 13.3128 88.844C13.2564 88.9778 13.1648 89.0896 13.0499 89.1648C12.3041 89.6596 11.452 89.9247 10.5822 89.9323C9.52975 89.9323 8.26781 89.5273 6.93939 88.2177Z" fill="#CCCCCC"/>
<path d="M7.53413 90.0848C7.55178 89.8454 7.52172 89.6046 7.44607 89.3794C7.37042 89.1542 7.25102 88.9501 7.09627 88.7814C6.94153 88.6128 6.75521 88.4837 6.55044 88.4032C6.34566 88.3228 6.12742 88.2929 5.91107 88.3157L3.71249 83.0066L2.25757 85.5796L4.56843 90.2268C4.62724 90.6259 4.81648 90.9874 5.1003 91.2426C5.38411 91.4978 5.74278 91.6291 6.10834 91.6116C6.4739 91.5941 6.82096 91.429 7.08374 91.1476C7.34652 90.8662 7.50677 90.488 7.53413 90.0848Z" fill="#A0616A"/>
<path d="M3.57331 88.1948C3.48243 88.1707 3.39714 88.1258 3.32299 88.063C3.24885 88.0001 3.1875 87.9207 3.14295 87.8299L0.827969 83.1063C0.0362807 81.4915 -0.197732 79.6137 0.169461 77.8224L1.37852 71.9202C1.37962 71.6089 1.43621 71.301 1.54505 71.0139C1.6539 70.7269 1.81287 70.4663 2.01287 70.2472C2.21287 70.0281 2.44999 69.8547 2.71066 69.7369C2.97134 69.6191 3.25046 69.5593 3.53207 69.5608C3.81368 69.5623 4.09226 69.6252 4.35188 69.7458C4.6115 69.8664 4.84707 70.0423 5.04513 70.2636C5.24319 70.4849 5.39984 70.7471 5.50615 71.0353C5.61245 71.3235 5.66631 71.6321 5.66466 71.9433L4.18905 81.4025L5.40923 86.4972C5.44392 86.6434 5.43717 86.7978 5.38988 86.9395C5.34259 87.0813 5.25704 87.2036 5.14482 87.2899L4.10657 88.0842C3.99519 88.1694 3.86298 88.2149 3.72756 88.2149C3.67561 88.215 3.62383 88.2082 3.57331 88.1948Z" fill="#CCCCCC"/>
<path opacity="0.2" d="M5.37013 75.9324L4.03961 82.1413L5.96147 87.3698L4.63095 82.3047L5.37013 75.9324Z" fill="black"/>
<path d="M4.48305 66.129C4.16006 66.1357 3.83909 66.0715 3.53868 65.9402C3.4065 65.8839 3.26929 65.8376 3.13735 65.7813C1.97216 65.2837 1.2046 63.9122 1.17711 62.532C1.14962 61.1517 1.79635 59.8121 2.75668 58.9292C3.71701 58.0463 4.96088 57.5931 6.20641 57.4883C7.54804 57.3754 9.05877 57.7514 9.80846 58.9863C10.008 59.315 10.1476 59.7138 10.0293 60.1107C9.99391 60.2304 9.93066 60.3378 9.84589 60.4221C9.51109 60.7513 9.17731 60.5038 8.83601 60.4819C8.36689 60.4518 7.94554 60.8715 7.7941 61.3632C7.64266 61.8548 7.70933 62.3961 7.8316 62.8975C7.92476 63.1993 7.98348 63.5127 8.00642 63.8305C8.01629 63.9899 7.98917 64.1494 7.92763 64.2939C7.86609 64.4385 7.77218 64.5632 7.65478 64.6564C7.36164 64.8522 6.97667 64.7389 6.68336 64.5434C6.39004 64.3479 6.1366 64.076 5.81977 63.9321C5.50294 63.7882 5.07728 63.8202 4.89287 64.1392C4.83427 64.2553 4.7946 64.3818 4.77569 64.5131C4.61037 65.3456 4.64837 65.2966 4.48305 66.129Z" fill="#2F2E41"/>
<path d="M111.961 38.3254H22.2246C21.8828 38.3258 21.5551 38.476 21.3134 38.7431C21.0717 39.0102 20.9358 39.3724 20.9355 39.7502V106.957C20.9358 107.335 21.0717 107.697 21.3134 107.964C21.5551 108.231 21.8828 108.381 22.2246 108.382H111.961C112.147 108.382 112.331 108.337 112.5 108.251C112.669 108.164 112.82 108.038 112.941 107.882C112.951 107.869 112.96 107.856 112.969 107.842C113.046 107.738 113.108 107.622 113.154 107.498C113.218 107.326 113.252 107.142 113.251 106.957V65.1201H112.883V106.957C112.883 107.156 112.83 107.35 112.731 107.516C112.642 107.661 112.522 107.78 112.382 107.862C112.252 107.936 112.107 107.975 111.961 107.975H22.2246C21.9805 107.974 21.7463 107.867 21.5737 107.676C21.401 107.485 21.3039 107.227 21.3036 106.957V39.7502C21.3039 39.4803 21.401 39.2216 21.5737 39.0308C21.7463 38.8399 21.9805 38.7326 22.2246 38.7323H111.961C112.205 38.7323 112.439 38.8395 112.612 39.0303C112.785 39.2212 112.883 39.4801 112.883 39.7502V48.7809H113.251V39.7502C113.251 39.3722 113.115 39.0098 112.873 38.7426C112.631 38.4755 112.303 38.3254 111.961 38.3254Z" fill="#3F3D56"/>
<path d="M113.066 44.0364H21.119V44.4437H113.066V44.0364Z" fill="#3F3D56"/>
<path d="M24.2514 42.6028C24.862 42.6028 25.357 42.0557 25.357 41.3809C25.357 40.706 24.862 40.1589 24.2514 40.1589C23.6409 40.1589 23.1459 40.706 23.1459 41.3809C23.1459 42.0557 23.6409 42.6028 24.2514 42.6028Z" fill="#CCCCCC"/>
<path d="M27.43 42.6028C28.0406 42.6028 28.5356 42.0557 28.5356 41.3809C28.5356 40.706 28.0406 40.1589 27.43 40.1589C26.8194 40.1589 26.3244 40.706 26.3244 41.3809C26.3244 42.0557 26.8194 42.6028 27.43 42.6028Z" fill="#CCCCCC"/>
<path d="M30.6085 42.6028C31.2191 42.6028 31.7141 42.0557 31.7141 41.3809C31.7141 40.706 31.2191 40.1589 30.6085 40.1589C29.9979 40.1589 29.5029 40.706 29.5029 41.3809C29.5029 42.0557 29.9979 42.6028 30.6085 42.6028Z" fill="#CCCCCC"/>
<path d="M52.993 96C52.6148 95.9982 52.243 95.9001 51.9113 95.7147C51.5795 95.5292 51.2983 95.2622 51.0931 94.9378C50.8879 94.6135 50.7652 94.242 50.7361 93.857C50.707 93.472 50.7724 93.0857 50.9264 92.733L53.5439 86.7709C51.4825 84.9094 49.8328 82.6213 48.7045 80.0586C47.5762 77.4958 46.9952 74.7173 47 71.9076C47 60.9307 55.7476 52 66.5 52C77.2524 52 86 60.9307 86 71.9076C86 82.8845 77.2524 91.8152 66.5 91.8152C64.6191 91.8133 62.7484 91.532 60.9468 90.9801L54.2665 95.5972C53.8911 95.8587 53.4475 95.999 52.993 96ZM66.5 54.7778C63.0201 54.7757 59.6258 55.879 56.7875 57.9345C53.9493 59.9901 51.8077 62.8962 50.6597 66.25C49.5117 69.6038 49.4142 73.2391 50.3806 76.652C51.347 80.0649 53.3294 83.0863 56.0532 85.2975L56.8778 85.9689L54.0614 92.3844L60.5245 87.9175L61.1627 88.1363C63.4681 88.927 65.9143 89.1965 68.3318 88.926C70.7494 88.6556 73.0804 87.8517 75.1633 86.5701C77.2463 85.2885 79.0314 83.5598 80.3949 81.5039C81.7583 79.448 82.6676 77.1139 83.0597 74.6636C83.4517 72.2132 83.3172 69.7051 82.6654 67.3131C82.0136 64.9211 80.8601 62.7024 79.2848 60.8107C77.7096 58.9191 75.7503 57.3998 73.5427 56.358C71.3351 55.3163 68.932 54.7771 66.5 54.7778Z" fill="#3F3D56"/>
<path d="M66.4062 75.9161C67.9183 75.9161 69.1442 74.5613 69.1442 72.89C69.1442 71.2188 67.9183 69.864 66.4062 69.864C64.8941 69.864 63.6683 71.2188 63.6683 72.89C63.6683 74.5613 64.8941 75.9161 66.4062 75.9161Z" fill="#3F3D56"/>
<path d="M58.6489 75.9161C60.161 75.9161 61.3868 74.5613 61.3868 72.89C61.3868 71.2188 60.161 69.864 58.6489 69.864C57.1368 69.864 55.9109 71.2188 55.9109 72.89C55.9109 74.5613 57.1368 75.9161 58.6489 75.9161Z" fill="#3F3D56"/>
<path d="M74.1637 75.9161C75.6758 75.9161 76.9016 74.5613 76.9016 72.89C76.9016 71.2188 75.6758 69.864 74.1637 69.864C72.6516 69.864 71.4258 71.2188 71.4258 72.89C71.4258 74.5613 72.6516 75.9161 74.1637 75.9161Z" fill="#3F3D56"/>
<path d="M135.256 60.9131H109.237C108.923 60.9131 108.623 60.7754 108.401 60.5303C108.179 60.2851 108.054 59.9526 108.054 59.606C108.054 59.2593 108.179 58.9268 108.401 58.6817C108.623 58.4365 108.923 58.2988 109.237 58.2988H135.256C135.57 58.2988 135.871 58.4365 136.092 58.6817C136.314 58.9268 136.439 59.2593 136.439 59.606C136.439 59.9526 136.314 60.2851 136.092 60.5303C135.871 60.7754 135.57 60.9131 135.256 60.9131Z" fill="#CCCCCC"/>
<path d="M118.255 55.3577H109.237C108.923 55.3577 108.623 55.22 108.401 54.9748C108.179 54.7297 108.054 54.3972 108.054 54.0505C108.054 53.7039 108.179 53.3714 108.401 53.1263C108.623 52.8811 108.923 52.7434 109.237 52.7434H118.255C118.569 52.7434 118.87 52.8811 119.091 53.1263C119.313 53.3714 119.438 53.7039 119.438 54.0505C119.438 54.3972 119.313 54.7297 119.091 54.9748C118.87 55.22 118.569 55.3577 118.255 55.3577Z" fill="#CCCCCC"/>
<path d="M97.4522 62.5059C100.228 62.5059 102.479 60.0187 102.479 56.9506C102.479 53.8825 100.228 51.3953 97.4522 51.3953C94.6762 51.3953 92.4258 53.8825 92.4258 56.9506C92.4258 60.0187 94.6762 62.5059 97.4522 62.5059Z" fill="#388E3C"/>
<path d="M137.864 48.4541H91.0004C90.3342 48.4551 89.6955 48.7481 89.2244 49.2688C88.7533 49.7895 88.4882 50.4954 88.4872 51.2318V62.6692C88.4882 63.4056 88.7533 64.1115 89.2244 64.6322C89.6955 65.1529 90.3342 65.4459 91.0004 65.4469H137.864C138.53 65.4459 139.169 65.1529 139.64 64.6322C140.111 64.1115 140.376 63.4056 140.377 62.6692V51.2318C140.376 50.4954 140.111 49.7895 139.64 49.2688C139.169 48.7481 138.53 48.4551 137.864 48.4541ZM140.082 62.6692C140.081 63.319 139.847 63.9419 139.431 64.4014C139.016 64.8609 138.452 65.1193 137.864 65.1201H91.0004C90.4125 65.1193 89.8489 64.8609 89.4332 64.4014C89.0175 63.9419 88.7836 63.319 88.7829 62.6692V51.2318C88.7836 50.582 89.0175 49.9591 89.4332 49.4996C89.8489 49.0401 90.4125 48.7817 91.0004 48.7809H137.864C138.452 48.7817 139.016 49.0401 139.431 49.4996C139.847 49.9591 140.081 50.582 140.082 51.2318V62.6692Z" fill="#3F3D56"/>
<path d="M140.082 53.029C141.96 53.029 143.482 51.3465 143.482 49.271C143.482 47.1955 141.96 45.5129 140.082 45.5129C138.204 45.5129 136.681 47.1955 136.681 49.271C136.681 51.3465 138.204 53.029 140.082 53.029Z" fill="#388E3C"/>
<path d="M139.977 51.3845C139.963 51.3693 139.952 51.3513 139.945 51.3315C139.938 51.3117 139.934 51.2904 139.934 51.269V47.1097C139.934 47.0663 139.949 47.0248 139.977 46.9941C140.005 46.9635 140.042 46.9463 140.082 46.9463C140.121 46.9463 140.158 46.9635 140.186 46.9941C140.214 47.0248 140.229 47.0663 140.229 47.1097V51.269C140.229 51.3013 140.221 51.3329 140.205 51.3597C140.188 51.3866 140.165 51.4075 140.138 51.4199C140.111 51.4323 140.081 51.4355 140.053 51.4292C140.024 51.4229 139.998 51.4073 139.977 51.3845Z" fill="white"/>
<path d="M138.095 49.3048C138.075 49.2819 138.061 49.2528 138.055 49.2211C138.049 49.1894 138.052 49.1566 138.063 49.1267C138.075 49.0969 138.094 49.0714 138.118 49.0534C138.142 49.0355 138.171 49.0259 138.2 49.0259H141.963C142.002 49.0259 142.04 49.0431 142.068 49.0737C142.096 49.1044 142.111 49.1459 142.111 49.1893C142.111 49.2326 142.096 49.2741 142.068 49.3048C142.04 49.3354 142.002 49.3526 141.963 49.3526H138.2C138.181 49.3527 138.161 49.3485 138.143 49.3402C138.125 49.332 138.109 49.32 138.095 49.3048Z" fill="white"/>
<path d="M144.152 99.2212H137.055C137.055 99.4467 129.74 99.6297 129.74 99.6297C129.625 99.7252 129.52 99.8348 129.428 99.9565C129.15 100.323 128.998 100.786 128.999 101.264V101.59C128.999 102.132 129.194 102.651 129.54 103.034C129.887 103.417 130.357 103.633 130.847 103.633H144.152C144.642 103.632 145.112 103.417 145.458 103.034C145.805 102.651 146 102.132 146 101.59V101.264C145.999 100.722 145.804 100.203 145.458 99.8202C145.112 99.4374 144.642 99.2219 144.152 99.2212Z" fill="#3F3D56"/>
<path d="M138.534 103.552H136.612V117.276H138.534V103.552Z" fill="#3F3D56"/>
<path d="M144.003 117.202C144.003 117.431 141.091 117.291 137.499 117.291C133.906 117.291 130.994 117.431 130.994 117.202C130.994 116.972 133.906 115.152 137.499 115.152C141.091 115.152 144.003 116.972 144.003 117.202Z" fill="#3F3D56"/>
<path d="M138.189 80.8284C140.475 80.8284 142.329 78.7801 142.329 76.2535C142.329 73.7268 140.475 71.6785 138.189 71.6785C135.903 71.6785 134.05 73.7268 134.05 76.2535C134.05 78.7801 135.903 80.8284 138.189 80.8284Z" fill="#2F2E41"/>
<path d="M127.888 115.397L126.076 115.397L125.213 107.67L127.888 107.67L127.888 115.397Z" fill="#FFB8B8"/>
<path d="M124.781 114.824H128.276V117.257H122.58C122.58 116.612 122.812 115.993 123.225 115.537C123.638 115.08 124.197 114.824 124.781 114.824Z" fill="#2F2E41"/>
<path d="M125.059 114.279L123.33 113.679L124.6 106.021L127.152 106.907L125.059 114.279Z" fill="#FFB8B8"/>
<path d="M122.249 112.704L125.584 113.861L124.926 116.182L119.491 114.297C119.665 113.681 120.054 113.168 120.572 112.869C121.089 112.57 121.693 112.511 122.249 112.704Z" fill="#2F2E41"/>
<path d="M139.298 97.8818C139.256 97.4924 139.181 97.1083 139.073 96.7347L138.735 96.2642L137.854 95.042L137.815 95.0436C137.75 95.0469 137.48 95.0632 137.061 95.0992H137.057C136.798 95.1221 136.482 95.1515 136.123 95.189C136.028 95.2005 135.929 95.2103 135.827 95.2217V96.9275H137.675C137.765 96.9277 137.851 96.9639 137.919 97.0294C137.986 97.0949 138.03 97.1853 138.041 97.2837C138.043 97.3017 138.044 97.318 138.044 97.336C138.044 97.4443 138.005 97.5482 137.936 97.6248C137.867 97.7014 137.773 97.7445 137.675 97.7445H126.942C126.805 97.8448 126.674 97.954 126.549 98.0713C126.171 98.3948 125.898 98.8456 125.773 99.3555C125.146 102.401 124.003 108.081 123.666 109.749C123.642 109.875 123.647 110.005 123.682 110.128C123.717 110.25 123.78 110.361 123.866 110.448C123.928 110.513 124.002 110.564 124.083 110.597L125.416 111.149C125.471 111.172 125.528 111.186 125.586 111.193C125.594 111.193 125.6 111.195 125.607 111.195C125.621 111.196 125.635 111.197 125.648 111.197C125.783 111.196 125.915 111.15 126.026 111.066C126.137 110.981 126.222 110.862 126.271 110.723L127.323 107.671L128.945 102.965L129.587 101.104C130.33 101.297 136.569 102.823 138.658 100.364C138.864 100.121 139.027 99.8381 139.137 99.5287C139.313 99.0028 139.368 98.437 139.298 97.8818Z" fill="#2F2E41"/>
<path d="M141.108 98.3262C141.075 98.1808 141.038 98.0305 140.995 97.8785L139.776 96.1858L139.737 96.1874C139.66 96.1923 139.295 96.2136 138.735 96.2642C138.099 96.323 137.211 96.4178 136.213 96.5665C136.183 96.5698 136.152 96.5747 136.123 96.5796C136.025 96.5943 135.926 96.609 135.827 96.6253V96.9276H137.675C137.765 96.9277 137.851 96.9639 137.919 97.0295C137.986 97.095 138.03 97.1854 138.041 97.2838C138.043 97.3018 138.044 97.3181 138.044 97.3361C138.044 97.4444 138.005 97.5483 137.936 97.6249C137.867 97.7015 137.773 97.7445 137.675 97.7446H131.143C130.858 97.8475 130.583 97.9553 130.32 98.0713C128.939 98.6759 127.906 99.4683 127.694 100.499C127.624 100.846 127.545 101.226 127.462 101.632C127.155 103.138 126.781 104.983 126.442 106.659V106.661C126.373 107.007 126.303 107.344 126.237 107.671C125.954 109.076 125.715 110.267 125.588 110.893C125.585 110.911 125.582 110.927 125.579 110.945V110.948C125.564 111.075 125.578 111.204 125.62 111.322L125.622 111.324V111.326C125.662 111.44 125.729 111.54 125.814 111.618C125.871 111.67 125.936 111.712 126.005 111.741L127.338 112.293C127.412 112.324 127.491 112.34 127.57 112.34C127.681 112.341 127.791 112.31 127.888 112.251C128.028 112.167 128.136 112.031 128.193 111.867L131.064 103.54L131.509 102.248C132.252 102.44 138.491 103.965 140.58 101.507C140.992 101.014 141.228 100.371 141.242 99.6987C141.257 99.2365 141.211 98.7743 141.108 98.3262Z" fill="#2F2E41"/>
<path d="M140.943 83.9118C140.92 83.8807 140.895 83.8497 140.868 83.8203C140.474 83.3628 139.988 83.0148 139.449 82.805C138.91 82.5951 138.334 82.5292 137.768 82.6128C137.274 82.6845 136.785 82.791 136.303 82.9314C135.681 83.1082 135.111 83.4613 134.65 83.9559C134.291 84.3406 134.008 84.8037 133.82 85.3156C133.631 85.8275 133.541 86.3771 133.555 86.9296C133.561 87.1535 133.562 87.3822 133.559 87.6143C133.559 87.7221 133.558 87.8316 133.556 87.941H135.014C135.077 87.9408 135.14 87.9491 135.202 87.9655C135.379 88.0125 135.538 88.1243 135.651 88.2829C135.765 88.4414 135.827 88.6376 135.827 88.8397V96.4407C135.926 96.4718 136.025 96.5028 136.123 96.5355C136.154 96.5469 136.183 96.5567 136.213 96.5665C136.247 96.5779 136.281 96.5894 136.313 96.6008C136.613 96.7038 136.907 96.8127 137.193 96.9276H137.675C137.765 96.9277 137.851 96.9639 137.919 97.0295C137.986 97.095 138.03 97.1854 138.042 97.2838C138.142 97.3279 138.24 97.372 138.336 97.4161C138.677 97.573 139.001 97.7299 139.298 97.8818C139.699 98.0844 140.055 98.2772 140.354 98.4455C140.448 98.4984 140.551 98.5264 140.657 98.5272C140.795 98.5267 140.93 98.4775 141.041 98.3867C141.064 98.3678 141.086 98.3477 141.108 98.3262C141.187 98.2443 141.247 98.1422 141.282 98.0288C141.317 97.9155 141.327 97.7944 141.31 97.6759C141.158 96.3925 141.113 95.0961 141.177 93.8035C141.218 92.717 141.307 91.6026 141.423 90.5259C141.485 89.9426 141.554 89.3707 141.627 88.8201C141.696 88.2939 141.77 87.7891 141.842 87.312C141.937 86.707 141.906 86.086 141.75 85.4966C141.594 84.9072 141.318 84.3651 140.943 83.9118Z" fill="#388E3C"/>
<path d="M134.884 84.0456C134.808 84.0096 134.73 83.9796 134.65 83.9557C134.256 83.8385 133.837 83.8818 133.47 84.0776C133.102 84.2735 132.811 84.6089 132.648 85.0227L131.633 87.6141L131.506 87.9409H135.014C135.077 87.9407 135.14 87.9489 135.202 87.9654L135.32 87.6631L135.769 86.5161C135.948 86.0587 135.955 85.5416 135.789 85.0785C135.623 84.6153 135.297 84.2438 134.884 84.0456Z" fill="#388E3C"/>
<path d="M138.038 81.337C140.043 81.337 141.669 79.5402 141.669 77.3239C141.669 75.1075 140.043 73.3108 138.038 73.3108C136.033 73.3108 134.407 75.1075 134.407 77.3239C134.407 79.5402 136.033 81.337 138.038 81.337Z" fill="#FFB8B8"/>
<path d="M134.342 75.3522C136.061 76.5126 138 77.2187 140.008 77.4156L139.41 76.6246C139.845 76.8024 140.303 76.9028 140.766 76.9222C141.229 76.9142 141.714 76.7173 141.976 76.2961C142.093 76.0868 142.163 75.8492 142.179 75.6037C142.195 75.3581 142.157 75.1119 142.069 74.8861C141.887 74.4356 141.603 74.0441 141.246 73.7489C140.612 73.1947 139.864 72.8224 139.068 72.6653C138.273 72.5081 137.454 72.5709 136.686 72.8482C136.159 73.0222 135.687 73.3569 135.324 73.8137C134.98 74.283 134.317 74.7012 134.493 75.2731L134.342 75.3522Z" fill="#2F2E41"/>
<path d="M138.648 72.1136C137.503 70.83 136.117 69.8396 134.588 69.2119C133.607 68.81 132.539 68.5617 131.513 68.7899C130.487 69.0181 129.516 69.8027 129.23 70.9153C128.996 71.8251 129.238 72.8047 129.601 73.6612C129.964 74.5177 130.449 75.3119 130.743 76.2003C131.043 77.1068 131.133 78.0817 131.005 79.0365C130.878 79.9912 130.536 80.8957 130.012 81.6676C129.488 82.4396 128.798 83.0547 128.004 83.457C127.21 83.8594 126.338 84.0363 125.467 83.9716C126.475 84.121 127.404 84.6446 128.39 84.9233C129.375 85.202 130.538 85.1832 131.27 84.4029C132.045 83.5774 132.061 82.2351 132.023 81.0464C131.968 79.2793 131.912 77.5122 131.856 75.7452C131.828 74.844 131.804 73.9139 132.098 73.0728C132.392 72.2317 133.09 71.4951 133.906 71.5028C134.525 71.5086 135.072 71.9226 135.568 72.3309C136.064 72.7391 136.589 73.1747 137.204 73.2355C137.82 73.2962 138.524 72.7924 138.477 72.1109L138.648 72.1136Z" fill="#2F2E41"/>
<path d="M141.626 88.82L139.554 88.8821L139.403 90.4915L139.369 90.864L136.123 92.4751L135.827 92.6221V95.4864L136.123 95.3933L137.057 95.0992H137.061L141.177 93.8035L141.224 93.7888C141.557 93.6826 141.85 93.4607 142.059 93.1561C142.268 92.8514 142.383 92.4802 142.386 92.0976L142.397 90.1974L142.406 88.7971L141.626 88.82Z" fill="#FFB8B8"/>
<path d="M142.301 85.6371C142.273 85.1397 142.068 84.6747 141.73 84.3445C141.392 84.0144 140.949 83.846 140.499 83.8766C140.049 83.9071 139.628 84.1341 139.33 84.5074C139.031 84.8808 138.879 85.37 138.906 85.8675L139.132 89.9458C139.139 90.0531 139.166 90.1577 139.213 90.252C139.26 90.3463 139.324 90.4281 139.403 90.4915C139.528 90.5945 139.682 90.6449 139.838 90.6337L141.422 90.5258L141.903 90.4932C141.99 90.4884 142.076 90.4641 142.155 90.4217C142.234 90.3793 142.304 90.3197 142.361 90.2464C142.374 90.2309 142.386 90.2145 142.397 90.1974C142.491 90.0584 142.537 89.887 142.527 89.7138L142.301 85.6371Z" fill="#388E3C"/>
<path d="M136.313 96.6009H136.123V96.5796C136.025 96.5943 135.926 96.609 135.827 96.6254V96.9276H137.193C136.906 96.8133 136.613 96.7043 136.313 96.6009ZM136.313 96.6009H136.123V96.5796C136.025 96.5943 135.926 96.609 135.827 96.6254V96.9276H137.193C136.906 96.8133 136.613 96.7043 136.313 96.6009ZM137.675 96.6009H136.123V88.8397C136.122 88.574 136.044 88.3157 135.899 88.1035C135.754 87.8914 135.551 87.7369 135.32 87.6633C135.221 87.6302 135.117 87.6137 135.014 87.6143H121.857C121.563 87.6147 121.281 87.7439 121.073 87.9736C120.865 88.2034 120.748 88.5148 120.748 88.8397V96.8459C120.748 97.1709 120.865 97.4825 121.073 97.7123C121.281 97.9421 121.562 98.0713 121.857 98.0714H137.675C137.839 98.0711 137.997 98.0041 138.118 97.8832C138.24 97.7623 138.318 97.5961 138.336 97.4162C138.339 97.3896 138.34 97.3629 138.34 97.3361C138.34 97.1412 138.27 96.9543 138.145 96.8165C138.02 96.6787 137.851 96.6011 137.675 96.6009ZM138.044 97.3361C138.044 97.4444 138.005 97.5483 137.936 97.6249C137.867 97.7015 137.773 97.7446 137.675 97.7446H121.857C121.641 97.7445 121.434 97.6497 121.282 97.4812C121.129 97.3127 121.044 97.0842 121.043 96.8459V88.8397C121.044 88.6014 121.129 88.3729 121.282 88.2044C121.434 88.0359 121.641 87.9412 121.857 87.9411H135.014C135.077 87.9409 135.14 87.9491 135.202 87.9656C135.379 88.0126 135.538 88.1243 135.651 88.2829C135.765 88.4414 135.827 88.6376 135.827 88.8397V96.9276H137.675C137.765 96.9278 137.851 96.964 137.919 97.0295C137.986 97.095 138.03 97.1854 138.041 97.2838C138.043 97.3018 138.044 97.3181 138.044 97.3361ZM136.313 96.6009H136.123V96.5796C136.025 96.5943 135.926 96.609 135.827 96.6254V96.9276H137.193C136.906 96.8133 136.613 96.7043 136.313 96.6009Z" fill="#3F3D56"/>
<path d="M128.435 93.8233C128.925 93.8233 129.322 93.3843 129.322 92.8429C129.322 92.3015 128.925 91.8625 128.435 91.8625C127.945 91.8625 127.548 92.3015 127.548 92.8429C127.548 93.3843 127.945 93.8233 128.435 93.8233Z" fill="#388E3C"/>
<path d="M49.2074 12.3277C49.2041 12.4024 49.2062 12.4772 49.2135 12.5515L44.5712 16.8575L43.1868 16.3035L42.1573 18.5034L45.184 20.0957L50.2591 13.8012C50.5154 13.8526 50.7798 13.8166 51.017 13.6978C51.2543 13.5791 51.4533 13.3834 51.5874 13.1367C51.7216 12.8899 51.7846 12.6039 51.7682 12.3166C51.7517 12.0293 51.6564 11.7544 51.4951 11.5284C51.3338 11.3024 51.1141 11.136 50.8651 11.0514C50.6162 10.9668 50.3498 10.9679 50.1015 11.0547C49.8531 11.1415 49.6346 11.3097 49.4749 11.5371C49.3152 11.7645 49.2219 12.0403 49.2074 12.3277Z" fill="#FFB8B8"/>
<path d="M42.9813 19.5585L38.4984 17.7701C38.0869 17.606 37.7512 17.2678 37.5652 16.8301C37.3792 16.3923 37.3582 15.8909 37.5067 15.436C37.6553 14.9811 37.9613 14.6101 38.3573 14.4046C38.7534 14.199 39.2071 14.1758 39.6186 14.34L44.1015 16.1284C44.1695 16.1555 44.2319 16.1971 44.2853 16.2508C44.3386 16.3046 44.3819 16.3694 44.4126 16.4417C44.4433 16.5139 44.4608 16.5921 44.4641 16.6719C44.4675 16.7516 44.4566 16.8313 44.4321 16.9063L43.6853 19.1932C43.6356 19.3447 43.5336 19.4682 43.4016 19.5367C43.2697 19.6052 43.1185 19.613 42.9813 19.5585Z" fill="#CCCCCC"/>
<path d="M39.6982 36.9809L41.1963 36.9808L41.909 30.5938L39.6979 30.5939L39.6982 36.9809Z" fill="#FFB8B8"/>
<path d="M44.0857 38.5183L39.3771 38.5185L39.377 36.5078L42.2664 36.5077C42.7489 36.5077 43.2117 36.7195 43.5528 37.0966C43.894 37.4736 44.0857 37.985 44.0857 38.5183Z" fill="#2F2E41"/>
<path d="M35.9955 34.8418L37.221 35.7942L41.128 31.0227L39.3193 29.6172L35.9955 34.8418Z" fill="#FFB8B8"/>
<path d="M38.6367 38.562L34.7848 35.5688L35.8312 33.9239L38.1949 35.7607C38.5896 36.0674 38.8579 36.5349 38.9407 37.0602C39.0236 37.5856 38.9142 38.1258 38.6367 38.562Z" fill="#2F2E41"/>
<path d="M42.9764 25.4756C42.9764 25.4756 46.7153 24.988 46.0442 27.6696C45.3731 30.3511 37.8954 32.6669 37.8954 32.6669L42.9764 25.4756Z" fill="#FFB8B8"/>
<path d="M40.403 11.7931C42.0607 11.7931 43.4045 10.3079 43.4045 8.47579C43.4045 6.64367 42.0607 5.15845 40.403 5.15845C38.7454 5.15845 37.4016 6.64367 37.4016 8.47579C37.4016 10.3079 38.7454 11.7931 40.403 11.7931Z" fill="#FFB8B8"/>
<path d="M30.8311 32.1177C29.1232 29.9198 28.5255 26.5464 31.2492 23.7408C31.9219 23.0649 32.6835 22.5059 33.5081 22.0828L35.7032 15.2979C35.9312 14.5894 36.3493 13.9746 36.9016 13.5354C37.454 13.0963 38.1143 12.8538 38.7946 12.8402C39.4551 12.8087 40.1083 13.004 40.6643 13.3992C41.2204 13.7944 41.6521 14.3702 41.9001 15.0475C42.1682 15.7366 42.1989 16.5103 41.9864 17.2226C41.3329 19.4717 40.4748 21.6418 39.4251 23.6995L39.5386 24.7031L45.0871 25.2481L45.0353 25.3411C45.0083 25.3897 42.2928 29.9625 38.8189 32.9978C37.6311 34.0356 36.4028 34.4657 35.2435 34.4656C33.4856 34.4654 31.8868 33.4763 30.8311 32.1177Z" fill="#CCCCCC"/>
<path d="M30.3074 9.51663C30.8384 8.81728 31.0662 7.90254 31.2494 7.01231C31.5393 5.60373 31.7637 4.14722 32.4078 2.89023C33.0518 1.63325 34.2354 0.591715 35.5405 0.670995C36.8381 0.749822 37.8871 1.90365 38.444 3.21647C38.5788 3.15859 38.7232 3.13266 38.8677 3.14036C39.0122 3.14806 39.1536 3.18922 39.2828 3.26117C39.6841 3.50408 39.8342 4.19451 39.5001 4.54014C39.8514 4.35523 40.2341 4.25412 40.6231 4.2434C41.0122 4.23268 41.3989 4.31259 41.7581 4.47793C42.2201 4.69529 42.6189 5.04929 42.9106 5.50096C43.2023 5.95263 43.3756 6.48448 43.4115 7.03799C43.4255 7.26265 43.3976 7.48809 43.3295 7.70034C43.2615 7.91259 43.1547 8.10714 43.0158 8.27192C42.4399 8.92715 41.6254 8.70113 40.9012 8.53422C40.2171 8.37656 39.384 8.334 38.9986 9.05435C38.8467 9.35451 38.8042 9.70741 38.8798 10.041C39.0274 10.7601 39.5091 11.261 39.9764 11.7404L40.0529 11.8973C38.4028 12.253 36.6009 11.0075 36.1681 9.21206C35.7352 7.41665 36.7375 5.34538 38.3289 4.74643C38.223 4.75008 38.1181 4.7224 38.0251 4.66626C37.9321 4.61012 37.8543 4.52755 37.7999 4.42709C37.7454 4.32663 37.7162 4.21192 37.7153 4.09481C37.7143 3.9777 37.7417 3.86243 37.7946 3.76093C37.3541 3.48818 36.8555 3.35071 36.3507 3.36279C35.5287 3.42239 34.8173 4.06911 34.3895 4.8472C33.9617 5.62529 33.768 6.52842 33.5718 7.41269C33.3756 8.29697 33.1632 9.19816 32.7058 9.9554C32.3889 10.4799 31.9656 10.9152 31.4695 11.2268C30.9734 11.5383 30.4183 11.7173 29.8484 11.7496C29.2786 11.782 28.7098 11.6666 28.1875 11.4128C27.6652 11.159 27.2037 10.7738 26.84 10.2879C27.4148 10.596 28.0651 10.6873 28.6913 10.548C29.3175 10.4087 29.8852 10.0464 30.3074 9.51663Z" fill="#2F2E41"/>
<path d="M52.3526 18.5571C54.7622 18.5571 56.7155 16.3982 56.7155 13.7351C56.7155 11.072 54.7622 8.91309 52.3526 8.91309C49.9431 8.91309 47.9897 11.072 47.9897 13.7351C47.9897 16.3982 49.9431 18.5571 52.3526 18.5571Z" fill="#388E3C"/>
<path d="M52.2185 16.447C52.2009 16.4275 52.1869 16.4044 52.1773 16.379C52.1678 16.3535 52.1629 16.3262 52.163 16.2987V10.9618C52.163 10.9062 52.1829 10.8529 52.2185 10.8136C52.2541 10.7743 52.3023 10.7522 52.3526 10.7522C52.4029 10.7522 52.4512 10.7743 52.4868 10.8136C52.5223 10.8529 52.5423 10.9062 52.5423 10.9618V16.2987C52.5423 16.3402 52.5312 16.3807 52.5103 16.4152C52.4895 16.4496 52.4599 16.4765 52.4252 16.4924C52.3906 16.5082 52.3524 16.5124 52.3156 16.5043C52.2788 16.4962 52.245 16.4763 52.2185 16.447Z" fill="white"/>
<path d="M49.8041 13.7785C49.7776 13.7492 49.7596 13.7119 49.7522 13.6712C49.7449 13.6305 49.7487 13.5884 49.763 13.5501C49.7774 13.5118 49.8017 13.479 49.8329 13.456C49.8641 13.433 49.9008 13.4207 49.9383 13.4207H54.767C54.8173 13.4207 54.8656 13.4427 54.9011 13.4821C54.9367 13.5214 54.9567 13.5747 54.9567 13.6303C54.9567 13.6859 54.9367 13.7392 54.9011 13.7785C54.8656 13.8178 54.8173 13.8399 54.767 13.8399H49.9383C49.9134 13.84 49.8887 13.8346 49.8657 13.824C49.8426 13.8135 49.8217 13.798 49.8041 13.7785Z" fill="white"/>
<path d="M49.3578 16.9604C49.3262 17.0264 49.2992 17.0951 49.2773 17.1658L43.4192 18.8827L42.3792 17.7309L40.6013 19.2385L42.7286 22.1017L49.7432 18.7882C49.9554 18.9551 50.2085 19.0467 50.469 19.0507C50.7294 19.0547 50.9848 18.971 51.2011 18.8107C51.4174 18.6504 51.5845 18.4211 51.68 18.1533C51.7756 17.8855 51.7951 17.5919 51.736 17.3115C51.6769 17.0312 51.542 16.7773 51.3492 16.5838C51.1564 16.3903 50.9148 16.2662 50.6567 16.2281C50.3985 16.1899 50.136 16.2396 49.904 16.3704C49.6719 16.5012 49.4815 16.707 49.3578 16.9604Z" fill="#FFB8B8"/>
<path d="M40.9413 20.5808L37.5713 16.8561C37.4176 16.6869 37.2957 16.4859 37.2125 16.2645C37.1292 16.0432 37.0862 15.8058 37.0861 15.5661C37.0859 15.3264 37.1285 15.089 37.2114 14.8675C37.2943 14.646 37.4159 14.4448 37.5693 14.2753C37.7226 14.1058 37.9047 13.9713 38.1051 13.8797C38.3056 13.7881 38.5203 13.741 38.7372 13.7412C38.9541 13.7414 39.1688 13.7889 39.3691 13.8809C39.5694 13.9729 39.7513 14.1077 39.9044 14.2775L43.2744 18.0022C43.3255 18.0586 43.366 18.1256 43.3937 18.1993C43.4213 18.2731 43.4355 18.3521 43.4355 18.4319C43.4355 18.5117 43.4213 18.5908 43.3937 18.6645C43.366 18.7382 43.3255 18.8052 43.2744 18.8616L41.719 20.5808C41.6158 20.6946 41.476 20.7585 41.3302 20.7585C41.1844 20.7585 41.0446 20.6946 40.9413 20.5808Z" fill="#CCCCCC"/>
</g>
<defs>
<clipPath id="clip0_4_353">
<rect width="146" height="116.667" fill="white" transform="translate(0 0.666748)"/>
</clipPath>
</defs>
</svg>
